0
SECTION
2
TABLES
0
TABLE
2
LAYER
70
2
0
LAYER
2
CUT
70
0
62
7
6
CONTINUOUS
0
LAYER
2
POPIS
70
0
62
1
6
CONTINUOUS
0
ENDTAB
0
ENDSEC
0
SECTION
2
ENTITIES
0
POLYLINE
8
CUT
66
1
70
1
0
VERTEX
8
CUT
10
5.000
20
15.507
0
VERTEX
8
CUT
10
5.674
20
16.621
0
VERTEX
8
CUT
10
6.641
20
18.235
0
VERTEX
8
CUT
10
7.725
20
19.947
0
VERTEX
8
CUT
10
8.750
20
21.357
0
VERTEX
8
CUT
10
9.861
20
22.568
0
VERTEX
8
CUT
10
10.972
20
23.479
0
VERTEX
8
CUT
10
12.500
20
24.507
0
VERTEX
8
CUT
10
13.760
20
25.301
0
VERTEX
8
CUT
10
15.230
20
26.176
0
VERTEX
8
CUT
10
16.820
20
27.073
0
VERTEX
8
CUT
10
18.440
20
27.936
0
VERTEX
8
CUT
10
20.000
20
28.707
0
VERTEX
8
CUT
10
21.500
20
29.373
0
VERTEX
8
CUT
10
23.000
20
29.973
0
VERTEX
8
CUT
10
24.500
20
30.525
0
VERTEX
8
CUT
10
26.000
20
31.047
0
VERTEX
8
CUT
10
26.400
20
31.183
0
VERTEX
8
CUT
10
27.995
20
26.444
0
VERTEX
8
CUT
10
33.195
20
28.158
0
VERTEX
8
CUT
10
31.600
20
32.897
0
VERTEX
8
CUT
10
32.598
20
33.189
0
VERTEX
8
CUT
10
35.000
20
33.807
0
VERTEX
8
CUT
10
36.516
20
34.172
0
VERTEX
8
CUT
10
38.223
20
34.575
0
VERTEX
8
CUT
10
40.076
20
35.002
0
VERTEX
8
CUT
10
42.031
20
35.440
0
VERTEX
8
CUT
10
44.045
20
35.876
0
VERTEX
8
CUT
10
46.074
20
36.298
0
VERTEX
8
CUT
10
48.074
20
36.692
0
VERTEX
8
CUT
10
50.000
20
37.047
0
VERTEX
8
CUT
10
51.772
20
37.366
0
VERTEX
8
CUT
10
53.398
20
37.665
0
VERTEX
8
CUT
10
54.966
20
37.944
0
VERTEX
8
CUT
10
56.562
20
38.205
0
VERTEX
8
CUT
10
58.276
20
38.449
0
VERTEX
8
CUT
10
60.195
20
38.677
0
VERTEX
8
CUT
10
62.407
20
38.889
0
VERTEX
8
CUT
10
65.000
20
39.087
0
VERTEX
8
CUT
10
66.463
20
39.182
0
VERTEX
8
CUT
10
68.032
20
39.276
0
VERTEX
8
CUT
10
69.697
20
39.368
0
VERTEX
8
CUT
10
71.445
20
39.458
0
VERTEX
8
CUT
10
73.267
20
39.545
0
VERTEX
8
CUT
10
75.151
20
39.628
0
VERTEX
8
CUT
10
77.087
20
39.707
0
VERTEX
8
CUT
10
79.062
20
39.780
0
VERTEX
8
CUT
10
81.068
20
39.848
0
VERTEX
8
CUT
10
83.091
20
39.910
0
VERTEX
8
CUT
10
85.121
20
39.964
0
VERTEX
8
CUT
10
87.148
20
40.011
0
VERTEX
8
CUT
10
89.161
20
40.049
0
VERTEX
8
CUT
10
91.147
20
40.078
0
VERTEX
8
CUT
10
92.400
20
40.091
0
VERTEX
8
CUT
10
92.412
20
35.091
0
VERTEX
8
CUT
10
97.612
20
35.103
0
VERTEX
8
CUT
10
97.600
20
40.103
0
VERTEX
8
CUT
10
98.750
20
40.098
0
VERTEX
8
CUT
10
100.625
20
40.082
0
VERTEX
8
CUT
10
102.500
20
40.057
0
VERTEX
8
CUT
10
104.375
20
40.026
0
VERTEX
8
CUT
10
106.250
20
39.986
0
VERTEX
8
CUT
10
108.125
20
39.939
0
VERTEX
8
CUT
10
110.000
20
39.885
0
VERTEX
8
CUT
10
111.875
20
39.824
0
VERTEX
8
CUT
10
113.750
20
39.756
0
VERTEX
8
CUT
10
115.625
20
39.681
0
VERTEX
8
CUT
10
117.500
20
39.599
0
VERTEX
8
CUT
10
119.375
20
39.511
0
VERTEX
8
CUT
10
121.250
20
39.416
0
VERTEX
8
CUT
10
123.125
20
39.314
0
VERTEX
8
CUT
10
125.000
20
39.207
0
VERTEX
8
CUT
10
126.875
20
39.092
0
VERTEX
8
CUT
10
128.750
20
38.970
0
VERTEX
8
CUT
10
130.625
20
38.840
0
VERTEX
8
CUT
10
132.500
20
38.703
0
VERTEX
8
CUT
10
134.375
20
38.560
0
VERTEX
8
CUT
10
136.250
20
38.409
0
VERTEX
8
CUT
10
138.125
20
38.251
0
VERTEX
8
CUT
10
140.000
20
38.087
0
VERTEX
8
CUT
10
141.875
20
37.917
0
VERTEX
8
CUT
10
143.750
20
37.741
0
VERTEX
8
CUT
10
145.625
20
37.559
0
VERTEX
8
CUT
10
147.500
20
37.371
0
VERTEX
8
CUT
10
149.375
20
37.177
0
VERTEX
8
CUT
10
151.250
20
36.979
0
VERTEX
8
CUT
10
153.125
20
36.775
0
VERTEX
8
CUT
10
155.000
20
36.567
0
VERTEX
8
CUT
10
156.875
20
36.353
0
VERTEX
8
CUT
10
158.400
20
36.173
0
VERTEX
8
CUT
10
157.789
20
31.211
0
VERTEX
8
CUT
10
162.989
20
30.570
0
VERTEX
8
CUT
10
163.600
20
35.533
0
VERTEX
8
CUT
10
164.375
20
35.434
0
VERTEX
8
CUT
10
166.250
20
35.190
0
VERTEX
8
CUT
10
168.125
20
34.940
0
VERTEX
8
CUT
10
170.000
20
34.684
0
VERTEX
8
CUT
10
171.875
20
34.423
0
VERTEX
8
CUT
10
173.750
20
34.157
0
VERTEX
8
CUT
10
175.625
20
33.886
0
VERTEX
8
CUT
10
177.500
20
33.609
0
VERTEX
8
CUT
10
179.375
20
33.328
0
VERTEX
8
CUT
10
181.250
20
33.042
0
VERTEX
8
CUT
10
183.125
20
32.752
0
VERTEX
8
CUT
10
185.000
20
32.457
0
VERTEX
8
CUT
10
186.875
20
32.156
0
VERTEX
8
CUT
10
188.750
20
31.850
0
VERTEX
8
CUT
10
190.625
20
31.538
0
VERTEX
8
CUT
10
192.500
20
31.221
0
VERTEX
8
CUT
10
194.375
20
30.898
0
VERTEX
8
CUT
10
196.250
20
30.570
0
VERTEX
8
CUT
10
198.125
20
30.237
0
VERTEX
8
CUT
10
200.000
20
29.899
0
VERTEX
8
CUT
10
201.875
20
29.557
0
VERTEX
8
CUT
10
203.750
20
29.211
0
VERTEX
8
CUT
10
205.625
20
28.861
0
VERTEX
8
CUT
10
207.500
20
28.507
0
VERTEX
8
CUT
10
209.375
20
28.149
0
VERTEX
8
CUT
10
211.250
20
27.788
0
VERTEX
8
CUT
10
213.125
20
27.424
0
VERTEX
8
CUT
10
215.000
20
27.057
0
VERTEX
8
CUT
10
216.875
20
26.686
0
VERTEX
8
CUT
10
218.750
20
26.311
0
VERTEX
8
CUT
10
220.625
20
25.932
0
VERTEX
8
CUT
10
222.500
20
25.549
0
VERTEX
8
CUT
10
224.375
20
25.162
0
VERTEX
8
CUT
10
224.400
20
25.157
0
VERTEX
8
CUT
10
223.371
20
20.264
0
VERTEX
8
CUT
10
228.571
20
19.170
0
VERTEX
8
CUT
10
229.600
20
24.063
0
VERTEX
8
CUT
10
230.000
20
23.978
0
VERTEX
8
CUT
10
231.875
20
23.576
0
VERTEX
8
CUT
10
233.750
20
23.170
0
VERTEX
8
CUT
10
235.625
20
22.761
0
VERTEX
8
CUT
10
237.500
20
22.349
0
VERTEX
8
CUT
10
239.375
20
21.933
0
VERTEX
8
CUT
10
240.000
20
21.793
0
VERTEX
8
CUT
10
240.000
20
5.007
0
VERTEX
8
CUT
10
239.000
20
5.007
0
VERTEX
8
CUT
10
237.000
20
5.007
0
VERTEX
8
CUT
10
235.000
20
5.007
0
VERTEX
8
CUT
10
233.000
20
5.007
0
VERTEX
8
CUT
10
231.000
20
5.007
0
VERTEX
8
CUT
10
229.600
20
5.007
0
VERTEX
8
CUT
10
229.600
20
10.007
0
VERTEX
8
CUT
10
224.400
20
10.007
0
VERTEX
8
CUT
10
224.400
20
5.007
0
VERTEX
8
CUT
10
223.000
20
5.007
0
VERTEX
8
CUT
10
221.000
20
5.007
0
VERTEX
8
CUT
10
219.000
20
5.007
0
VERTEX
8
CUT
10
217.000
20
5.007
0
VERTEX
8
CUT
10
215.000
20
5.007
0
VERTEX
8
CUT
10
213.000
20
5.007
0
VERTEX
8
CUT
10
211.000
20
5.007
0
VERTEX
8
CUT
10
209.000
20
5.007
0
VERTEX
8
CUT
10
207.000
20
5.007
0
VERTEX
8
CUT
10
205.000
20
5.007
0
VERTEX
8
CUT
10
203.000
20
5.007
0
VERTEX
8
CUT
10
201.000
20
5.007
0
VERTEX
8
CUT
10
199.000
20
5.007
0
VERTEX
8
CUT
10
197.000
20
5.007
0
VERTEX
8
CUT
10
195.000
20
5.007
0
VERTEX
8
CUT
10
193.000
20
5.007
0
VERTEX
8
CUT
10
191.000
20
5.007
0
VERTEX
8
CUT
10
189.000
20
5.007
0
VERTEX
8
CUT
10
187.000
20
5.007
0
VERTEX
8
CUT
10
185.000
20
5.007
0
VERTEX
8
CUT
10
183.000
20
5.007
0
VERTEX
8
CUT
10
181.000
20
5.007
0
VERTEX
8
CUT
10
179.000
20
5.007
0
VERTEX
8
CUT
10
177.000
20
5.007
0
VERTEX
8
CUT
10
175.000
20
5.007
0
VERTEX
8
CUT
10
173.000
20
5.007
0
VERTEX
8
CUT
10
171.000
20
5.007
0
VERTEX
8
CUT
10
169.000
20
5.007
0
VERTEX
8
CUT
10
167.000
20
5.007
0
VERTEX
8
CUT
10
165.000
20
5.007
0
VERTEX
8
CUT
10
163.600
20
5.007
0
VERTEX
8
CUT
10
163.600
20
10.007
0
VERTEX
8
CUT
10
158.400
20
10.007
0
VERTEX
8
CUT
10
158.400
20
5.007
0
VERTEX
8
CUT
10
157.000
20
5.007
0
VERTEX
8
CUT
10
155.000
20
5.007
0
VERTEX
8
CUT
10
153.000
20
5.007
0
VERTEX
8
CUT
10
151.000
20
5.007
0
VERTEX
8
CUT
10
149.000
20
5.007
0
VERTEX
8
CUT
10
147.000
20
5.007
0
VERTEX
8
CUT
10
145.000
20
5.007
0
VERTEX
8
CUT
10
143.000
20
5.007
0
VERTEX
8
CUT
10
141.000
20
5.007
0
VERTEX
8
CUT
10
139.000
20
5.007
0
VERTEX
8
CUT
10
137.000
20
5.007
0
VERTEX
8
CUT
10
135.000
20
5.007
0
VERTEX
8
CUT
10
133.000
20
5.007
0
VERTEX
8
CUT
10
131.000
20
5.007
0
VERTEX
8
CUT
10
129.000
20
5.007
0
VERTEX
8
CUT
10
127.000
20
5.007
0
VERTEX
8
CUT
10
125.000
20
5.007
0
VERTEX
8
CUT
10
123.000
20
5.006
0
VERTEX
8
CUT
10
121.000
20
5.006
0
VERTEX
8
CUT
10
119.000
20
5.005
0
VERTEX
8
CUT
10
117.000
20
5.004
0
VERTEX
8
CUT
10
115.000
20
5.003
0
VERTEX
8
CUT
10
113.000
20
5.002
0
VERTEX
8
CUT
10
111.000
20
5.001
0
VERTEX
8
CUT
10
109.000
20
5.001
0
VERTEX
8
CUT
10
107.000
20
5.000
0
VERTEX
8
CUT
10
105.000
20
5.000
0
VERTEX
8
CUT
10
103.000
20
5.000
0
VERTEX
8
CUT
10
101.000
20
5.001
0
VERTEX
8
CUT
10
99.000
20
5.002
0
VERTEX
8
CUT
10
97.600
20
5.003
0
VERTEX
8
CUT
10
97.607
20
10.003
0
VERTEX
8
CUT
10
92.407
20
10.010
0
VERTEX
8
CUT
10
92.400
20
5.010
0
VERTEX
8
CUT
10
91.147
20
5.012
0
VERTEX
8
CUT
10
89.161
20
5.014
0
VERTEX
8
CUT
10
87.148
20
5.017
0
VERTEX
8
CUT
10
85.121
20
5.019
0
VERTEX
8
CUT
10
83.091
20
5.022
0
VERTEX
8
CUT
10
81.068
20
5.025
0
VERTEX
8
CUT
10
79.062
20
5.029
0
VERTEX
8
CUT
10
77.087
20
5.034
0
VERTEX
8
CUT
10
75.151
20
5.039
0
VERTEX
8
CUT
10
73.267
20
5.046
0
VERTEX
8
CUT
10
71.445
20
5.053
0
VERTEX
8
CUT
10
69.697
20
5.062
0
VERTEX
8
CUT
10
68.032
20
5.072
0
VERTEX
8
CUT
10
66.463
20
5.083
0
VERTEX
8
CUT
10
65.000
20
5.097
0
VERTEX
8
CUT
10
62.407
20
5.126
0
VERTEX
8
CUT
10
60.195
20
5.157
0
VERTEX
8
CUT
10
58.276
20
5.192
0
VERTEX
8
CUT
10
56.562
20
5.232
0
VERTEX
8
CUT
10
54.966
20
5.277
0
VERTEX
8
CUT
10
53.398
20
5.329
0
VERTEX
8
CUT
10
51.772
20
5.388
0
VERTEX
8
CUT
10
50.000
20
5.457
0
VERTEX
8
CUT
10
48.074
20
5.538
0
VERTEX
8
CUT
10
46.074
20
5.632
0
VERTEX
8
CUT
10
44.045
20
5.735
0
VERTEX
8
CUT
10
42.031
20
5.845
0
VERTEX
8
CUT
10
40.076
20
5.956
0
VERTEX
8
CUT
10
38.223
20
6.066
0
VERTEX
8
CUT
10
36.516
20
6.171
0
VERTEX
8
CUT
10
35.000
20
6.267
0
VERTEX
8
CUT
10
32.598
20
6.430
0
VERTEX
8
CUT
10
30.781
20
6.576
0
VERTEX
8
CUT
10
29.199
20
6.724
0
VERTEX
8
CUT
10
27.500
20
6.897
0
VERTEX
8
CUT
10
25.625
20
7.086
0
VERTEX
8
CUT
10
23.750
20
7.285
0
VERTEX
8
CUT
10
21.875
20
7.515
0
VERTEX
8
CUT
10
20.000
20
7.797
0
VERTEX
8
CUT
10
18.037
20
8.157
0
VERTEX
8
CUT
10
16.016
20
8.577
0
VERTEX
8
CUT
10
14.111
20
9.012
0
VERTEX
8
CUT
10
12.500
20
9.417
0
VERTEX
8
CUT
10
10.391
20
9.914
0
VERTEX
8
CUT
10
8.750
20
10.797
0
VERTEX
8
CUT
10
7.725
20
11.850
0
VERTEX
8
CUT
10
6.641
20
13.238
0
VERTEX
8
CUT
10
5.674
20
14.582
0
SEQEND
0
TEXT
8
POPIS
10
11.000
20
8.000
40
5.000
1
zebro-kratke-235
0
POLYLINE
8
CUT
66
1
70
1
0
VERTEX
8
CUT
10
244.000
20
15.507
0
VERTEX
8
CUT
10
244.674
20
16.621
0
VERTEX
8
CUT
10
245.641
20
18.235
0
VERTEX
8
CUT
10
246.725
20
19.947
0
VERTEX
8
CUT
10
247.750
20
21.357
0
VERTEX
8
CUT
10
248.861
20
22.568
0
VERTEX
8
CUT
10
249.972
20
23.479
0
VERTEX
8
CUT
10
251.500
20
24.507
0
VERTEX
8
CUT
10
252.760
20
25.301
0
VERTEX
8
CUT
10
254.230
20
26.176
0
VERTEX
8
CUT
10
255.820
20
27.073
0
VERTEX
8
CUT
10
257.440
20
27.936
0
VERTEX
8
CUT
10
259.000
20
28.707
0
VERTEX
8
CUT
10
260.500
20
29.373
0
VERTEX
8
CUT
10
262.000
20
29.973
0
VERTEX
8
CUT
10
263.500
20
30.525
0
VERTEX
8
CUT
10
265.000
20
31.047
0
VERTEX
8
CUT
10
265.400
20
31.183
0
VERTEX
8
CUT
10
266.995
20
26.444
0
VERTEX
8
CUT
10
272.195
20
28.158
0
VERTEX
8
CUT
10
270.600
20
32.897
0
VERTEX
8
CUT
10
271.598
20
33.189
0
VERTEX
8
CUT
10
274.000
20
33.807
0
VERTEX
8
CUT
10
275.516
20
34.172
0
VERTEX
8
CUT
10
277.223
20
34.575
0
VERTEX
8
CUT
10
279.076
20
35.002
0
VERTEX
8
CUT
10
281.031
20
35.440
0
VERTEX
8
CUT
10
283.045
20
35.876
0
VERTEX
8
CUT
10
285.074
20
36.298
0
VERTEX
8
CUT
10
287.074
20
36.692
0
VERTEX
8
CUT
10
289.000
20
37.047
0
VERTEX
8
CUT
10
290.772
20
37.366
0
VERTEX
8
CUT
10
292.398
20
37.665
0
VERTEX
8
CUT
10
293.966
20
37.944
0
VERTEX
8
CUT
10
295.562
20
38.205
0
VERTEX
8
CUT
10
297.276
20
38.449
0
VERTEX
8
CUT
10
299.195
20
38.677
0
VERTEX
8
CUT
10
301.407
20
38.889
0
VERTEX
8
CUT
10
304.000
20
39.087
0
VERTEX
8
CUT
10
305.463
20
39.182
0
VERTEX
8
CUT
10
307.032
20
39.276
0
VERTEX
8
CUT
10
308.697
20
39.368
0
VERTEX
8
CUT
10
310.445
20
39.458
0
VERTEX
8
CUT
10
312.267
20
39.545
0
VERTEX
8
CUT
10
314.151
20
39.628
0
VERTEX
8
CUT
10
316.087
20
39.707
0
VERTEX
8
CUT
10
318.062
20
39.780
0
VERTEX
8
CUT
10
320.068
20
39.848
0
VERTEX
8
CUT
10
322.091
20
39.910
0
VERTEX
8
CUT
10
324.121
20
39.964
0
VERTEX
8
CUT
10
326.148
20
40.011
0
VERTEX
8
CUT
10
328.161
20
40.049
0
VERTEX
8
CUT
10
330.147
20
40.078
0
VERTEX
8
CUT
10
331.400
20
40.091
0
VERTEX
8
CUT
10
331.412
20
35.091
0
VERTEX
8
CUT
10
336.612
20
35.103
0
VERTEX
8
CUT
10
336.600
20
40.103
0
VERTEX
8
CUT
10
337.750
20
40.098
0
VERTEX
8
CUT
10
339.625
20
40.082
0
VERTEX
8
CUT
10
341.500
20
40.057
0
VERTEX
8
CUT
10
343.375
20
40.026
0
VERTEX
8
CUT
10
345.250
20
39.986
0
VERTEX
8
CUT
10
347.125
20
39.939
0
VERTEX
8
CUT
10
349.000
20
39.885
0
VERTEX
8
CUT
10
350.875
20
39.824
0
VERTEX
8
CUT
10
352.750
20
39.756
0
VERTEX
8
CUT
10
354.625
20
39.681
0
VERTEX
8
CUT
10
356.500
20
39.599
0
VERTEX
8
CUT
10
358.375
20
39.511
0
VERTEX
8
CUT
10
360.250
20
39.416
0
VERTEX
8
CUT
10
362.125
20
39.314
0
VERTEX
8
CUT
10
364.000
20
39.207
0
VERTEX
8
CUT
10
365.875
20
39.092
0
VERTEX
8
CUT
10
367.750
20
38.970
0
VERTEX
8
CUT
10
369.625
20
38.840
0
VERTEX
8
CUT
10
371.500
20
38.703
0
VERTEX
8
CUT
10
373.375
20
38.560
0
VERTEX
8
CUT
10
375.250
20
38.409
0
VERTEX
8
CUT
10
377.125
20
38.251
0
VERTEX
8
CUT
10
379.000
20
38.087
0
VERTEX
8
CUT
10
380.875
20
37.917
0
VERTEX
8
CUT
10
382.750
20
37.741
0
VERTEX
8
CUT
10
384.625
20
37.559
0
VERTEX
8
CUT
10
386.500
20
37.371
0
VERTEX
8
CUT
10
388.375
20
37.177
0
VERTEX
8
CUT
10
390.250
20
36.979
0
VERTEX
8
CUT
10
392.125
20
36.775
0
VERTEX
8
CUT
10
394.000
20
36.567
0
VERTEX
8
CUT
10
395.875
20
36.353
0
VERTEX
8
CUT
10
397.400
20
36.173
0
VERTEX
8
CUT
10
396.789
20
31.211
0
VERTEX
8
CUT
10
401.989
20
30.570
0
VERTEX
8
CUT
10
402.600
20
35.533
0
VERTEX
8
CUT
10
403.375
20
35.434
0
VERTEX
8
CUT
10
405.250
20
35.190
0
VERTEX
8
CUT
10
407.125
20
34.940
0
VERTEX
8
CUT
10
409.000
20
34.684
0
VERTEX
8
CUT
10
410.875
20
34.423
0
VERTEX
8
CUT
10
412.750
20
34.157
0
VERTEX
8
CUT
10
414.625
20
33.886
0
VERTEX
8
CUT
10
416.500
20
33.609
0
VERTEX
8
CUT
10
418.375
20
33.328
0
VERTEX
8
CUT
10
420.250
20
33.042
0
VERTEX
8
CUT
10
422.125
20
32.752
0
VERTEX
8
CUT
10
424.000
20
32.457
0
VERTEX
8
CUT
10
425.875
20
32.156
0
VERTEX
8
CUT
10
427.750
20
31.850
0
VERTEX
8
CUT
10
429.625
20
31.538
0
VERTEX
8
CUT
10
431.500
20
31.221
0
VERTEX
8
CUT
10
433.375
20
30.898
0
VERTEX
8
CUT
10
435.250
20
30.570
0
VERTEX
8
CUT
10
437.125
20
30.237
0
VERTEX
8
CUT
10
439.000
20
29.899
0
VERTEX
8
CUT
10
440.875
20
29.557
0
VERTEX
8
CUT
10
442.750
20
29.211
0
VERTEX
8
CUT
10
444.625
20
28.861
0
VERTEX
8
CUT
10
446.500
20
28.507
0
VERTEX
8
CUT
10
448.375
20
28.149
0
VERTEX
8
CUT
10
450.250
20
27.788
0
VERTEX
8
CUT
10
452.125
20
27.424
0
VERTEX
8
CUT
10
454.000
20
27.057
0
VERTEX
8
CUT
10
455.875
20
26.686
0
VERTEX
8
CUT
10
457.750
20
26.311
0
VERTEX
8
CUT
10
459.625
20
25.932
0
VERTEX
8
CUT
10
461.500
20
25.549
0
VERTEX
8
CUT
10
463.375
20
25.162
0
VERTEX
8
CUT
10
463.400
20
25.157
0
VERTEX
8
CUT
10
462.371
20
20.264
0
VERTEX
8
CUT
10
467.571
20
19.170
0
VERTEX
8
CUT
10
468.600
20
24.063
0
VERTEX
8
CUT
10
469.000
20
23.978
0
VERTEX
8
CUT
10
470.875
20
23.576
0
VERTEX
8
CUT
10
472.750
20
23.170
0
VERTEX
8
CUT
10
474.625
20
22.761
0
VERTEX
8
CUT
10
476.500
20
22.349
0
VERTEX
8
CUT
10
478.375
20
21.933
0
VERTEX
8
CUT
10
479.000
20
21.793
0
VERTEX
8
CUT
10
479.000
20
5.007
0
VERTEX
8
CUT
10
478.000
20
5.007
0
VERTEX
8
CUT
10
476.000
20
5.007
0
VERTEX
8
CUT
10
474.000
20
5.007
0
VERTEX
8
CUT
10
472.000
20
5.007
0
VERTEX
8
CUT
10
470.000
20
5.007
0
VERTEX
8
CUT
10
468.600
20
5.007
0
VERTEX
8
CUT
10
468.600
20
10.007
0
VERTEX
8
CUT
10
463.400
20
10.007
0
VERTEX
8
CUT
10
463.400
20
5.007
0
VERTEX
8
CUT
10
462.000
20
5.007
0
VERTEX
8
CUT
10
460.000
20
5.007
0
VERTEX
8
CUT
10
458.000
20
5.007
0
VERTEX
8
CUT
10
456.000
20
5.007
0
VERTEX
8
CUT
10
454.000
20
5.007
0
VERTEX
8
CUT
10
452.000
20
5.007
0
VERTEX
8
CUT
10
450.000
20
5.007
0
VERTEX
8
CUT
10
448.000
20
5.007
0
VERTEX
8
CUT
10
446.000
20
5.007
0
VERTEX
8
CUT
10
444.000
20
5.007
0
VERTEX
8
CUT
10
442.000
20
5.007
0
VERTEX
8
CUT
10
440.000
20
5.007
0
VERTEX
8
CUT
10
438.000
20
5.007
0
VERTEX
8
CUT
10
436.000
20
5.007
0
VERTEX
8
CUT
10
434.000
20
5.007
0
VERTEX
8
CUT
10
432.000
20
5.007
0
VERTEX
8
CUT
10
430.000
20
5.007
0
VERTEX
8
CUT
10
428.000
20
5.007
0
VERTEX
8
CUT
10
426.000
20
5.007
0
VERTEX
8
CUT
10
424.000
20
5.007
0
VERTEX
8
CUT
10
422.000
20
5.007
0
VERTEX
8
CUT
10
420.000
20
5.007
0
VERTEX
8
CUT
10
418.000
20
5.007
0
VERTEX
8
CUT
10
416.000
20
5.007
0
VERTEX
8
CUT
10
414.000
20
5.007
0
VERTEX
8
CUT
10
412.000
20
5.007
0
VERTEX
8
CUT
10
410.000
20
5.007
0
VERTEX
8
CUT
10
408.000
20
5.007
0
VERTEX
8
CUT
10
406.000
20
5.007
0
VERTEX
8
CUT
10
404.000
20
5.007
0
VERTEX
8
CUT
10
402.600
20
5.007
0
VERTEX
8
CUT
10
402.600
20
10.007
0
VERTEX
8
CUT
10
397.400
20
10.007
0
VERTEX
8
CUT
10
397.400
20
5.007
0
VERTEX
8
CUT
10
396.000
20
5.007
0
VERTEX
8
CUT
10
394.000
20
5.007
0
VERTEX
8
CUT
10
392.000
20
5.007
0
VERTEX
8
CUT
10
390.000
20
5.007
0
VERTEX
8
CUT
10
388.000
20
5.007
0
VERTEX
8
CUT
10
386.000
20
5.007
0
VERTEX
8
CUT
10
384.000
20
5.007
0
VERTEX
8
CUT
10
382.000
20
5.007
0
VERTEX
8
CUT
10
380.000
20
5.007
0
VERTEX
8
CUT
10
378.000
20
5.007
0
VERTEX
8
CUT
10
376.000
20
5.007
0
VERTEX
8
CUT
10
374.000
20
5.007
0
VERTEX
8
CUT
10
372.000
20
5.007
0
VERTEX
8
CUT
10
370.000
20
5.007
0
VERTEX
8
CUT
10
368.000
20
5.007
0
VERTEX
8
CUT
10
366.000
20
5.007
0
VERTEX
8
CUT
10
364.000
20
5.007
0
VERTEX
8
CUT
10
362.000
20
5.006
0
VERTEX
8
CUT
10
360.000
20
5.006
0
VERTEX
8
CUT
10
358.000
20
5.005
0
VERTEX
8
CUT
10
356.000
20
5.004
0
VERTEX
8
CUT
10
354.000
20
5.003
0
VERTEX
8
CUT
10
352.000
20
5.002
0
VERTEX
8
CUT
10
350.000
20
5.001
0
VERTEX
8
CUT
10
348.000
20
5.001
0
VERTEX
8
CUT
10
346.000
20
5.000
0
VERTEX
8
CUT
10
344.000
20
5.000
0
VERTEX
8
CUT
10
342.000
20
5.000
0
VERTEX
8
CUT
10
340.000
20
5.001
0
VERTEX
8
CUT
10
338.000
20
5.002
0
VERTEX
8
CUT
10
336.600
20
5.003
0
VERTEX
8
CUT
10
336.607
20
10.003
0
VERTEX
8
CUT
10
331.407
20
10.010
0
VERTEX
8
CUT
10
331.400
20
5.010
0
VERTEX
8
CUT
10
330.147
20
5.012
0
VERTEX
8
CUT
10
328.161
20
5.014
0
VERTEX
8
CUT
10
326.148
20
5.017
0
VERTEX
8
CUT
10
324.121
20
5.019
0
VERTEX
8
CUT
10
322.091
20
5.022
0
VERTEX
8
CUT
10
320.068
20
5.025
0
VERTEX
8
CUT
10
318.062
20
5.029
0
VERTEX
8
CUT
10
316.087
20
5.034
0
VERTEX
8
CUT
10
314.151
20
5.039
0
VERTEX
8
CUT
10
312.267
20
5.046
0
VERTEX
8
CUT
10
310.445
20
5.053
0
VERTEX
8
CUT
10
308.697
20
5.062
0
VERTEX
8
CUT
10
307.032
20
5.072
0
VERTEX
8
CUT
10
305.463
20
5.083
0
VERTEX
8
CUT
10
304.000
20
5.097
0
VERTEX
8
CUT
10
301.407
20
5.126
0
VERTEX
8
CUT
10
299.195
20
5.157
0
VERTEX
8
CUT
10
297.276
20
5.192
0
VERTEX
8
CUT
10
295.562
20
5.232
0
VERTEX
8
CUT
10
293.966
20
5.277
0
VERTEX
8
CUT
10
292.398
20
5.329
0
VERTEX
8
CUT
10
290.772
20
5.388
0
VERTEX
8
CUT
10
289.000
20
5.457
0
VERTEX
8
CUT
10
287.074
20
5.538
0
VERTEX
8
CUT
10
285.074
20
5.632
0
VERTEX
8
CUT
10
283.045
20
5.735
0
VERTEX
8
CUT
10
281.031
20
5.845
0
VERTEX
8
CUT
10
279.076
20
5.956
0
VERTEX
8
CUT
10
277.223
20
6.066
0
VERTEX
8
CUT
10
275.516
20
6.171
0
VERTEX
8
CUT
10
274.000
20
6.267
0
VERTEX
8
CUT
10
271.598
20
6.430
0
VERTEX
8
CUT
10
269.781
20
6.576
0
VERTEX
8
CUT
10
268.199
20
6.724
0
VERTEX
8
CUT
10
266.500
20
6.897
0
VERTEX
8
CUT
10
264.625
20
7.086
0
VERTEX
8
CUT
10
262.750
20
7.285
0
VERTEX
8
CUT
10
260.875
20
7.515
0
VERTEX
8
CUT
10
259.000
20
7.797
0
VERTEX
8
CUT
10
257.037
20
8.157
0
VERTEX
8
CUT
10
255.016
20
8.577
0
VERTEX
8
CUT
10
253.111
20
9.012
0
VERTEX
8
CUT
10
251.500
20
9.417
0
VERTEX
8
CUT
10
249.391
20
9.914
0
VERTEX
8
CUT
10
247.750
20
10.797
0
VERTEX
8
CUT
10
246.725
20
11.850
0
VERTEX
8
CUT
10
245.641
20
13.238
0
VERTEX
8
CUT
10
244.674
20
14.582
0
SEQEND
0
TEXT
8
POPIS
10
250.000
20
8.000
40
5.000
1
zebro-kratke-235
0
POLYLINE
8
CUT
66
1
70
1
0
VERTEX
8
CUT
10
483.000
20
15.507
0
VERTEX
8
CUT
10
483.674
20
16.621
0
VERTEX
8
CUT
10
484.641
20
18.235
0
VERTEX
8
CUT
10
485.725
20
19.947
0
VERTEX
8
CUT
10
486.750
20
21.357
0
VERTEX
8
CUT
10
487.861
20
22.568
0
VERTEX
8
CUT
10
488.972
20
23.479
0
VERTEX
8
CUT
10
490.500
20
24.507
0
VERTEX
8
CUT
10
491.760
20
25.301
0
VERTEX
8
CUT
10
493.230
20
26.176
0
VERTEX
8
CUT
10
494.820
20
27.073
0
VERTEX
8
CUT
10
496.440
20
27.936
0
VERTEX
8
CUT
10
498.000
20
28.707
0
VERTEX
8
CUT
10
499.500
20
29.373
0
VERTEX
8
CUT
10
501.000
20
29.973
0
VERTEX
8
CUT
10
502.500
20
30.525
0
VERTEX
8
CUT
10
504.000
20
31.047
0
VERTEX
8
CUT
10
504.400
20
31.183
0
VERTEX
8
CUT
10
505.995
20
26.444
0
VERTEX
8
CUT
10
511.195
20
28.158
0
VERTEX
8
CUT
10
509.600
20
32.897
0
VERTEX
8
CUT
10
510.598
20
33.189
0
VERTEX
8
CUT
10
513.000
20
33.807
0
VERTEX
8
CUT
10
514.516
20
34.172
0
VERTEX
8
CUT
10
516.223
20
34.575
0
VERTEX
8
CUT
10
518.076
20
35.002
0
VERTEX
8
CUT
10
520.031
20
35.440
0
VERTEX
8
CUT
10
522.045
20
35.876
0
VERTEX
8
CUT
10
524.074
20
36.298
0
VERTEX
8
CUT
10
526.074
20
36.692
0
VERTEX
8
CUT
10
528.000
20
37.047
0
VERTEX
8
CUT
10
529.772
20
37.366
0
VERTEX
8
CUT
10
531.398
20
37.665
0
VERTEX
8
CUT
10
532.966
20
37.944
0
VERTEX
8
CUT
10
534.562
20
38.205
0
VERTEX
8
CUT
10
536.276
20
38.449
0
VERTEX
8
CUT
10
538.195
20
38.677
0
VERTEX
8
CUT
10
540.407
20
38.889
0
VERTEX
8
CUT
10
543.000
20
39.087
0
VERTEX
8
CUT
10
544.463
20
39.182
0
VERTEX
8
CUT
10
546.032
20
39.276
0
VERTEX
8
CUT
10
547.697
20
39.368
0
VERTEX
8
CUT
10
549.445
20
39.458
0
VERTEX
8
CUT
10
551.267
20
39.545
0
VERTEX
8
CUT
10
553.151
20
39.628
0
VERTEX
8
CUT
10
555.087
20
39.707
0
VERTEX
8
CUT
10
557.062
20
39.780
0
VERTEX
8
CUT
10
559.068
20
39.848
0
VERTEX
8
CUT
10
561.091
20
39.910
0
VERTEX
8
CUT
10
563.121
20
39.964
0
VERTEX
8
CUT
10
565.148
20
40.011
0
VERTEX
8
CUT
10
567.161
20
40.049
0
VERTEX
8
CUT
10
569.147
20
40.078
0
VERTEX
8
CUT
10
570.400
20
40.091
0
VERTEX
8
CUT
10
570.412
20
35.091
0
VERTEX
8
CUT
10
575.612
20
35.103
0
VERTEX
8
CUT
10
575.600
20
40.103
0
VERTEX
8
CUT
10
576.750
20
40.098
0
VERTEX
8
CUT
10
578.625
20
40.082
0
VERTEX
8
CUT
10
580.500
20
40.057
0
VERTEX
8
CUT
10
582.375
20
40.026
0
VERTEX
8
CUT
10
584.250
20
39.986
0
VERTEX
8
CUT
10
586.125
20
39.939
0
VERTEX
8
CUT
10
588.000
20
39.885
0
VERTEX
8
CUT
10
589.875
20
39.824
0
VERTEX
8
CUT
10
591.750
20
39.756
0
VERTEX
8
CUT
10
593.625
20
39.681
0
VERTEX
8
CUT
10
595.500
20
39.599
0
VERTEX
8
CUT
10
597.375
20
39.511
0
VERTEX
8
CUT
10
599.250
20
39.416
0
VERTEX
8
CUT
10
601.125
20
39.314
0
VERTEX
8
CUT
10
603.000
20
39.207
0
VERTEX
8
CUT
10
604.875
20
39.092
0
VERTEX
8
CUT
10
606.750
20
38.970
0
VERTEX
8
CUT
10
608.625
20
38.840
0
VERTEX
8
CUT
10
610.500
20
38.703
0
VERTEX
8
CUT
10
612.375
20
38.560
0
VERTEX
8
CUT
10
614.250
20
38.409
0
VERTEX
8
CUT
10
616.125
20
38.251
0
VERTEX
8
CUT
10
618.000
20
38.087
0
VERTEX
8
CUT
10
619.875
20
37.917
0
VERTEX
8
CUT
10
621.750
20
37.741
0
VERTEX
8
CUT
10
623.625
20
37.559
0
VERTEX
8
CUT
10
625.500
20
37.371
0
VERTEX
8
CUT
10
627.375
20
37.177
0
VERTEX
8
CUT
10
629.250
20
36.979
0
VERTEX
8
CUT
10
631.125
20
36.775
0
VERTEX
8
CUT
10
633.000
20
36.567
0
VERTEX
8
CUT
10
634.875
20
36.353
0
VERTEX
8
CUT
10
636.400
20
36.173
0
VERTEX
8
CUT
10
635.789
20
31.211
0
VERTEX
8
CUT
10
640.989
20
30.570
0
VERTEX
8
CUT
10
641.600
20
35.533
0
VERTEX
8
CUT
10
642.375
20
35.434
0
VERTEX
8
CUT
10
644.250
20
35.190
0
VERTEX
8
CUT
10
646.125
20
34.940
0
VERTEX
8
CUT
10
648.000
20
34.684
0
VERTEX
8
CUT
10
649.875
20
34.423
0
VERTEX
8
CUT
10
651.750
20
34.157
0
VERTEX
8
CUT
10
653.625
20
33.886
0
VERTEX
8
CUT
10
655.500
20
33.609
0
VERTEX
8
CUT
10
657.375
20
33.328
0
VERTEX
8
CUT
10
659.250
20
33.042
0
VERTEX
8
CUT
10
661.125
20
32.752
0
VERTEX
8
CUT
10
663.000
20
32.457
0
VERTEX
8
CUT
10
664.875
20
32.156
0
VERTEX
8
CUT
10
666.750
20
31.850
0
VERTEX
8
CUT
10
668.625
20
31.538
0
VERTEX
8
CUT
10
670.500
20
31.221
0
VERTEX
8
CUT
10
672.375
20
30.898
0
VERTEX
8
CUT
10
674.250
20
30.570
0
VERTEX
8
CUT
10
676.125
20
30.237
0
VERTEX
8
CUT
10
678.000
20
29.899
0
VERTEX
8
CUT
10
679.875
20
29.557
0
VERTEX
8
CUT
10
681.750
20
29.211
0
VERTEX
8
CUT
10
683.625
20
28.861
0
VERTEX
8
CUT
10
685.500
20
28.507
0
VERTEX
8
CUT
10
687.375
20
28.149
0
VERTEX
8
CUT
10
689.250
20
27.788
0
VERTEX
8
CUT
10
691.125
20
27.424
0
VERTEX
8
CUT
10
693.000
20
27.057
0
VERTEX
8
CUT
10
694.875
20
26.686
0
VERTEX
8
CUT
10
696.750
20
26.311
0
VERTEX
8
CUT
10
698.625
20
25.932
0
VERTEX
8
CUT
10
700.500
20
25.549
0
VERTEX
8
CUT
10
702.375
20
25.162
0
VERTEX
8
CUT
10
702.400
20
25.157
0
VERTEX
8
CUT
10
701.371
20
20.264
0
VERTEX
8
CUT
10
706.571
20
19.170
0
VERTEX
8
CUT
10
707.600
20
24.063
0
VERTEX
8
CUT
10
708.000
20
23.978
0
VERTEX
8
CUT
10
709.875
20
23.576
0
VERTEX
8
CUT
10
711.750
20
23.170
0
VERTEX
8
CUT
10
713.625
20
22.761
0
VERTEX
8
CUT
10
715.500
20
22.349
0
VERTEX
8
CUT
10
717.375
20
21.933
0
VERTEX
8
CUT
10
718.000
20
21.793
0
VERTEX
8
CUT
10
718.000
20
5.007
0
VERTEX
8
CUT
10
717.000
20
5.007
0
VERTEX
8
CUT
10
715.000
20
5.007
0
VERTEX
8
CUT
10
713.000
20
5.007
0
VERTEX
8
CUT
10
711.000
20
5.007
0
VERTEX
8
CUT
10
709.000
20
5.007
0
VERTEX
8
CUT
10
707.600
20
5.007
0
VERTEX
8
CUT
10
707.600
20
10.007
0
VERTEX
8
CUT
10
702.400
20
10.007
0
VERTEX
8
CUT
10
702.400
20
5.007
0
VERTEX
8
CUT
10
701.000
20
5.007
0
VERTEX
8
CUT
10
699.000
20
5.007
0
VERTEX
8
CUT
10
697.000
20
5.007
0
VERTEX
8
CUT
10
695.000
20
5.007
0
VERTEX
8
CUT
10
693.000
20
5.007
0
VERTEX
8
CUT
10
691.000
20
5.007
0
VERTEX
8
CUT
10
689.000
20
5.007
0
VERTEX
8
CUT
10
687.000
20
5.007
0
VERTEX
8
CUT
10
685.000
20
5.007
0
VERTEX
8
CUT
10
683.000
20
5.007
0
VERTEX
8
CUT
10
681.000
20
5.007
0
VERTEX
8
CUT
10
679.000
20
5.007
0
VERTEX
8
CUT
10
677.000
20
5.007
0
VERTEX
8
CUT
10
675.000
20
5.007
0
VERTEX
8
CUT
10
673.000
20
5.007
0
VERTEX
8
CUT
10
671.000
20
5.007
0
VERTEX
8
CUT
10
669.000
20
5.007
0
VERTEX
8
CUT
10
667.000
20
5.007
0
VERTEX
8
CUT
10
665.000
20
5.007
0
VERTEX
8
CUT
10
663.000
20
5.007
0
VERTEX
8
CUT
10
661.000
20
5.007
0
VERTEX
8
CUT
10
659.000
20
5.007
0
VERTEX
8
CUT
10
657.000
20
5.007
0
VERTEX
8
CUT
10
655.000
20
5.007
0
VERTEX
8
CUT
10
653.000
20
5.007
0
VERTEX
8
CUT
10
651.000
20
5.007
0
VERTEX
8
CUT
10
649.000
20
5.007
0
VERTEX
8
CUT
10
647.000
20
5.007
0
VERTEX
8
CUT
10
645.000
20
5.007
0
VERTEX
8
CUT
10
643.000
20
5.007
0
VERTEX
8
CUT
10
641.600
20
5.007
0
VERTEX
8
CUT
10
641.600
20
10.007
0
VERTEX
8
CUT
10
636.400
20
10.007
0
VERTEX
8
CUT
10
636.400
20
5.007
0
VERTEX
8
CUT
10
635.000
20
5.007
0
VERTEX
8
CUT
10
633.000
20
5.007
0
VERTEX
8
CUT
10
631.000
20
5.007
0
VERTEX
8
CUT
10
629.000
20
5.007
0
VERTEX
8
CUT
10
627.000
20
5.007
0
VERTEX
8
CUT
10
625.000
20
5.007
0
VERTEX
8
CUT
10
623.000
20
5.007
0
VERTEX
8
CUT
10
621.000
20
5.007
0
VERTEX
8
CUT
10
619.000
20
5.007
0
VERTEX
8
CUT
10
617.000
20
5.007
0
VERTEX
8
CUT
10
615.000
20
5.007
0
VERTEX
8
CUT
10
613.000
20
5.007
0
VERTEX
8
CUT
10
611.000
20
5.007
0
VERTEX
8
CUT
10
609.000
20
5.007
0
VERTEX
8
CUT
10
607.000
20
5.007
0
VERTEX
8
CUT
10
605.000
20
5.007
0
VERTEX
8
CUT
10
603.000
20
5.007
0
VERTEX
8
CUT
10
601.000
20
5.006
0
VERTEX
8
CUT
10
599.000
20
5.006
0
VERTEX
8
CUT
10
597.000
20
5.005
0
VERTEX
8
CUT
10
595.000
20
5.004
0
VERTEX
8
CUT
10
593.000
20
5.003
0
VERTEX
8
CUT
10
591.000
20
5.002
0
VERTEX
8
CUT
10
589.000
20
5.001
0
VERTEX
8
CUT
10
587.000
20
5.001
0
VERTEX
8
CUT
10
585.000
20
5.000
0
VERTEX
8
CUT
10
583.000
20
5.000
0
VERTEX
8
CUT
10
581.000
20
5.000
0
VERTEX
8
CUT
10
579.000
20
5.001
0
VERTEX
8
CUT
10
577.000
20
5.002
0
VERTEX
8
CUT
10
575.600
20
5.003
0
VERTEX
8
CUT
10
575.607
20
10.003
0
VERTEX
8
CUT
10
570.407
20
10.010
0
VERTEX
8
CUT
10
570.400
20
5.010
0
VERTEX
8
CUT
10
569.147
20
5.012
0
VERTEX
8
CUT
10
567.161
20
5.014
0
VERTEX
8
CUT
10
565.148
20
5.017
0
VERTEX
8
CUT
10
563.121
20
5.019
0
VERTEX
8
CUT
10
561.091
20
5.022
0
VERTEX
8
CUT
10
559.068
20
5.025
0
VERTEX
8
CUT
10
557.062
20
5.029
0
VERTEX
8
CUT
10
555.087
20
5.034
0
VERTEX
8
CUT
10
553.151
20
5.039
0
VERTEX
8
CUT
10
551.267
20
5.046
0
VERTEX
8
CUT
10
549.445
20
5.053
0
VERTEX
8
CUT
10
547.697
20
5.062
0
VERTEX
8
CUT
10
546.032
20
5.072
0
VERTEX
8
CUT
10
544.463
20
5.083
0
VERTEX
8
CUT
10
543.000
20
5.097
0
VERTEX
8
CUT
10
540.407
20
5.126
0
VERTEX
8
CUT
10
538.195
20
5.157
0
VERTEX
8
CUT
10
536.276
20
5.192
0
VERTEX
8
CUT
10
534.562
20
5.232
0
VERTEX
8
CUT
10
532.966
20
5.277
0
VERTEX
8
CUT
10
531.398
20
5.329
0
VERTEX
8
CUT
10
529.772
20
5.388
0
VERTEX
8
CUT
10
528.000
20
5.457
0
VERTEX
8
CUT
10
526.074
20
5.538
0
VERTEX
8
CUT
10
524.074
20
5.632
0
VERTEX
8
CUT
10
522.045
20
5.735
0
VERTEX
8
CUT
10
520.031
20
5.845
0
VERTEX
8
CUT
10
518.076
20
5.956
0
VERTEX
8
CUT
10
516.223
20
6.066
0
VERTEX
8
CUT
10
514.516
20
6.171
0
VERTEX
8
CUT
10
513.000
20
6.267
0
VERTEX
8
CUT
10
510.598
20
6.430
0
VERTEX
8
CUT
10
508.781
20
6.576
0
VERTEX
8
CUT
10
507.199
20
6.724
0
VERTEX
8
CUT
10
505.500
20
6.897
0
VERTEX
8
CUT
10
503.625
20
7.086
0
VERTEX
8
CUT
10
501.750
20
7.285
0
VERTEX
8
CUT
10
499.875
20
7.515
0
VERTEX
8
CUT
10
498.000
20
7.797
0
VERTEX
8
CUT
10
496.037
20
8.157
0
VERTEX
8
CUT
10
494.016
20
8.577
0
VERTEX
8
CUT
10
492.111
20
9.012
0
VERTEX
8
CUT
10
490.500
20
9.417
0
VERTEX
8
CUT
10
488.391
20
9.914
0
VERTEX
8
CUT
10
486.750
20
10.797
0
VERTEX
8
CUT
10
485.725
20
11.850
0
VERTEX
8
CUT
10
484.641
20
13.238
0
VERTEX
8
CUT
10
483.674
20
14.582
0
SEQEND
0
TEXT
8
POPIS
10
489.000
20
8.000
40
5.000
1
zebro-kratke-235
0
POLYLINE
8
CUT
66
1
70
1
0
VERTEX
8
CUT
10
722.000
20
15.507
0
VERTEX
8
CUT
10
722.674
20
16.621
0
VERTEX
8
CUT
10
723.641
20
18.235
0
VERTEX
8
CUT
10
724.725
20
19.947
0
VERTEX
8
CUT
10
725.750
20
21.357
0
VERTEX
8
CUT
10
726.861
20
22.568
0
VERTEX
8
CUT
10
727.972
20
23.479
0
VERTEX
8
CUT
10
729.500
20
24.507
0
VERTEX
8
CUT
10
730.760
20
25.301
0
VERTEX
8
CUT
10
732.230
20
26.176
0
VERTEX
8
CUT
10
733.820
20
27.073
0
VERTEX
8
CUT
10
735.440
20
27.936
0
VERTEX
8
CUT
10
737.000
20
28.707
0
VERTEX
8
CUT
10
738.500
20
29.373
0
VERTEX
8
CUT
10
740.000
20
29.973
0
VERTEX
8
CUT
10
741.500
20
30.525
0
VERTEX
8
CUT
10
743.000
20
31.047
0
VERTEX
8
CUT
10
743.400
20
31.183
0
VERTEX
8
CUT
10
744.995
20
26.444
0
VERTEX
8
CUT
10
750.195
20
28.158
0
VERTEX
8
CUT
10
748.600
20
32.897
0
VERTEX
8
CUT
10
749.598
20
33.189
0
VERTEX
8
CUT
10
752.000
20
33.807
0
VERTEX
8
CUT
10
753.516
20
34.172
0
VERTEX
8
CUT
10
755.223
20
34.575
0
VERTEX
8
CUT
10
757.076
20
35.002
0
VERTEX
8
CUT
10
759.031
20
35.440
0
VERTEX
8
CUT
10
761.045
20
35.876
0
VERTEX
8
CUT
10
763.074
20
36.298
0
VERTEX
8
CUT
10
765.074
20
36.692
0
VERTEX
8
CUT
10
767.000
20
37.047
0
VERTEX
8
CUT
10
768.772
20
37.366
0
VERTEX
8
CUT
10
770.398
20
37.665
0
VERTEX
8
CUT
10
771.966
20
37.944
0
VERTEX
8
CUT
10
773.562
20
38.205
0
VERTEX
8
CUT
10
775.276
20
38.449
0
VERTEX
8
CUT
10
777.195
20
38.677
0
VERTEX
8
CUT
10
779.407
20
38.889
0
VERTEX
8
CUT
10
782.000
20
39.087
0
VERTEX
8
CUT
10
783.463
20
39.182
0
VERTEX
8
CUT
10
785.032
20
39.276
0
VERTEX
8
CUT
10
786.697
20
39.368
0
VERTEX
8
CUT
10
788.445
20
39.458
0
VERTEX
8
CUT
10
790.267
20
39.545
0
VERTEX
8
CUT
10
792.151
20
39.628
0
VERTEX
8
CUT
10
794.087
20
39.707
0
VERTEX
8
CUT
10
796.062
20
39.780
0
VERTEX
8
CUT
10
798.068
20
39.848
0
VERTEX
8
CUT
10
800.091
20
39.910
0
VERTEX
8
CUT
10
802.121
20
39.964
0
VERTEX
8
CUT
10
804.148
20
40.011
0
VERTEX
8
CUT
10
806.161
20
40.049
0
VERTEX
8
CUT
10
808.147
20
40.078
0
VERTEX
8
CUT
10
809.400
20
40.091
0
VERTEX
8
CUT
10
809.412
20
35.091
0
VERTEX
8
CUT
10
814.612
20
35.103
0
VERTEX
8
CUT
10
814.600
20
40.103
0
VERTEX
8
CUT
10
815.750
20
40.098
0
VERTEX
8
CUT
10
817.625
20
40.082
0
VERTEX
8
CUT
10
819.500
20
40.057
0
VERTEX
8
CUT
10
821.375
20
40.026
0
VERTEX
8
CUT
10
823.250
20
39.986
0
VERTEX
8
CUT
10
825.125
20
39.939
0
VERTEX
8
CUT
10
827.000
20
39.885
0
VERTEX
8
CUT
10
828.875
20
39.824
0
VERTEX
8
CUT
10
830.750
20
39.756
0
VERTEX
8
CUT
10
832.625
20
39.681
0
VERTEX
8
CUT
10
834.500
20
39.599
0
VERTEX
8
CUT
10
836.375
20
39.511
0
VERTEX
8
CUT
10
838.250
20
39.416
0
VERTEX
8
CUT
10
840.125
20
39.314
0
VERTEX
8
CUT
10
842.000
20
39.207
0
VERTEX
8
CUT
10
843.875
20
39.092
0
VERTEX
8
CUT
10
845.750
20
38.970
0
VERTEX
8
CUT
10
847.625
20
38.840
0
VERTEX
8
CUT
10
849.500
20
38.703
0
VERTEX
8
CUT
10
851.375
20
38.560
0
VERTEX
8
CUT
10
853.250
20
38.409
0
VERTEX
8
CUT
10
855.125
20
38.251
0
VERTEX
8
CUT
10
857.000
20
38.087
0
VERTEX
8
CUT
10
858.875
20
37.917
0
VERTEX
8
CUT
10
860.750
20
37.741
0
VERTEX
8
CUT
10
862.625
20
37.559
0
VERTEX
8
CUT
10
864.500
20
37.371
0
VERTEX
8
CUT
10
866.375
20
37.177
0
VERTEX
8
CUT
10
868.250
20
36.979
0
VERTEX
8
CUT
10
870.125
20
36.775
0
VERTEX
8
CUT
10
872.000
20
36.567
0
VERTEX
8
CUT
10
873.875
20
36.353
0
VERTEX
8
CUT
10
875.400
20
36.173
0
VERTEX
8
CUT
10
874.789
20
31.211
0
VERTEX
8
CUT
10
879.989
20
30.570
0
VERTEX
8
CUT
10
880.600
20
35.533
0
VERTEX
8
CUT
10
881.375
20
35.434
0
VERTEX
8
CUT
10
883.250
20
35.190
0
VERTEX
8
CUT
10
885.125
20
34.940
0
VERTEX
8
CUT
10
887.000
20
34.684
0
VERTEX
8
CUT
10
888.875
20
34.423
0
VERTEX
8
CUT
10
890.750
20
34.157
0
VERTEX
8
CUT
10
892.625
20
33.886
0
VERTEX
8
CUT
10
894.500
20
33.609
0
VERTEX
8
CUT
10
896.375
20
33.328
0
VERTEX
8
CUT
10
898.250
20
33.042
0
VERTEX
8
CUT
10
900.125
20
32.752
0
VERTEX
8
CUT
10
902.000
20
32.457
0
VERTEX
8
CUT
10
903.875
20
32.156
0
VERTEX
8
CUT
10
905.750
20
31.850
0
VERTEX
8
CUT
10
907.625
20
31.538
0
VERTEX
8
CUT
10
909.500
20
31.221
0
VERTEX
8
CUT
10
911.375
20
30.898
0
VERTEX
8
CUT
10
913.250
20
30.570
0
VERTEX
8
CUT
10
915.125
20
30.237
0
VERTEX
8
CUT
10
917.000
20
29.899
0
VERTEX
8
CUT
10
918.875
20
29.557
0
VERTEX
8
CUT
10
920.750
20
29.211
0
VERTEX
8
CUT
10
922.625
20
28.861
0
VERTEX
8
CUT
10
924.500
20
28.507
0
VERTEX
8
CUT
10
926.375
20
28.149
0
VERTEX
8
CUT
10
928.250
20
27.788
0
VERTEX
8
CUT
10
930.125
20
27.424
0
VERTEX
8
CUT
10
932.000
20
27.057
0
VERTEX
8
CUT
10
933.875
20
26.686
0
VERTEX
8
CUT
10
935.750
20
26.311
0
VERTEX
8
CUT
10
937.625
20
25.932
0
VERTEX
8
CUT
10
939.500
20
25.549
0
VERTEX
8
CUT
10
941.375
20
25.162
0
VERTEX
8
CUT
10
941.400
20
25.157
0
VERTEX
8
CUT
10
940.371
20
20.264
0
VERTEX
8
CUT
10
945.571
20
19.170
0
VERTEX
8
CUT
10
946.600
20
24.063
0
VERTEX
8
CUT
10
947.000
20
23.978
0
VERTEX
8
CUT
10
948.875
20
23.576
0
VERTEX
8
CUT
10
950.750
20
23.170
0
VERTEX
8
CUT
10
952.625
20
22.761
0
VERTEX
8
CUT
10
954.500
20
22.349
0
VERTEX
8
CUT
10
956.375
20
21.933
0
VERTEX
8
CUT
10
957.000
20
21.793
0
VERTEX
8
CUT
10
957.000
20
5.007
0
VERTEX
8
CUT
10
956.000
20
5.007
0
VERTEX
8
CUT
10
954.000
20
5.007
0
VERTEX
8
CUT
10
952.000
20
5.007
0
VERTEX
8
CUT
10
950.000
20
5.007
0
VERTEX
8
CUT
10
948.000
20
5.007
0
VERTEX
8
CUT
10
946.600
20
5.007
0
VERTEX
8
CUT
10
946.600
20
10.007
0
VERTEX
8
CUT
10
941.400
20
10.007
0
VERTEX
8
CUT
10
941.400
20
5.007
0
VERTEX
8
CUT
10
940.000
20
5.007
0
VERTEX
8
CUT
10
938.000
20
5.007
0
VERTEX
8
CUT
10
936.000
20
5.007
0
VERTEX
8
CUT
10
934.000
20
5.007
0
VERTEX
8
CUT
10
932.000
20
5.007
0
VERTEX
8
CUT
10
930.000
20
5.007
0
VERTEX
8
CUT
10
928.000
20
5.007
0
VERTEX
8
CUT
10
926.000
20
5.007
0
VERTEX
8
CUT
10
924.000
20
5.007
0
VERTEX
8
CUT
10
922.000
20
5.007
0
VERTEX
8
CUT
10
920.000
20
5.007
0
VERTEX
8
CUT
10
918.000
20
5.007
0
VERTEX
8
CUT
10
916.000
20
5.007
0
VERTEX
8
CUT
10
914.000
20
5.007
0
VERTEX
8
CUT
10
912.000
20
5.007
0
VERTEX
8
CUT
10
910.000
20
5.007
0
VERTEX
8
CUT
10
908.000
20
5.007
0
VERTEX
8
CUT
10
906.000
20
5.007
0
VERTEX
8
CUT
10
904.000
20
5.007
0
VERTEX
8
CUT
10
902.000
20
5.007
0
VERTEX
8
CUT
10
900.000
20
5.007
0
VERTEX
8
CUT
10
898.000
20
5.007
0
VERTEX
8
CUT
10
896.000
20
5.007
0
VERTEX
8
CUT
10
894.000
20
5.007
0
VERTEX
8
CUT
10
892.000
20
5.007
0
VERTEX
8
CUT
10
890.000
20
5.007
0
VERTEX
8
CUT
10
888.000
20
5.007
0
VERTEX
8
CUT
10
886.000
20
5.007
0
VERTEX
8
CUT
10
884.000
20
5.007
0
VERTEX
8
CUT
10
882.000
20
5.007
0
VERTEX
8
CUT
10
880.600
20
5.007
0
VERTEX
8
CUT
10
880.600
20
10.007
0
VERTEX
8
CUT
10
875.400
20
10.007
0
VERTEX
8
CUT
10
875.400
20
5.007
0
VERTEX
8
CUT
10
874.000
20
5.007
0
VERTEX
8
CUT
10
872.000
20
5.007
0
VERTEX
8
CUT
10
870.000
20
5.007
0
VERTEX
8
CUT
10
868.000
20
5.007
0
VERTEX
8
CUT
10
866.000
20
5.007
0
VERTEX
8
CUT
10
864.000
20
5.007
0
VERTEX
8
CUT
10
862.000
20
5.007
0
VERTEX
8
CUT
10
860.000
20
5.007
0
VERTEX
8
CUT
10
858.000
20
5.007
0
VERTEX
8
CUT
10
856.000
20
5.007
0
VERTEX
8
CUT
10
854.000
20
5.007
0
VERTEX
8
CUT
10
852.000
20
5.007
0
VERTEX
8
CUT
10
850.000
20
5.007
0
VERTEX
8
CUT
10
848.000
20
5.007
0
VERTEX
8
CUT
10
846.000
20
5.007
0
VERTEX
8
CUT
10
844.000
20
5.007
0
VERTEX
8
CUT
10
842.000
20
5.007
0
VERTEX
8
CUT
10
840.000
20
5.006
0
VERTEX
8
CUT
10
838.000
20
5.006
0
VERTEX
8
CUT
10
836.000
20
5.005
0
VERTEX
8
CUT
10
834.000
20
5.004
0
VERTEX
8
CUT
10
832.000
20
5.003
0
VERTEX
8
CUT
10
830.000
20
5.002
0
VERTEX
8
CUT
10
828.000
20
5.001
0
VERTEX
8
CUT
10
826.000
20
5.001
0
VERTEX
8
CUT
10
824.000
20
5.000
0
VERTEX
8
CUT
10
822.000
20
5.000
0
VERTEX
8
CUT
10
820.000
20
5.000
0
VERTEX
8
CUT
10
818.000
20
5.001
0
VERTEX
8
CUT
10
816.000
20
5.002
0
VERTEX
8
CUT
10
814.600
20
5.003
0
VERTEX
8
CUT
10
814.607
20
10.003
0
VERTEX
8
CUT
10
809.407
20
10.010
0
VERTEX
8
CUT
10
809.400
20
5.010
0
VERTEX
8
CUT
10
808.147
20
5.012
0
VERTEX
8
CUT
10
806.161
20
5.014
0
VERTEX
8
CUT
10
804.148
20
5.017
0
VERTEX
8
CUT
10
802.121
20
5.019
0
VERTEX
8
CUT
10
800.091
20
5.022
0
VERTEX
8
CUT
10
798.068
20
5.025
0
VERTEX
8
CUT
10
796.062
20
5.029
0
VERTEX
8
CUT
10
794.087
20
5.034
0
VERTEX
8
CUT
10
792.151
20
5.039
0
VERTEX
8
CUT
10
790.267
20
5.046
0
VERTEX
8
CUT
10
788.445
20
5.053
0
VERTEX
8
CUT
10
786.697
20
5.062
0
VERTEX
8
CUT
10
785.032
20
5.072
0
VERTEX
8
CUT
10
783.463
20
5.083
0
VERTEX
8
CUT
10
782.000
20
5.097
0
VERTEX
8
CUT
10
779.407
20
5.126
0
VERTEX
8
CUT
10
777.195
20
5.157
0
VERTEX
8
CUT
10
775.276
20
5.192
0
VERTEX
8
CUT
10
773.562
20
5.232
0
VERTEX
8
CUT
10
771.966
20
5.277
0
VERTEX
8
CUT
10
770.398
20
5.329
0
VERTEX
8
CUT
10
768.772
20
5.388
0
VERTEX
8
CUT
10
767.000
20
5.457
0
VERTEX
8
CUT
10
765.074
20
5.538
0
VERTEX
8
CUT
10
763.074
20
5.632
0
VERTEX
8
CUT
10
761.045
20
5.735
0
VERTEX
8
CUT
10
759.031
20
5.845
0
VERTEX
8
CUT
10
757.076
20
5.956
0
VERTEX
8
CUT
10
755.223
20
6.066
0
VERTEX
8
CUT
10
753.516
20
6.171
0
VERTEX
8
CUT
10
752.000
20
6.267
0
VERTEX
8
CUT
10
749.598
20
6.430
0
VERTEX
8
CUT
10
747.781
20
6.576
0
VERTEX
8
CUT
10
746.199
20
6.724
0
VERTEX
8
CUT
10
744.500
20
6.897
0
VERTEX
8
CUT
10
742.625
20
7.086
0
VERTEX
8
CUT
10
740.750
20
7.285
0
VERTEX
8
CUT
10
738.875
20
7.515
0
VERTEX
8
CUT
10
737.000
20
7.797
0
VERTEX
8
CUT
10
735.037
20
8.157
0
VERTEX
8
CUT
10
733.016
20
8.577
0
VERTEX
8
CUT
10
731.111
20
9.012
0
VERTEX
8
CUT
10
729.500
20
9.417
0
VERTEX
8
CUT
10
727.391
20
9.914
0
VERTEX
8
CUT
10
725.750
20
10.797
0
VERTEX
8
CUT
10
724.725
20
11.850
0
VERTEX
8
CUT
10
723.641
20
13.238
0
VERTEX
8
CUT
10
722.674
20
14.582
0
SEQEND
0
TEXT
8
POPIS
10
728.000
20
8.000
40
5.000
1
zebro-kratke-235
0
POLYLINE
8
CUT
66
1
70
1
0
VERTEX
8
CUT
10
5.000
20
54.610
0
VERTEX
8
CUT
10
5.674
20
55.724
0
VERTEX
8
CUT
10
6.641
20
57.338
0
VERTEX
8
CUT
10
7.725
20
59.050
0
VERTEX
8
CUT
10
8.750
20
60.460
0
VERTEX
8
CUT
10
9.861
20
61.671
0
VERTEX
8
CUT
10
10.972
20
62.582
0
VERTEX
8
CUT
10
12.500
20
63.610
0
VERTEX
8
CUT
10
13.760
20
64.404
0
VERTEX
8
CUT
10
15.230
20
65.279
0
VERTEX
8
CUT
10
16.820
20
66.177
0
VERTEX
8
CUT
10
18.440
20
67.039
0
VERTEX
8
CUT
10
20.000
20
67.810
0
VERTEX
8
CUT
10
21.500
20
68.476
0
VERTEX
8
CUT
10
23.000
20
69.076
0
VERTEX
8
CUT
10
24.500
20
69.628
0
VERTEX
8
CUT
10
26.000
20
70.150
0
VERTEX
8
CUT
10
26.400
20
70.286
0
VERTEX
8
CUT
10
27.995
20
65.547
0
VERTEX
8
CUT
10
33.195
20
67.261
0
VERTEX
8
CUT
10
31.600
20
72.000
0
VERTEX
8
CUT
10
32.598
20
72.292
0
VERTEX
8
CUT
10
35.000
20
72.910
0
VERTEX
8
CUT
10
36.516
20
73.276
0
VERTEX
8
CUT
10
38.223
20
73.678
0
VERTEX
8
CUT
10
40.076
20
74.105
0
VERTEX
8
CUT
10
42.031
20
74.543
0
VERTEX
8
CUT
10
44.045
20
74.979
0
VERTEX
8
CUT
10
46.074
20
75.401
0
VERTEX
8
CUT
10
48.074
20
75.795
0
VERTEX
8
CUT
10
50.000
20
76.150
0
VERTEX
8
CUT
10
51.772
20
76.469
0
VERTEX
8
CUT
10
53.398
20
76.768
0
VERTEX
8
CUT
10
54.966
20
77.047
0
VERTEX
8
CUT
10
56.562
20
77.309
0
VERTEX
8
CUT
10
58.276
20
77.552
0
VERTEX
8
CUT
10
60.195
20
77.780
0
VERTEX
8
CUT
10
62.407
20
77.992
0
VERTEX
8
CUT
10
65.000
20
78.190
0
VERTEX
8
CUT
10
66.463
20
78.285
0
VERTEX
8
CUT
10
68.032
20
78.379
0
VERTEX
8
CUT
10
69.697
20
78.472
0
VERTEX
8
CUT
10
71.445
20
78.561
0
VERTEX
8
CUT
10
73.267
20
78.648
0
VERTEX
8
CUT
10
75.151
20
78.731
0
VERTEX
8
CUT
10
77.087
20
78.810
0
VERTEX
8
CUT
10
79.062
20
78.884
0
VERTEX
8
CUT
10
81.068
20
78.951
0
VERTEX
8
CUT
10
83.091
20
79.013
0
VERTEX
8
CUT
10
85.121
20
79.067
0
VERTEX
8
CUT
10
87.148
20
79.114
0
VERTEX
8
CUT
10
89.161
20
79.152
0
VERTEX
8
CUT
10
91.147
20
79.181
0
VERTEX
8
CUT
10
92.400
20
79.194
0
VERTEX
8
CUT
10
92.412
20
74.194
0
VERTEX
8
CUT
10
97.612
20
74.206
0
VERTEX
8
CUT
10
97.600
20
79.206
0
VERTEX
8
CUT
10
98.750
20
79.201
0
VERTEX
8
CUT
10
100.625
20
79.185
0
VERTEX
8
CUT
10
102.500
20
79.161
0
VERTEX
8
CUT
10
104.375
20
79.129
0
VERTEX
8
CUT
10
106.250
20
79.089
0
VERTEX
8
CUT
10
108.125
20
79.043
0
VERTEX
8
CUT
10
110.000
20
78.989
0
VERTEX
8
CUT
10
111.875
20
78.927
0
VERTEX
8
CUT
10
113.750
20
78.859
0
VERTEX
8
CUT
10
115.625
20
78.784
0
VERTEX
8
CUT
10
117.500
20
78.702
0
VERTEX
8
CUT
10
119.375
20
78.614
0
VERTEX
8
CUT
10
121.250
20
78.519
0
VERTEX
8
CUT
10
123.125
20
78.417
0
VERTEX
8
CUT
10
125.000
20
78.310
0
VERTEX
8
CUT
10
126.875
20
78.195
0
VERTEX
8
CUT
10
128.750
20
78.073
0
VERTEX
8
CUT
10
130.625
20
77.943
0
VERTEX
8
CUT
10
132.500
20
77.807
0
VERTEX
8
CUT
10
134.375
20
77.663
0
VERTEX
8
CUT
10
136.250
20
77.512
0
VERTEX
8
CUT
10
138.125
20
77.354
0
VERTEX
8
CUT
10
140.000
20
77.190
0
VERTEX
8
CUT
10
141.875
20
77.020
0
VERTEX
8
CUT
10
143.750
20
76.844
0
VERTEX
8
CUT
10
145.625
20
76.662
0
VERTEX
8
CUT
10
147.500
20
76.474
0
VERTEX
8
CUT
10
149.375
20
76.281
0
VERTEX
8
CUT
10
151.250
20
76.082
0
VERTEX
8
CUT
10
153.125
20
75.878
0
VERTEX
8
CUT
10
155.000
20
75.670
0
VERTEX
8
CUT
10
156.875
20
75.456
0
VERTEX
8
CUT
10
158.400
20
75.276
0
VERTEX
8
CUT
10
157.789
20
70.314
0
VERTEX
8
CUT
10
162.989
20
69.673
0
VERTEX
8
CUT
10
163.600
20
74.636
0
VERTEX
8
CUT
10
164.375
20
74.537
0
VERTEX
8
CUT
10
166.250
20
74.293
0
VERTEX
8
CUT
10
168.125
20
74.043
0
VERTEX
8
CUT
10
170.000
20
73.787
0
VERTEX
8
CUT
10
171.875
20
73.526
0
VERTEX
8
CUT
10
173.750
20
73.260
0
VERTEX
8
CUT
10
175.625
20
72.989
0
VERTEX
8
CUT
10
177.500
20
72.712
0
VERTEX
8
CUT
10
179.375
20
72.431
0
VERTEX
8
CUT
10
181.250
20
72.145
0
VERTEX
8
CUT
10
183.125
20
71.855
0
VERTEX
8
CUT
10
185.000
20
71.560
0
VERTEX
8
CUT
10
186.875
20
71.259
0
VERTEX
8
CUT
10
188.750
20
70.953
0
VERTEX
8
CUT
10
190.625
20
70.641
0
VERTEX
8
CUT
10
192.500
20
70.324
0
VERTEX
8
CUT
10
194.375
20
70.001
0
VERTEX
8
CUT
10
196.250
20
69.673
0
VERTEX
8
CUT
10
198.125
20
69.340
0
VERTEX
8
CUT
10
200.000
20
69.002
0
VERTEX
8
CUT
10
201.875
20
68.660
0
VERTEX
8
CUT
10
203.750
20
68.314
0
VERTEX
8
CUT
10
205.625
20
67.964
0
VERTEX
8
CUT
10
207.500
20
67.610
0
VERTEX
8
CUT
10
209.375
20
67.252
0
VERTEX
8
CUT
10
211.250
20
66.891
0
VERTEX
8
CUT
10
213.125
20
66.527
0
VERTEX
8
CUT
10
215.000
20
66.160
0
VERTEX
8
CUT
10
216.875
20
65.789
0
VERTEX
8
CUT
10
218.750
20
65.414
0
VERTEX
8
CUT
10
220.625
20
65.035
0
VERTEX
8
CUT
10
222.500
20
64.652
0
VERTEX
8
CUT
10
224.375
20
64.265
0
VERTEX
8
CUT
10
224.400
20
64.260
0
VERTEX
8
CUT
10
223.371
20
59.367
0
VERTEX
8
CUT
10
228.571
20
58.273
0
VERTEX
8
CUT
10
229.600
20
63.166
0
VERTEX
8
CUT
10
230.000
20
63.081
0
VERTEX
8
CUT
10
231.875
20
62.679
0
VERTEX
8
CUT
10
233.750
20
62.273
0
VERTEX
8
CUT
10
235.625
20
61.864
0
VERTEX
8
CUT
10
237.500
20
61.452
0
VERTEX
8
CUT
10
239.375
20
61.036
0
VERTEX
8
CUT
10
240.000
20
60.896
0
VERTEX
8
CUT
10
240.000
20
44.110
0
VERTEX
8
CUT
10
239.000
20
44.110
0
VERTEX
8
CUT
10
237.000
20
44.110
0
VERTEX
8
CUT
10
235.000
20
44.110
0
VERTEX
8
CUT
10
233.000
20
44.110
0
VERTEX
8
CUT
10
231.000
20
44.110
0
VERTEX
8
CUT
10
229.600
20
44.110
0
VERTEX
8
CUT
10
229.600
20
49.110
0
VERTEX
8
CUT
10
224.400
20
49.110
0
VERTEX
8
CUT
10
224.400
20
44.110
0
VERTEX
8
CUT
10
223.000
20
44.110
0
VERTEX
8
CUT
10
221.000
20
44.110
0
VERTEX
8
CUT
10
219.000
20
44.110
0
VERTEX
8
CUT
10
217.000
20
44.110
0
VERTEX
8
CUT
10
215.000
20
44.110
0
VERTEX
8
CUT
10
213.000
20
44.110
0
VERTEX
8
CUT
10
211.000
20
44.110
0
VERTEX
8
CUT
10
209.000
20
44.110
0
VERTEX
8
CUT
10
207.000
20
44.110
0
VERTEX
8
CUT
10
205.000
20
44.110
0
VERTEX
8
CUT
10
203.000
20
44.110
0
VERTEX
8
CUT
10
201.000
20
44.110
0
VERTEX
8
CUT
10
199.000
20
44.110
0
VERTEX
8
CUT
10
197.000
20
44.110
0
VERTEX
8
CUT
10
195.000
20
44.110
0
VERTEX
8
CUT
10
193.000
20
44.110
0
VERTEX
8
CUT
10
191.000
20
44.110
0
VERTEX
8
CUT
10
189.000
20
44.110
0
VERTEX
8
CUT
10
187.000
20
44.110
0
VERTEX
8
CUT
10
185.000
20
44.110
0
VERTEX
8
CUT
10
183.000
20
44.110
0
VERTEX
8
CUT
10
181.000
20
44.110
0
VERTEX
8
CUT
10
179.000
20
44.110
0
VERTEX
8
CUT
10
177.000
20
44.110
0
VERTEX
8
CUT
10
175.000
20
44.110
0
VERTEX
8
CUT
10
173.000
20
44.110
0
VERTEX
8
CUT
10
171.000
20
44.110
0
VERTEX
8
CUT
10
169.000
20
44.110
0
VERTEX
8
CUT
10
167.000
20
44.110
0
VERTEX
8
CUT
10
165.000
20
44.110
0
VERTEX
8
CUT
10
163.600
20
44.110
0
VERTEX
8
CUT
10
163.600
20
49.110
0
VERTEX
8
CUT
10
158.400
20
49.110
0
VERTEX
8
CUT
10
158.400
20
44.110
0
VERTEX
8
CUT
10
157.000
20
44.110
0
VERTEX
8
CUT
10
155.000
20
44.110
0
VERTEX
8
CUT
10
153.000
20
44.110
0
VERTEX
8
CUT
10
151.000
20
44.110
0
VERTEX
8
CUT
10
149.000
20
44.110
0
VERTEX
8
CUT
10
147.000
20
44.110
0
VERTEX
8
CUT
10
145.000
20
44.110
0
VERTEX
8
CUT
10
143.000
20
44.110
0
VERTEX
8
CUT
10
141.000
20
44.110
0
VERTEX
8
CUT
10
139.000
20
44.110
0
VERTEX
8
CUT
10
137.000
20
44.110
0
VERTEX
8
CUT
10
135.000
20
44.110
0
VERTEX
8
CUT
10
133.000
20
44.110
0
VERTEX
8
CUT
10
131.000
20
44.110
0
VERTEX
8
CUT
10
129.000
20
44.110
0
VERTEX
8
CUT
10
127.000
20
44.110
0
VERTEX
8
CUT
10
125.000
20
44.110
0
VERTEX
8
CUT
10
123.000
20
44.110
0
VERTEX
8
CUT
10
121.000
20
44.109
0
VERTEX
8
CUT
10
119.000
20
44.108
0
VERTEX
8
CUT
10
117.000
20
44.107
0
VERTEX
8
CUT
10
115.000
20
44.106
0
VERTEX
8
CUT
10
113.000
20
44.105
0
VERTEX
8
CUT
10
111.000
20
44.105
0
VERTEX
8
CUT
10
109.000
20
44.104
0
VERTEX
8
CUT
10
107.000
20
44.103
0
VERTEX
8
CUT
10
105.000
20
44.103
0
VERTEX
8
CUT
10
103.000
20
44.103
0
VERTEX
8
CUT
10
101.000
20
44.104
0
VERTEX
8
CUT
10
99.000
20
44.105
0
VERTEX
8
CUT
10
97.600
20
44.107
0
VERTEX
8
CUT
10
97.607
20
49.107
0
VERTEX
8
CUT
10
92.407
20
49.113
0
VERTEX
8
CUT
10
92.400
20
44.113
0
VERTEX
8
CUT
10
91.147
20
44.115
0
VERTEX
8
CUT
10
89.161
20
44.117
0
VERTEX
8
CUT
10
87.148
20
44.120
0
VERTEX
8
CUT
10
85.121
20
44.122
0
VERTEX
8
CUT
10
83.091
20
44.125
0
VERTEX
8
CUT
10
81.068
20
44.128
0
VERTEX
8
CUT
10
79.062
20
44.132
0
VERTEX
8
CUT
10
77.087
20
44.137
0
VERTEX
8
CUT
10
75.151
20
44.142
0
VERTEX
8
CUT
10
73.267
20
44.149
0
VERTEX
8
CUT
10
71.445
20
44.156
0
VERTEX
8
CUT
10
69.697
20
44.165
0
VERTEX
8
CUT
10
68.032
20
44.175
0
VERTEX
8
CUT
10
66.463
20
44.187
0
VERTEX
8
CUT
10
65.000
20
44.200
0
VERTEX
8
CUT
10
62.407
20
44.229
0
VERTEX
8
CUT
10
60.195
20
44.260
0
VERTEX
8
CUT
10
58.276
20
44.295
0
VERTEX
8
CUT
10
56.562
20
44.335
0
VERTEX
8
CUT
10
54.966
20
44.380
0
VERTEX
8
CUT
10
53.398
20
44.432
0
VERTEX
8
CUT
10
51.772
20
44.491
0
VERTEX
8
CUT
10
50.000
20
44.560
0
VERTEX
8
CUT
10
48.074
20
44.641
0
VERTEX
8
CUT
10
46.074
20
44.735
0
VERTEX
8
CUT
10
44.045
20
44.838
0
VERTEX
8
CUT
10
42.031
20
44.948
0
VERTEX
8
CUT
10
40.076
20
45.059
0
VERTEX
8
CUT
10
38.223
20
45.169
0
VERTEX
8
CUT
10
36.516
20
45.274
0
VERTEX
8
CUT
10
35.000
20
45.370
0
VERTEX
8
CUT
10
32.598
20
45.534
0
VERTEX
8
CUT
10
30.781
20
45.679
0
VERTEX
8
CUT
10
29.199
20
45.827
0
VERTEX
8
CUT
10
27.500
20
46.000
0
VERTEX
8
CUT
10
25.625
20
46.189
0
VERTEX
8
CUT
10
23.750
20
46.388
0
VERTEX
8
CUT
10
21.875
20
46.618
0
VERTEX
8
CUT
10
20.000
20
46.900
0
VERTEX
8
CUT
10
18.037
20
47.260
0
VERTEX
8
CUT
10
16.016
20
47.680
0
VERTEX
8
CUT
10
14.111
20
48.115
0
VERTEX
8
CUT
10
12.500
20
48.520
0
VERTEX
8
CUT
10
10.391
20
49.017
0
VERTEX
8
CUT
10
8.750
20
49.900
0
VERTEX
8
CUT
10
7.725
20
50.954
0
VERTEX
8
CUT
10
6.641
20
52.341
0
VERTEX
8
CUT
10
5.674
20
53.685
0
SEQEND
0
TEXT
8
POPIS
10
11.000
20
47.103
40
5.000
1
zebro-kratke-235
0
POLYLINE
8
CUT
66
1
70
1
0
VERTEX
8
CUT
10
244.000
20
54.610
0
VERTEX
8
CUT
10
244.674
20
55.724
0
VERTEX
8
CUT
10
245.641
20
57.338
0
VERTEX
8
CUT
10
246.725
20
59.050
0
VERTEX
8
CUT
10
247.750
20
60.460
0
VERTEX
8
CUT
10
248.861
20
61.671
0
VERTEX
8
CUT
10
249.972
20
62.582
0
VERTEX
8
CUT
10
251.500
20
63.610
0
VERTEX
8
CUT
10
252.760
20
64.404
0
VERTEX
8
CUT
10
254.230
20
65.279
0
VERTEX
8
CUT
10
255.820
20
66.177
0
VERTEX
8
CUT
10
257.440
20
67.039
0
VERTEX
8
CUT
10
259.000
20
67.810
0
VERTEX
8
CUT
10
260.500
20
68.476
0
VERTEX
8
CUT
10
262.000
20
69.076
0
VERTEX
8
CUT
10
263.500
20
69.628
0
VERTEX
8
CUT
10
265.000
20
70.150
0
VERTEX
8
CUT
10
265.400
20
70.286
0
VERTEX
8
CUT
10
266.995
20
65.547
0
VERTEX
8
CUT
10
272.195
20
67.261
0
VERTEX
8
CUT
10
270.600
20
72.000
0
VERTEX
8
CUT
10
271.598
20
72.292
0
VERTEX
8
CUT
10
274.000
20
72.910
0
VERTEX
8
CUT
10
275.516
20
73.276
0
VERTEX
8
CUT
10
277.223
20
73.678
0
VERTEX
8
CUT
10
279.076
20
74.105
0
VERTEX
8
CUT
10
281.031
20
74.543
0
VERTEX
8
CUT
10
283.045
20
74.979
0
VERTEX
8
CUT
10
285.074
20
75.401
0
VERTEX
8
CUT
10
287.074
20
75.795
0
VERTEX
8
CUT
10
289.000
20
76.150
0
VERTEX
8
CUT
10
290.772
20
76.469
0
VERTEX
8
CUT
10
292.398
20
76.768
0
VERTEX
8
CUT
10
293.966
20
77.047
0
VERTEX
8
CUT
10
295.562
20
77.309
0
VERTEX
8
CUT
10
297.276
20
77.552
0
VERTEX
8
CUT
10
299.195
20
77.780
0
VERTEX
8
CUT
10
301.407
20
77.992
0
VERTEX
8
CUT
10
304.000
20
78.190
0
VERTEX
8
CUT
10
305.463
20
78.285
0
VERTEX
8
CUT
10
307.032
20
78.379
0
VERTEX
8
CUT
10
308.697
20
78.472
0
VERTEX
8
CUT
10
310.445
20
78.561
0
VERTEX
8
CUT
10
312.267
20
78.648
0
VERTEX
8
CUT
10
314.151
20
78.731
0
VERTEX
8
CUT
10
316.087
20
78.810
0
VERTEX
8
CUT
10
318.062
20
78.884
0
VERTEX
8
CUT
10
320.068
20
78.951
0
VERTEX
8
CUT
10
322.091
20
79.013
0
VERTEX
8
CUT
10
324.121
20
79.067
0
VERTEX
8
CUT
10
326.148
20
79.114
0
VERTEX
8
CUT
10
328.161
20
79.152
0
VERTEX
8
CUT
10
330.147
20
79.181
0
VERTEX
8
CUT
10
331.400
20
79.194
0
VERTEX
8
CUT
10
331.412
20
74.194
0
VERTEX
8
CUT
10
336.612
20
74.206
0
VERTEX
8
CUT
10
336.600
20
79.206
0
VERTEX
8
CUT
10
337.750
20
79.201
0
VERTEX
8
CUT
10
339.625
20
79.185
0
VERTEX
8
CUT
10
341.500
20
79.161
0
VERTEX
8
CUT
10
343.375
20
79.129
0
VERTEX
8
CUT
10
345.250
20
79.089
0
VERTEX
8
CUT
10
347.125
20
79.043
0
VERTEX
8
CUT
10
349.000
20
78.989
0
VERTEX
8
CUT
10
350.875
20
78.927
0
VERTEX
8
CUT
10
352.750
20
78.859
0
VERTEX
8
CUT
10
354.625
20
78.784
0
VERTEX
8
CUT
10
356.500
20
78.702
0
VERTEX
8
CUT
10
358.375
20
78.614
0
VERTEX
8
CUT
10
360.250
20
78.519
0
VERTEX
8
CUT
10
362.125
20
78.417
0
VERTEX
8
CUT
10
364.000
20
78.310
0
VERTEX
8
CUT
10
365.875
20
78.195
0
VERTEX
8
CUT
10
367.750
20
78.073
0
VERTEX
8
CUT
10
369.625
20
77.943
0
VERTEX
8
CUT
10
371.500
20
77.807
0
VERTEX
8
CUT
10
373.375
20
77.663
0
VERTEX
8
CUT
10
375.250
20
77.512
0
VERTEX
8
CUT
10
377.125
20
77.354
0
VERTEX
8
CUT
10
379.000
20
77.190
0
VERTEX
8
CUT
10
380.875
20
77.020
0
VERTEX
8
CUT
10
382.750
20
76.844
0
VERTEX
8
CUT
10
384.625
20
76.662
0
VERTEX
8
CUT
10
386.500
20
76.474
0
VERTEX
8
CUT
10
388.375
20
76.281
0
VERTEX
8
CUT
10
390.250
20
76.082
0
VERTEX
8
CUT
10
392.125
20
75.878
0
VERTEX
8
CUT
10
394.000
20
75.670
0
VERTEX
8
CUT
10
395.875
20
75.456
0
VERTEX
8
CUT
10
397.400
20
75.276
0
VERTEX
8
CUT
10
396.789
20
70.314
0
VERTEX
8
CUT
10
401.989
20
69.673
0
VERTEX
8
CUT
10
402.600
20
74.636
0
VERTEX
8
CUT
10
403.375
20
74.537
0
VERTEX
8
CUT
10
405.250
20
74.293
0
VERTEX
8
CUT
10
407.125
20
74.043
0
VERTEX
8
CUT
10
409.000
20
73.787
0
VERTEX
8
CUT
10
410.875
20
73.526
0
VERTEX
8
CUT
10
412.750
20
73.260
0
VERTEX
8
CUT
10
414.625
20
72.989
0
VERTEX
8
CUT
10
416.500
20
72.712
0
VERTEX
8
CUT
10
418.375
20
72.431
0
VERTEX
8
CUT
10
420.250
20
72.145
0
VERTEX
8
CUT
10
422.125
20
71.855
0
VERTEX
8
CUT
10
424.000
20
71.560
0
VERTEX
8
CUT
10
425.875
20
71.259
0
VERTEX
8
CUT
10
427.750
20
70.953
0
VERTEX
8
CUT
10
429.625
20
70.641
0
VERTEX
8
CUT
10
431.500
20
70.324
0
VERTEX
8
CUT
10
433.375
20
70.001
0
VERTEX
8
CUT
10
435.250
20
69.673
0
VERTEX
8
CUT
10
437.125
20
69.340
0
VERTEX
8
CUT
10
439.000
20
69.002
0
VERTEX
8
CUT
10
440.875
20
68.660
0
VERTEX
8
CUT
10
442.750
20
68.314
0
VERTEX
8
CUT
10
444.625
20
67.964
0
VERTEX
8
CUT
10
446.500
20
67.610
0
VERTEX
8
CUT
10
448.375
20
67.252
0
VERTEX
8
CUT
10
450.250
20
66.891
0
VERTEX
8
CUT
10
452.125
20
66.527
0
VERTEX
8
CUT
10
454.000
20
66.160
0
VERTEX
8
CUT
10
455.875
20
65.789
0
VERTEX
8
CUT
10
457.750
20
65.414
0
VERTEX
8
CUT
10
459.625
20
65.035
0
VERTEX
8
CUT
10
461.500
20
64.652
0
VERTEX
8
CUT
10
463.375
20
64.265
0
VERTEX
8
CUT
10
463.400
20
64.260
0
VERTEX
8
CUT
10
462.371
20
59.367
0
VERTEX
8
CUT
10
467.571
20
58.273
0
VERTEX
8
CUT
10
468.600
20
63.166
0
VERTEX
8
CUT
10
469.000
20
63.081
0
VERTEX
8
CUT
10
470.875
20
62.679
0
VERTEX
8
CUT
10
472.750
20
62.273
0
VERTEX
8
CUT
10
474.625
20
61.864
0
VERTEX
8
CUT
10
476.500
20
61.452
0
VERTEX
8
CUT
10
478.375
20
61.036
0
VERTEX
8
CUT
10
479.000
20
60.896
0
VERTEX
8
CUT
10
479.000
20
44.110
0
VERTEX
8
CUT
10
478.000
20
44.110
0
VERTEX
8
CUT
10
476.000
20
44.110
0
VERTEX
8
CUT
10
474.000
20
44.110
0
VERTEX
8
CUT
10
472.000
20
44.110
0
VERTEX
8
CUT
10
470.000
20
44.110
0
VERTEX
8
CUT
10
468.600
20
44.110
0
VERTEX
8
CUT
10
468.600
20
49.110
0
VERTEX
8
CUT
10
463.400
20
49.110
0
VERTEX
8
CUT
10
463.400
20
44.110
0
VERTEX
8
CUT
10
462.000
20
44.110
0
VERTEX
8
CUT
10
460.000
20
44.110
0
VERTEX
8
CUT
10
458.000
20
44.110
0
VERTEX
8
CUT
10
456.000
20
44.110
0
VERTEX
8
CUT
10
454.000
20
44.110
0
VERTEX
8
CUT
10
452.000
20
44.110
0
VERTEX
8
CUT
10
450.000
20
44.110
0
VERTEX
8
CUT
10
448.000
20
44.110
0
VERTEX
8
CUT
10
446.000
20
44.110
0
VERTEX
8
CUT
10
444.000
20
44.110
0
VERTEX
8
CUT
10
442.000
20
44.110
0
VERTEX
8
CUT
10
440.000
20
44.110
0
VERTEX
8
CUT
10
438.000
20
44.110
0
VERTEX
8
CUT
10
436.000
20
44.110
0
VERTEX
8
CUT
10
434.000
20
44.110
0
VERTEX
8
CUT
10
432.000
20
44.110
0
VERTEX
8
CUT
10
430.000
20
44.110
0
VERTEX
8
CUT
10
428.000
20
44.110
0
VERTEX
8
CUT
10
426.000
20
44.110
0
VERTEX
8
CUT
10
424.000
20
44.110
0
VERTEX
8
CUT
10
422.000
20
44.110
0
VERTEX
8
CUT
10
420.000
20
44.110
0
VERTEX
8
CUT
10
418.000
20
44.110
0
VERTEX
8
CUT
10
416.000
20
44.110
0
VERTEX
8
CUT
10
414.000
20
44.110
0
VERTEX
8
CUT
10
412.000
20
44.110
0
VERTEX
8
CUT
10
410.000
20
44.110
0
VERTEX
8
CUT
10
408.000
20
44.110
0
VERTEX
8
CUT
10
406.000
20
44.110
0
VERTEX
8
CUT
10
404.000
20
44.110
0
VERTEX
8
CUT
10
402.600
20
44.110
0
VERTEX
8
CUT
10
402.600
20
49.110
0
VERTEX
8
CUT
10
397.400
20
49.110
0
VERTEX
8
CUT
10
397.400
20
44.110
0
VERTEX
8
CUT
10
396.000
20
44.110
0
VERTEX
8
CUT
10
394.000
20
44.110
0
VERTEX
8
CUT
10
392.000
20
44.110
0
VERTEX
8
CUT
10
390.000
20
44.110
0
VERTEX
8
CUT
10
388.000
20
44.110
0
VERTEX
8
CUT
10
386.000
20
44.110
0
VERTEX
8
CUT
10
384.000
20
44.110
0
VERTEX
8
CUT
10
382.000
20
44.110
0
VERTEX
8
CUT
10
380.000
20
44.110
0
VERTEX
8
CUT
10
378.000
20
44.110
0
VERTEX
8
CUT
10
376.000
20
44.110
0
VERTEX
8
CUT
10
374.000
20
44.110
0
VERTEX
8
CUT
10
372.000
20
44.110
0
VERTEX
8
CUT
10
370.000
20
44.110
0
VERTEX
8
CUT
10
368.000
20
44.110
0
VERTEX
8
CUT
10
366.000
20
44.110
0
VERTEX
8
CUT
10
364.000
20
44.110
0
VERTEX
8
CUT
10
362.000
20
44.110
0
VERTEX
8
CUT
10
360.000
20
44.109
0
VERTEX
8
CUT
10
358.000
20
44.108
0
VERTEX
8
CUT
10
356.000
20
44.107
0
VERTEX
8
CUT
10
354.000
20
44.106
0
VERTEX
8
CUT
10
352.000
20
44.105
0
VERTEX
8
CUT
10
350.000
20
44.105
0
VERTEX
8
CUT
10
348.000
20
44.104
0
VERTEX
8
CUT
10
346.000
20
44.103
0
VERTEX
8
CUT
10
344.000
20
44.103
0
VERTEX
8
CUT
10
342.000
20
44.103
0
VERTEX
8
CUT
10
340.000
20
44.104
0
VERTEX
8
CUT
10
338.000
20
44.105
0
VERTEX
8
CUT
10
336.600
20
44.107
0
VERTEX
8
CUT
10
336.607
20
49.107
0
VERTEX
8
CUT
10
331.407
20
49.113
0
VERTEX
8
CUT
10
331.400
20
44.113
0
VERTEX
8
CUT
10
330.147
20
44.115
0
VERTEX
8
CUT
10
328.161
20
44.117
0
VERTEX
8
CUT
10
326.148
20
44.120
0
VERTEX
8
CUT
10
324.121
20
44.122
0
VERTEX
8
CUT
10
322.091
20
44.125
0
VERTEX
8
CUT
10
320.068
20
44.128
0
VERTEX
8
CUT
10
318.062
20
44.132
0
VERTEX
8
CUT
10
316.087
20
44.137
0
VERTEX
8
CUT
10
314.151
20
44.142
0
VERTEX
8
CUT
10
312.267
20
44.149
0
VERTEX
8
CUT
10
310.445
20
44.156
0
VERTEX
8
CUT
10
308.697
20
44.165
0
VERTEX
8
CUT
10
307.032
20
44.175
0
VERTEX
8
CUT
10
305.463
20
44.187
0
VERTEX
8
CUT
10
304.000
20
44.200
0
VERTEX
8
CUT
10
301.407
20
44.229
0
VERTEX
8
CUT
10
299.195
20
44.260
0
VERTEX
8
CUT
10
297.276
20
44.295
0
VERTEX
8
CUT
10
295.562
20
44.335
0
VERTEX
8
CUT
10
293.966
20
44.380
0
VERTEX
8
CUT
10
292.398
20
44.432
0
VERTEX
8
CUT
10
290.772
20
44.491
0
VERTEX
8
CUT
10
289.000
20
44.560
0
VERTEX
8
CUT
10
287.074
20
44.641
0
VERTEX
8
CUT
10
285.074
20
44.735
0
VERTEX
8
CUT
10
283.045
20
44.838
0
VERTEX
8
CUT
10
281.031
20
44.948
0
VERTEX
8
CUT
10
279.076
20
45.059
0
VERTEX
8
CUT
10
277.223
20
45.169
0
VERTEX
8
CUT
10
275.516
20
45.274
0
VERTEX
8
CUT
10
274.000
20
45.370
0
VERTEX
8
CUT
10
271.598
20
45.534
0
VERTEX
8
CUT
10
269.781
20
45.679
0
VERTEX
8
CUT
10
268.199
20
45.827
0
VERTEX
8
CUT
10
266.500
20
46.000
0
VERTEX
8
CUT
10
264.625
20
46.189
0
VERTEX
8
CUT
10
262.750
20
46.388
0
VERTEX
8
CUT
10
260.875
20
46.618
0
VERTEX
8
CUT
10
259.000
20
46.900
0
VERTEX
8
CUT
10
257.037
20
47.260
0
VERTEX
8
CUT
10
255.016
20
47.680
0
VERTEX
8
CUT
10
253.111
20
48.115
0
VERTEX
8
CUT
10
251.500
20
48.520
0
VERTEX
8
CUT
10
249.391
20
49.017
0
VERTEX
8
CUT
10
247.750
20
49.900
0
VERTEX
8
CUT
10
246.725
20
50.954
0
VERTEX
8
CUT
10
245.641
20
52.341
0
VERTEX
8
CUT
10
244.674
20
53.685
0
SEQEND
0
TEXT
8
POPIS
10
250.000
20
47.103
40
5.000
1
zebro-kratke-235
0
POLYLINE
8
CUT
66
1
70
1
0
VERTEX
8
CUT
10
483.000
20
60.890
0
VERTEX
8
CUT
10
484.250
20
60.610
0
VERTEX
8
CUT
10
486.125
20
60.188
0
VERTEX
8
CUT
10
488.000
20
59.763
0
VERTEX
8
CUT
10
489.902
20
59.327
0
VERTEX
8
CUT
10
491.853
20
58.874
0
VERTEX
8
CUT
10
493.839
20
58.408
0
VERTEX
8
CUT
10
495.852
20
57.931
0
VERTEX
8
CUT
10
497.879
20
57.447
0
VERTEX
8
CUT
10
499.909
20
56.958
0
VERTEX
8
CUT
10
501.932
20
56.468
0
VERTEX
8
CUT
10
503.938
20
55.979
0
VERTEX
8
CUT
10
505.913
20
55.496
0
VERTEX
8
CUT
10
507.849
20
55.020
0
VERTEX
8
CUT
10
509.733
20
54.555
0
VERTEX
8
CUT
10
511.555
20
54.104
0
VERTEX
8
CUT
10
513.303
20
53.671
0
VERTEX
8
CUT
10
514.968
20
53.257
0
VERTEX
8
CUT
10
516.537
20
52.867
0
VERTEX
8
CUT
10
518.000
20
52.503
0
VERTEX
8
CUT
10
520.593
20
51.854
0
VERTEX
8
CUT
10
522.805
20
51.291
0
VERTEX
8
CUT
10
524.724
20
50.793
0
VERTEX
8
CUT
10
526.438
20
50.341
0
VERTEX
8
CUT
10
528.034
20
49.914
0
VERTEX
8
CUT
10
529.602
20
49.490
0
VERTEX
8
CUT
10
531.228
20
49.050
0
VERTEX
8
CUT
10
533.000
20
48.573
0
VERTEX
8
CUT
10
534.978
20
48.040
0
VERTEX
8
CUT
10
537.102
20
47.462
0
VERTEX
8
CUT
10
539.284
20
46.864
0
VERTEX
8
CUT
10
541.438
20
46.272
0
VERTEX
8
CUT
10
543.474
20
45.711
0
VERTEX
8
CUT
10
545.305
20
45.206
0
VERTEX
8
CUT
10
546.843
20
44.781
0
VERTEX
8
CUT
10
548.000
20
44.463
0
VERTEX
8
CUT
10
548.000
20
44.103
0
VERTEX
8
CUT
10
546.843
20
44.103
0
VERTEX
8
CUT
10
545.305
20
44.103
0
VERTEX
8
CUT
10
543.474
20
44.103
0
VERTEX
8
CUT
10
541.438
20
44.103
0
VERTEX
8
CUT
10
539.284
20
44.103
0
VERTEX
8
CUT
10
537.102
20
44.103
0
VERTEX
8
CUT
10
534.978
20
44.103
0
VERTEX
8
CUT
10
533.000
20
44.103
0
VERTEX
8
CUT
10
531.228
20
44.103
0
VERTEX
8
CUT
10
529.602
20
44.103
0
VERTEX
8
CUT
10
528.034
20
44.103
0
VERTEX
8
CUT
10
526.438
20
44.103
0
VERTEX
8
CUT
10
524.724
20
44.103
0
VERTEX
8
CUT
10
522.805
20
44.103
0
VERTEX
8
CUT
10
520.593
20
44.103
0
VERTEX
8
CUT
10
518.000
20
44.103
0
VERTEX
8
CUT
10
516.436
20
44.103
0
VERTEX
8
CUT
10
514.751
20
44.103
0
VERTEX
8
CUT
10
512.960
20
44.103
0
VERTEX
8
CUT
10
511.076
20
44.103
0
VERTEX
8
CUT
10
509.111
20
44.103
0
VERTEX
8
CUT
10
507.080
20
44.103
0
VERTEX
8
CUT
10
504.996
20
44.103
0
VERTEX
8
CUT
10
502.871
20
44.103
0
VERTEX
8
CUT
10
500.720
20
44.103
0
VERTEX
8
CUT
10
498.556
20
44.103
0
VERTEX
8
CUT
10
496.391
20
44.103
0
VERTEX
8
CUT
10
494.240
20
44.103
0
VERTEX
8
CUT
10
492.116
20
44.103
0
VERTEX
8
CUT
10
490.031
20
44.103
0
VERTEX
8
CUT
10
488.000
20
44.103
0
VERTEX
8
CUT
10
486.000
20
44.103
0
VERTEX
8
CUT
10
484.000
20
44.103
0
VERTEX
8
CUT
10
483.000
20
44.103
0
SEQEND
0
TEXT
8
POPIS
10
489.000
20
47.103
40
4.197
1
zebro-klapka-65
0
POLYLINE
8
CUT
66
1
70
1
0
VERTEX
8
CUT
10
552.000
20
60.890
0
VERTEX
8
CUT
10
553.250
20
60.610
0
VERTEX
8
CUT
10
555.125
20
60.188
0
VERTEX
8
CUT
10
557.000
20
59.763
0
VERTEX
8
CUT
10
558.902
20
59.327
0
VERTEX
8
CUT
10
560.853
20
58.874
0
VERTEX
8
CUT
10
562.839
20
58.408
0
VERTEX
8
CUT
10
564.852
20
57.931
0
VERTEX
8
CUT
10
566.879
20
57.447
0
VERTEX
8
CUT
10
568.909
20
56.958
0
VERTEX
8
CUT
10
570.932
20
56.468
0
VERTEX
8
CUT
10
572.938
20
55.979
0
VERTEX
8
CUT
10
574.913
20
55.496
0
VERTEX
8
CUT
10
576.849
20
55.020
0
VERTEX
8
CUT
10
578.733
20
54.555
0
VERTEX
8
CUT
10
580.555
20
54.104
0
VERTEX
8
CUT
10
582.303
20
53.671
0
VERTEX
8
CUT
10
583.968
20
53.257
0
VERTEX
8
CUT
10
585.537
20
52.867
0
VERTEX
8
CUT
10
587.000
20
52.503
0
VERTEX
8
CUT
10
589.593
20
51.854
0
VERTEX
8
CUT
10
591.805
20
51.291
0
VERTEX
8
CUT
10
593.724
20
50.793
0
VERTEX
8
CUT
10
595.438
20
50.341
0
VERTEX
8
CUT
10
597.034
20
49.914
0
VERTEX
8
CUT
10
598.602
20
49.490
0
VERTEX
8
CUT
10
600.228
20
49.050
0
VERTEX
8
CUT
10
602.000
20
48.573
0
VERTEX
8
CUT
10
603.978
20
48.040
0
VERTEX
8
CUT
10
606.102
20
47.462
0
VERTEX
8
CUT
10
608.284
20
46.864
0
VERTEX
8
CUT
10
610.438
20
46.272
0
VERTEX
8
CUT
10
612.474
20
45.711
0
VERTEX
8
CUT
10
614.305
20
45.206
0
VERTEX
8
CUT
10
615.843
20
44.781
0
VERTEX
8
CUT
10
617.000
20
44.463
0
VERTEX
8
CUT
10
617.000
20
44.103
0
VERTEX
8
CUT
10
615.843
20
44.103
0
VERTEX
8
CUT
10
614.305
20
44.103
0
VERTEX
8
CUT
10
612.474
20
44.103
0
VERTEX
8
CUT
10
610.438
20
44.103
0
VERTEX
8
CUT
10
608.284
20
44.103
0
VERTEX
8
CUT
10
606.102
20
44.103
0
VERTEX
8
CUT
10
603.978
20
44.103
0
VERTEX
8
CUT
10
602.000
20
44.103
0
VERTEX
8
CUT
10
600.228
20
44.103
0
VERTEX
8
CUT
10
598.602
20
44.103
0
VERTEX
8
CUT
10
597.034
20
44.103
0
VERTEX
8
CUT
10
595.438
20
44.103
0
VERTEX
8
CUT
10
593.724
20
44.103
0
VERTEX
8
CUT
10
591.805
20
44.103
0
VERTEX
8
CUT
10
589.593
20
44.103
0
VERTEX
8
CUT
10
587.000
20
44.103
0
VERTEX
8
CUT
10
585.436
20
44.103
0
VERTEX
8
CUT
10
583.751
20
44.103
0
VERTEX
8
CUT
10
581.960
20
44.103
0
VERTEX
8
CUT
10
580.076
20
44.103
0
VERTEX
8
CUT
10
578.111
20
44.103
0
VERTEX
8
CUT
10
576.080
20
44.103
0
VERTEX
8
CUT
10
573.996
20
44.103
0
VERTEX
8
CUT
10
571.871
20
44.103
0
VERTEX
8
CUT
10
569.720
20
44.103
0
VERTEX
8
CUT
10
567.556
20
44.103
0
VERTEX
8
CUT
10
565.391
20
44.103
0
VERTEX
8
CUT
10
563.240
20
44.103
0
VERTEX
8
CUT
10
561.116
20
44.103
0
VERTEX
8
CUT
10
559.031
20
44.103
0
VERTEX
8
CUT
10
557.000
20
44.103
0
VERTEX
8
CUT
10
555.000
20
44.103
0
VERTEX
8
CUT
10
553.000
20
44.103
0
VERTEX
8
CUT
10
552.000
20
44.103
0
SEQEND
0
TEXT
8
POPIS
10
558.000
20
47.103
40
4.197
1
zebro-klapka-65
0
POLYLINE
8
CUT
66
1
70
1
0
VERTEX
8
CUT
10
621.000
20
60.890
0
VERTEX
8
CUT
10
622.250
20
60.610
0
VERTEX
8
CUT
10
624.125
20
60.188
0
VERTEX
8
CUT
10
626.000
20
59.763
0
VERTEX
8
CUT
10
627.902
20
59.327
0
VERTEX
8
CUT
10
629.853
20
58.874
0
VERTEX
8
CUT
10
631.839
20
58.408
0
VERTEX
8
CUT
10
633.852
20
57.931
0
VERTEX
8
CUT
10
635.879
20
57.447
0
VERTEX
8
CUT
10
637.909
20
56.958
0
VERTEX
8
CUT
10
639.932
20
56.468
0
VERTEX
8
CUT
10
641.938
20
55.979
0
VERTEX
8
CUT
10
643.913
20
55.496
0
VERTEX
8
CUT
10
645.849
20
55.020
0
VERTEX
8
CUT
10
647.733
20
54.555
0
VERTEX
8
CUT
10
649.555
20
54.104
0
VERTEX
8
CUT
10
651.303
20
53.671
0
VERTEX
8
CUT
10
652.968
20
53.257
0
VERTEX
8
CUT
10
654.537
20
52.867
0
VERTEX
8
CUT
10
656.000
20
52.503
0
VERTEX
8
CUT
10
658.593
20
51.854
0
VERTEX
8
CUT
10
660.805
20
51.291
0
VERTEX
8
CUT
10
662.724
20
50.793
0
VERTEX
8
CUT
10
664.438
20
50.341
0
VERTEX
8
CUT
10
666.034
20
49.914
0
VERTEX
8
CUT
10
667.602
20
49.490
0
VERTEX
8
CUT
10
669.228
20
49.050
0
VERTEX
8
CUT
10
671.000
20
48.573
0
VERTEX
8
CUT
10
672.978
20
48.040
0
VERTEX
8
CUT
10
675.102
20
47.462
0
VERTEX
8
CUT
10
677.284
20
46.864
0
VERTEX
8
CUT
10
679.438
20
46.272
0
VERTEX
8
CUT
10
681.474
20
45.711
0
VERTEX
8
CUT
10
683.305
20
45.206
0
VERTEX
8
CUT
10
684.843
20
44.781
0
VERTEX
8
CUT
10
686.000
20
44.463
0
VERTEX
8
CUT
10
686.000
20
44.103
0
VERTEX
8
CUT
10
684.843
20
44.103
0
VERTEX
8
CUT
10
683.305
20
44.103
0
VERTEX
8
CUT
10
681.474
20
44.103
0
VERTEX
8
CUT
10
679.438
20
44.103
0
VERTEX
8
CUT
10
677.284
20
44.103
0
VERTEX
8
CUT
10
675.102
20
44.103
0
VERTEX
8
CUT
10
672.978
20
44.103
0
VERTEX
8
CUT
10
671.000
20
44.103
0
VERTEX
8
CUT
10
669.228
20
44.103
0
VERTEX
8
CUT
10
667.602
20
44.103
0
VERTEX
8
CUT
10
666.034
20
44.103
0
VERTEX
8
CUT
10
664.438
20
44.103
0
VERTEX
8
CUT
10
662.724
20
44.103
0
VERTEX
8
CUT
10
660.805
20
44.103
0
VERTEX
8
CUT
10
658.593
20
44.103
0
VERTEX
8
CUT
10
656.000
20
44.103
0
VERTEX
8
CUT
10
654.436
20
44.103
0
VERTEX
8
CUT
10
652.751
20
44.103
0
VERTEX
8
CUT
10
650.960
20
44.103
0
VERTEX
8
CUT
10
649.076
20
44.103
0
VERTEX
8
CUT
10
647.111
20
44.103
0
VERTEX
8
CUT
10
645.080
20
44.103
0
VERTEX
8
CUT
10
642.996
20
44.103
0
VERTEX
8
CUT
10
640.871
20
44.103
0
VERTEX
8
CUT
10
638.720
20
44.103
0
VERTEX
8
CUT
10
636.556
20
44.103
0
VERTEX
8
CUT
10
634.391
20
44.103
0
VERTEX
8
CUT
10
632.240
20
44.103
0
VERTEX
8
CUT
10
630.116
20
44.103
0
VERTEX
8
CUT
10
628.031
20
44.103
0
VERTEX
8
CUT
10
626.000
20
44.103
0
VERTEX
8
CUT
10
624.000
20
44.103
0
VERTEX
8
CUT
10
622.000
20
44.103
0
VERTEX
8
CUT
10
621.000
20
44.103
0
SEQEND
0
TEXT
8
POPIS
10
627.000
20
47.103
40
4.197
1
zebro-klapka-65
0
POLYLINE
8
CUT
66
1
70
1
0
VERTEX
8
CUT
10
690.000
20
60.890
0
VERTEX
8
CUT
10
691.250
20
60.610
0
VERTEX
8
CUT
10
693.125
20
60.188
0
VERTEX
8
CUT
10
695.000
20
59.763
0
VERTEX
8
CUT
10
696.902
20
59.327
0
VERTEX
8
CUT
10
698.853
20
58.874
0
VERTEX
8
CUT
10
700.839
20
58.408
0
VERTEX
8
CUT
10
702.852
20
57.931
0
VERTEX
8
CUT
10
704.879
20
57.447
0
VERTEX
8
CUT
10
706.909
20
56.958
0
VERTEX
8
CUT
10
708.932
20
56.468
0
VERTEX
8
CUT
10
710.938
20
55.979
0
VERTEX
8
CUT
10
712.913
20
55.496
0
VERTEX
8
CUT
10
714.849
20
55.020
0
VERTEX
8
CUT
10
716.733
20
54.555
0
VERTEX
8
CUT
10
718.555
20
54.104
0
VERTEX
8
CUT
10
720.303
20
53.671
0
VERTEX
8
CUT
10
721.968
20
53.257
0
VERTEX
8
CUT
10
723.537
20
52.867
0
VERTEX
8
CUT
10
725.000
20
52.503
0
VERTEX
8
CUT
10
727.593
20
51.854
0
VERTEX
8
CUT
10
729.805
20
51.291
0
VERTEX
8
CUT
10
731.724
20
50.793
0
VERTEX
8
CUT
10
733.438
20
50.341
0
VERTEX
8
CUT
10
735.034
20
49.914
0
VERTEX
8
CUT
10
736.602
20
49.490
0
VERTEX
8
CUT
10
738.228
20
49.050
0
VERTEX
8
CUT
10
740.000
20
48.573
0
VERTEX
8
CUT
10
741.978
20
48.040
0
VERTEX
8
CUT
10
744.102
20
47.462
0
VERTEX
8
CUT
10
746.284
20
46.864
0
VERTEX
8
CUT
10
748.438
20
46.272
0
VERTEX
8
CUT
10
750.474
20
45.711
0
VERTEX
8
CUT
10
752.305
20
45.206
0
VERTEX
8
CUT
10
753.843
20
44.781
0
VERTEX
8
CUT
10
755.000
20
44.463
0
VERTEX
8
CUT
10
755.000
20
44.103
0
VERTEX
8
CUT
10
753.843
20
44.103
0
VERTEX
8
CUT
10
752.305
20
44.103
0
VERTEX
8
CUT
10
750.474
20
44.103
0
VERTEX
8
CUT
10
748.438
20
44.103
0
VERTEX
8
CUT
10
746.284
20
44.103
0
VERTEX
8
CUT
10
744.102
20
44.103
0
VERTEX
8
CUT
10
741.978
20
44.103
0
VERTEX
8
CUT
10
740.000
20
44.103
0
VERTEX
8
CUT
10
738.228
20
44.103
0
VERTEX
8
CUT
10
736.602
20
44.103
0
VERTEX
8
CUT
10
735.034
20
44.103
0
VERTEX
8
CUT
10
733.438
20
44.103
0
VERTEX
8
CUT
10
731.724
20
44.103
0
VERTEX
8
CUT
10
729.805
20
44.103
0
VERTEX
8
CUT
10
727.593
20
44.103
0
VERTEX
8
CUT
10
725.000
20
44.103
0
VERTEX
8
CUT
10
723.436
20
44.103
0
VERTEX
8
CUT
10
721.751
20
44.103
0
VERTEX
8
CUT
10
719.960
20
44.103
0
VERTEX
8
CUT
10
718.076
20
44.103
0
VERTEX
8
CUT
10
716.111
20
44.103
0
VERTEX
8
CUT
10
714.080
20
44.103
0
VERTEX
8
CUT
10
711.996
20
44.103
0
VERTEX
8
CUT
10
709.871
20
44.103
0
VERTEX
8
CUT
10
707.720
20
44.103
0
VERTEX
8
CUT
10
705.556
20
44.103
0
VERTEX
8
CUT
10
703.391
20
44.103
0
VERTEX
8
CUT
10
701.240
20
44.103
0
VERTEX
8
CUT
10
699.116
20
44.103
0
VERTEX
8
CUT
10
697.031
20
44.103
0
VERTEX
8
CUT
10
695.000
20
44.103
0
VERTEX
8
CUT
10
693.000
20
44.103
0
VERTEX
8
CUT
10
691.000
20
44.103
0
VERTEX
8
CUT
10
690.000
20
44.103
0
SEQEND
0
TEXT
8
POPIS
10
696.000
20
47.103
40
4.197
1
zebro-klapka-65
0
POLYLINE
8
CUT
66
1
70
1
0
VERTEX
8
CUT
10
759.000
20
60.890
0
VERTEX
8
CUT
10
760.250
20
60.610
0
VERTEX
8
CUT
10
762.125
20
60.188
0
VERTEX
8
CUT
10
764.000
20
59.763
0
VERTEX
8
CUT
10
765.902
20
59.327
0
VERTEX
8
CUT
10
767.853
20
58.874
0
VERTEX
8
CUT
10
769.839
20
58.408
0
VERTEX
8
CUT
10
771.852
20
57.931
0
VERTEX
8
CUT
10
773.879
20
57.447
0
VERTEX
8
CUT
10
775.909
20
56.958
0
VERTEX
8
CUT
10
777.932
20
56.468
0
VERTEX
8
CUT
10
779.938
20
55.979
0
VERTEX
8
CUT
10
781.913
20
55.496
0
VERTEX
8
CUT
10
783.849
20
55.020
0
VERTEX
8
CUT
10
785.733
20
54.555
0
VERTEX
8
CUT
10
787.555
20
54.104
0
VERTEX
8
CUT
10
789.303
20
53.671
0
VERTEX
8
CUT
10
790.968
20
53.257
0
VERTEX
8
CUT
10
792.537
20
52.867
0
VERTEX
8
CUT
10
794.000
20
52.503
0
VERTEX
8
CUT
10
796.593
20
51.854
0
VERTEX
8
CUT
10
798.805
20
51.291
0
VERTEX
8
CUT
10
800.724
20
50.793
0
VERTEX
8
CUT
10
802.438
20
50.341
0
VERTEX
8
CUT
10
804.034
20
49.914
0
VERTEX
8
CUT
10
805.602
20
49.490
0
VERTEX
8
CUT
10
807.228
20
49.050
0
VERTEX
8
CUT
10
809.000
20
48.573
0
VERTEX
8
CUT
10
810.978
20
48.040
0
VERTEX
8
CUT
10
813.102
20
47.462
0
VERTEX
8
CUT
10
815.284
20
46.864
0
VERTEX
8
CUT
10
817.438
20
46.272
0
VERTEX
8
CUT
10
819.474
20
45.711
0
VERTEX
8
CUT
10
821.305
20
45.206
0
VERTEX
8
CUT
10
822.843
20
44.781
0
VERTEX
8
CUT
10
824.000
20
44.463
0
VERTEX
8
CUT
10
824.000
20
44.103
0
VERTEX
8
CUT
10
822.843
20
44.103
0
VERTEX
8
CUT
10
821.305
20
44.103
0
VERTEX
8
CUT
10
819.474
20
44.103
0
VERTEX
8
CUT
10
817.438
20
44.103
0
VERTEX
8
CUT
10
815.284
20
44.103
0
VERTEX
8
CUT
10
813.102
20
44.103
0
VERTEX
8
CUT
10
810.978
20
44.103
0
VERTEX
8
CUT
10
809.000
20
44.103
0
VERTEX
8
CUT
10
807.228
20
44.103
0
VERTEX
8
CUT
10
805.602
20
44.103
0
VERTEX
8
CUT
10
804.034
20
44.103
0
VERTEX
8
CUT
10
802.438
20
44.103
0
VERTEX
8
CUT
10
800.724
20
44.103
0
VERTEX
8
CUT
10
798.805
20
44.103
0
VERTEX
8
CUT
10
796.593
20
44.103
0
VERTEX
8
CUT
10
794.000
20
44.103
0
VERTEX
8
CUT
10
792.436
20
44.103
0
VERTEX
8
CUT
10
790.751
20
44.103
0
VERTEX
8
CUT
10
788.960
20
44.103
0
VERTEX
8
CUT
10
787.076
20
44.103
0
VERTEX
8
CUT
10
785.111
20
44.103
0
VERTEX
8
CUT
10
783.080
20
44.103
0
VERTEX
8
CUT
10
780.996
20
44.103
0
VERTEX
8
CUT
10
778.871
20
44.103
0
VERTEX
8
CUT
10
776.720
20
44.103
0
VERTEX
8
CUT
10
774.556
20
44.103
0
VERTEX
8
CUT
10
772.391
20
44.103
0
VERTEX
8
CUT
10
770.240
20
44.103
0
VERTEX
8
CUT
10
768.116
20
44.103
0
VERTEX
8
CUT
10
766.031
20
44.103
0
VERTEX
8
CUT
10
764.000
20
44.103
0
VERTEX
8
CUT
10
762.000
20
44.103
0
VERTEX
8
CUT
10
760.000
20
44.103
0
VERTEX
8
CUT
10
759.000
20
44.103
0
SEQEND
0
TEXT
8
POPIS
10
765.000
20
47.103
40
4.197
1
zebro-klapka-65
0
POLYLINE
8
CUT
66
1
70
1
0
VERTEX
8
CUT
10
828.000
20
60.890
0
VERTEX
8
CUT
10
829.250
20
60.610
0
VERTEX
8
CUT
10
831.125
20
60.188
0
VERTEX
8
CUT
10
833.000
20
59.763
0
VERTEX
8
CUT
10
834.902
20
59.327
0
VERTEX
8
CUT
10
836.853
20
58.874
0
VERTEX
8
CUT
10
838.839
20
58.408
0
VERTEX
8
CUT
10
840.852
20
57.931
0
VERTEX
8
CUT
10
842.879
20
57.447
0
VERTEX
8
CUT
10
844.909
20
56.958
0
VERTEX
8
CUT
10
846.932
20
56.468
0
VERTEX
8
CUT
10
848.938
20
55.979
0
VERTEX
8
CUT
10
850.913
20
55.496
0
VERTEX
8
CUT
10
852.849
20
55.020
0
VERTEX
8
CUT
10
854.733
20
54.555
0
VERTEX
8
CUT
10
856.555
20
54.104
0
VERTEX
8
CUT
10
858.303
20
53.671
0
VERTEX
8
CUT
10
859.968
20
53.257
0
VERTEX
8
CUT
10
861.537
20
52.867
0
VERTEX
8
CUT
10
863.000
20
52.503
0
VERTEX
8
CUT
10
865.593
20
51.854
0
VERTEX
8
CUT
10
867.805
20
51.291
0
VERTEX
8
CUT
10
869.724
20
50.793
0
VERTEX
8
CUT
10
871.438
20
50.341
0
VERTEX
8
CUT
10
873.034
20
49.914
0
VERTEX
8
CUT
10
874.602
20
49.490
0
VERTEX
8
CUT
10
876.228
20
49.050
0
VERTEX
8
CUT
10
878.000
20
48.573
0
VERTEX
8
CUT
10
879.978
20
48.040
0
VERTEX
8
CUT
10
882.102
20
47.462
0
VERTEX
8
CUT
10
884.284
20
46.864
0
VERTEX
8
CUT
10
886.438
20
46.272
0
VERTEX
8
CUT
10
888.474
20
45.711
0
VERTEX
8
CUT
10
890.305
20
45.206
0
VERTEX
8
CUT
10
891.843
20
44.781
0
VERTEX
8
CUT
10
893.000
20
44.463
0
VERTEX
8
CUT
10
893.000
20
44.103
0
VERTEX
8
CUT
10
891.843
20
44.103
0
VERTEX
8
CUT
10
890.305
20
44.103
0
VERTEX
8
CUT
10
888.474
20
44.103
0
VERTEX
8
CUT
10
886.438
20
44.103
0
VERTEX
8
CUT
10
884.284
20
44.103
0
VERTEX
8
CUT
10
882.102
20
44.103
0
VERTEX
8
CUT
10
879.978
20
44.103
0
VERTEX
8
CUT
10
878.000
20
44.103
0
VERTEX
8
CUT
10
876.228
20
44.103
0
VERTEX
8
CUT
10
874.602
20
44.103
0
VERTEX
8
CUT
10
873.034
20
44.103
0
VERTEX
8
CUT
10
871.438
20
44.103
0
VERTEX
8
CUT
10
869.724
20
44.103
0
VERTEX
8
CUT
10
867.805
20
44.103
0
VERTEX
8
CUT
10
865.593
20
44.103
0
VERTEX
8
CUT
10
863.000
20
44.103
0
VERTEX
8
CUT
10
861.436
20
44.103
0
VERTEX
8
CUT
10
859.751
20
44.103
0
VERTEX
8
CUT
10
857.960
20
44.103
0
VERTEX
8
CUT
10
856.076
20
44.103
0
VERTEX
8
CUT
10
854.111
20
44.103
0
VERTEX
8
CUT
10
852.080
20
44.103
0
VERTEX
8
CUT
10
849.996
20
44.103
0
VERTEX
8
CUT
10
847.871
20
44.103
0
VERTEX
8
CUT
10
845.720
20
44.103
0
VERTEX
8
CUT
10
843.556
20
44.103
0
VERTEX
8
CUT
10
841.391
20
44.103
0
VERTEX
8
CUT
10
839.240
20
44.103
0
VERTEX
8
CUT
10
837.116
20
44.103
0
VERTEX
8
CUT
10
835.031
20
44.103
0
VERTEX
8
CUT
10
833.000
20
44.103
0
VERTEX
8
CUT
10
831.000
20
44.103
0
VERTEX
8
CUT
10
829.000
20
44.103
0
VERTEX
8
CUT
10
828.000
20
44.103
0
SEQEND
0
TEXT
8
POPIS
10
834.000
20
47.103
40
4.197
1
zebro-klapka-65
0
POLYLINE
8
CUT
66
1
70
1
0
VERTEX
8
CUT
10
897.000
20
60.890
0
VERTEX
8
CUT
10
898.250
20
60.610
0
VERTEX
8
CUT
10
900.125
20
60.188
0
VERTEX
8
CUT
10
902.000
20
59.763
0
VERTEX
8
CUT
10
903.902
20
59.327
0
VERTEX
8
CUT
10
905.853
20
58.874
0
VERTEX
8
CUT
10
907.839
20
58.408
0
VERTEX
8
CUT
10
909.852
20
57.931
0
VERTEX
8
CUT
10
911.879
20
57.447
0
VERTEX
8
CUT
10
913.909
20
56.958
0
VERTEX
8
CUT
10
915.932
20
56.468
0
VERTEX
8
CUT
10
917.938
20
55.979
0
VERTEX
8
CUT
10
919.913
20
55.496
0
VERTEX
8
CUT
10
921.849
20
55.020
0
VERTEX
8
CUT
10
923.733
20
54.555
0
VERTEX
8
CUT
10
925.555
20
54.104
0
VERTEX
8
CUT
10
927.303
20
53.671
0
VERTEX
8
CUT
10
928.968
20
53.257
0
VERTEX
8
CUT
10
930.537
20
52.867
0
VERTEX
8
CUT
10
932.000
20
52.503
0
VERTEX
8
CUT
10
934.593
20
51.854
0
VERTEX
8
CUT
10
936.805
20
51.291
0
VERTEX
8
CUT
10
938.724
20
50.793
0
VERTEX
8
CUT
10
940.438
20
50.341
0
VERTEX
8
CUT
10
942.034
20
49.914
0
VERTEX
8
CUT
10
943.602
20
49.490
0
VERTEX
8
CUT
10
945.228
20
49.050
0
VERTEX
8
CUT
10
947.000
20
48.573
0
VERTEX
8
CUT
10
948.978
20
48.040
0
VERTEX
8
CUT
10
951.102
20
47.462
0
VERTEX
8
CUT
10
953.284
20
46.864
0
VERTEX
8
CUT
10
955.438
20
46.272
0
VERTEX
8
CUT
10
957.474
20
45.711
0
VERTEX
8
CUT
10
959.305
20
45.206
0
VERTEX
8
CUT
10
960.843
20
44.781
0
VERTEX
8
CUT
10
962.000
20
44.463
0
VERTEX
8
CUT
10
962.000
20
44.103
0
VERTEX
8
CUT
10
960.843
20
44.103
0
VERTEX
8
CUT
10
959.305
20
44.103
0
VERTEX
8
CUT
10
957.474
20
44.103
0
VERTEX
8
CUT
10
955.438
20
44.103
0
VERTEX
8
CUT
10
953.284
20
44.103
0
VERTEX
8
CUT
10
951.102
20
44.103
0
VERTEX
8
CUT
10
948.978
20
44.103
0
VERTEX
8
CUT
10
947.000
20
44.103
0
VERTEX
8
CUT
10
945.228
20
44.103
0
VERTEX
8
CUT
10
943.602
20
44.103
0
VERTEX
8
CUT
10
942.034
20
44.103
0
VERTEX
8
CUT
10
940.438
20
44.103
0
VERTEX
8
CUT
10
938.724
20
44.103
0
VERTEX
8
CUT
10
936.805
20
44.103
0
VERTEX
8
CUT
10
934.593
20
44.103
0
VERTEX
8
CUT
10
932.000
20
44.103
0
VERTEX
8
CUT
10
930.436
20
44.103
0
VERTEX
8
CUT
10
928.751
20
44.103
0
VERTEX
8
CUT
10
926.960
20
44.103
0
VERTEX
8
CUT
10
925.076
20
44.103
0
VERTEX
8
CUT
10
923.111
20
44.103
0
VERTEX
8
CUT
10
921.080
20
44.103
0
VERTEX
8
CUT
10
918.996
20
44.103
0
VERTEX
8
CUT
10
916.871
20
44.103
0
VERTEX
8
CUT
10
914.720
20
44.103
0
VERTEX
8
CUT
10
912.556
20
44.103
0
VERTEX
8
CUT
10
910.391
20
44.103
0
VERTEX
8
CUT
10
908.240
20
44.103
0
VERTEX
8
CUT
10
906.116
20
44.103
0
VERTEX
8
CUT
10
904.031
20
44.103
0
VERTEX
8
CUT
10
902.000
20
44.103
0
VERTEX
8
CUT
10
900.000
20
44.103
0
VERTEX
8
CUT
10
898.000
20
44.103
0
VERTEX
8
CUT
10
897.000
20
44.103
0
SEQEND
0
TEXT
8
POPIS
10
903.000
20
47.103
40
4.197
1
zebro-klapka-65
0
ENDSEC
0
EOF
