0
SECTION
2
TABLES
0
TABLE
2
LAYER
70
2
0
LAYER
2
CUT
70
0
62
7
6
CONTINUOUS
0
LAYER
2
POPIS
70
0
62
1
6
CONTINUOUS
0
ENDTAB
0
ENDSEC
0
SECTION
2
ENTITIES
0
POLYLINE
8
CUT
66
1
70
1
0
VERTEX
8
CUT
10
5.000
20
21.786
0
VERTEX
8
CUT
10
6.250
20
21.507
0
VERTEX
8
CUT
10
8.125
20
21.085
0
VERTEX
8
CUT
10
10.000
20
20.660
0
VERTEX
8
CUT
10
11.902
20
20.224
0
VERTEX
8
CUT
10
13.853
20
19.771
0
VERTEX
8
CUT
10
15.839
20
19.305
0
VERTEX
8
CUT
10
17.852
20
18.828
0
VERTEX
8
CUT
10
19.879
20
18.344
0
VERTEX
8
CUT
10
21.909
20
17.855
0
VERTEX
8
CUT
10
23.932
20
17.365
0
VERTEX
8
CUT
10
25.938
20
16.876
0
VERTEX
8
CUT
10
27.913
20
16.393
0
VERTEX
8
CUT
10
29.849
20
15.917
0
VERTEX
8
CUT
10
31.733
20
15.452
0
VERTEX
8
CUT
10
33.555
20
15.001
0
VERTEX
8
CUT
10
35.303
20
14.568
0
VERTEX
8
CUT
10
36.968
20
14.154
0
VERTEX
8
CUT
10
38.537
20
13.764
0
VERTEX
8
CUT
10
40.000
20
13.400
0
VERTEX
8
CUT
10
42.593
20
12.751
0
VERTEX
8
CUT
10
44.805
20
12.188
0
VERTEX
8
CUT
10
46.724
20
11.690
0
VERTEX
8
CUT
10
48.438
20
11.238
0
VERTEX
8
CUT
10
50.034
20
10.811
0
VERTEX
8
CUT
10
51.602
20
10.387
0
VERTEX
8
CUT
10
53.228
20
9.947
0
VERTEX
8
CUT
10
55.000
20
9.470
0
VERTEX
8
CUT
10
56.978
20
8.937
0
VERTEX
8
CUT
10
59.102
20
8.359
0
VERTEX
8
CUT
10
61.284
20
7.761
0
VERTEX
8
CUT
10
63.438
20
7.169
0
VERTEX
8
CUT
10
65.474
20
6.608
0
VERTEX
8
CUT
10
67.305
20
6.103
0
VERTEX
8
CUT
10
68.843
20
5.678
0
VERTEX
8
CUT
10
70.000
20
5.360
0
VERTEX
8
CUT
10
70.000
20
5.000
0
VERTEX
8
CUT
10
68.843
20
5.000
0
VERTEX
8
CUT
10
67.305
20
5.000
0
VERTEX
8
CUT
10
65.474
20
5.000
0
VERTEX
8
CUT
10
63.438
20
5.000
0
VERTEX
8
CUT
10
61.284
20
5.000
0
VERTEX
8
CUT
10
59.102
20
5.000
0
VERTEX
8
CUT
10
56.978
20
5.000
0
VERTEX
8
CUT
10
55.000
20
5.000
0
VERTEX
8
CUT
10
53.228
20
5.000
0
VERTEX
8
CUT
10
51.602
20
5.000
0
VERTEX
8
CUT
10
50.034
20
5.000
0
VERTEX
8
CUT
10
48.438
20
5.000
0
VERTEX
8
CUT
10
46.724
20
5.000
0
VERTEX
8
CUT
10
44.805
20
5.000
0
VERTEX
8
CUT
10
42.593
20
5.000
0
VERTEX
8
CUT
10
40.000
20
5.000
0
VERTEX
8
CUT
10
38.436
20
5.000
0
VERTEX
8
CUT
10
36.751
20
5.000
0
VERTEX
8
CUT
10
34.960
20
5.000
0
VERTEX
8
CUT
10
33.076
20
5.000
0
VERTEX
8
CUT
10
31.111
20
5.000
0
VERTEX
8
CUT
10
29.080
20
5.000
0
VERTEX
8
CUT
10
26.996
20
5.000
0
VERTEX
8
CUT
10
24.871
20
5.000
0
VERTEX
8
CUT
10
22.720
20
5.000
0
VERTEX
8
CUT
10
20.556
20
5.000
0
VERTEX
8
CUT
10
18.391
20
5.000
0
VERTEX
8
CUT
10
16.240
20
5.000
0
VERTEX
8
CUT
10
14.116
20
5.000
0
VERTEX
8
CUT
10
12.031
20
5.000
0
VERTEX
8
CUT
10
10.000
20
5.000
0
VERTEX
8
CUT
10
8.000
20
5.000
0
VERTEX
8
CUT
10
6.000
20
5.000
0
VERTEX
8
CUT
10
5.000
20
5.000
0
SEQEND
0
TEXT
8
POPIS
10
11.000
20
8.000
40
4.197
1
zebro-klapka-65
0
POLYLINE
8
CUT
66
1
70
1
0
VERTEX
8
CUT
10
74.000
20
21.786
0
VERTEX
8
CUT
10
75.250
20
21.507
0
VERTEX
8
CUT
10
77.125
20
21.085
0
VERTEX
8
CUT
10
79.000
20
20.660
0
VERTEX
8
CUT
10
80.902
20
20.224
0
VERTEX
8
CUT
10
82.853
20
19.771
0
VERTEX
8
CUT
10
84.839
20
19.305
0
VERTEX
8
CUT
10
86.852
20
18.828
0
VERTEX
8
CUT
10
88.879
20
18.344
0
VERTEX
8
CUT
10
90.909
20
17.855
0
VERTEX
8
CUT
10
92.932
20
17.365
0
VERTEX
8
CUT
10
94.938
20
16.876
0
VERTEX
8
CUT
10
96.913
20
16.393
0
VERTEX
8
CUT
10
98.849
20
15.917
0
VERTEX
8
CUT
10
100.733
20
15.452
0
VERTEX
8
CUT
10
102.555
20
15.001
0
VERTEX
8
CUT
10
104.303
20
14.568
0
VERTEX
8
CUT
10
105.968
20
14.154
0
VERTEX
8
CUT
10
107.537
20
13.764
0
VERTEX
8
CUT
10
109.000
20
13.400
0
VERTEX
8
CUT
10
111.593
20
12.751
0
VERTEX
8
CUT
10
113.805
20
12.188
0
VERTEX
8
CUT
10
115.724
20
11.690
0
VERTEX
8
CUT
10
117.438
20
11.238
0
VERTEX
8
CUT
10
119.034
20
10.811
0
VERTEX
8
CUT
10
120.602
20
10.387
0
VERTEX
8
CUT
10
122.228
20
9.947
0
VERTEX
8
CUT
10
124.000
20
9.470
0
VERTEX
8
CUT
10
125.978
20
8.937
0
VERTEX
8
CUT
10
128.102
20
8.359
0
VERTEX
8
CUT
10
130.284
20
7.761
0
VERTEX
8
CUT
10
132.438
20
7.169
0
VERTEX
8
CUT
10
134.474
20
6.608
0
VERTEX
8
CUT
10
136.305
20
6.103
0
VERTEX
8
CUT
10
137.843
20
5.678
0
VERTEX
8
CUT
10
139.000
20
5.360
0
VERTEX
8
CUT
10
139.000
20
5.000
0
VERTEX
8
CUT
10
137.843
20
5.000
0
VERTEX
8
CUT
10
136.305
20
5.000
0
VERTEX
8
CUT
10
134.474
20
5.000
0
VERTEX
8
CUT
10
132.438
20
5.000
0
VERTEX
8
CUT
10
130.284
20
5.000
0
VERTEX
8
CUT
10
128.102
20
5.000
0
VERTEX
8
CUT
10
125.978
20
5.000
0
VERTEX
8
CUT
10
124.000
20
5.000
0
VERTEX
8
CUT
10
122.228
20
5.000
0
VERTEX
8
CUT
10
120.602
20
5.000
0
VERTEX
8
CUT
10
119.034
20
5.000
0
VERTEX
8
CUT
10
117.438
20
5.000
0
VERTEX
8
CUT
10
115.724
20
5.000
0
VERTEX
8
CUT
10
113.805
20
5.000
0
VERTEX
8
CUT
10
111.593
20
5.000
0
VERTEX
8
CUT
10
109.000
20
5.000
0
VERTEX
8
CUT
10
107.436
20
5.000
0
VERTEX
8
CUT
10
105.751
20
5.000
0
VERTEX
8
CUT
10
103.960
20
5.000
0
VERTEX
8
CUT
10
102.076
20
5.000
0
VERTEX
8
CUT
10
100.111
20
5.000
0
VERTEX
8
CUT
10
98.080
20
5.000
0
VERTEX
8
CUT
10
95.996
20
5.000
0
VERTEX
8
CUT
10
93.871
20
5.000
0
VERTEX
8
CUT
10
91.720
20
5.000
0
VERTEX
8
CUT
10
89.556
20
5.000
0
VERTEX
8
CUT
10
87.391
20
5.000
0
VERTEX
8
CUT
10
85.240
20
5.000
0
VERTEX
8
CUT
10
83.116
20
5.000
0
VERTEX
8
CUT
10
81.031
20
5.000
0
VERTEX
8
CUT
10
79.000
20
5.000
0
VERTEX
8
CUT
10
77.000
20
5.000
0
VERTEX
8
CUT
10
75.000
20
5.000
0
VERTEX
8
CUT
10
74.000
20
5.000
0
SEQEND
0
TEXT
8
POPIS
10
80.000
20
8.000
40
4.197
1
zebro-klapka-65
0
POLYLINE
8
CUT
66
1
70
1
0
VERTEX
8
CUT
10
143.000
20
21.786
0
VERTEX
8
CUT
10
144.250
20
21.507
0
VERTEX
8
CUT
10
146.125
20
21.085
0
VERTEX
8
CUT
10
148.000
20
20.660
0
VERTEX
8
CUT
10
149.902
20
20.224
0
VERTEX
8
CUT
10
151.853
20
19.771
0
VERTEX
8
CUT
10
153.839
20
19.305
0
VERTEX
8
CUT
10
155.852
20
18.828
0
VERTEX
8
CUT
10
157.879
20
18.344
0
VERTEX
8
CUT
10
159.909
20
17.855
0
VERTEX
8
CUT
10
161.932
20
17.365
0
VERTEX
8
CUT
10
163.938
20
16.876
0
VERTEX
8
CUT
10
165.913
20
16.393
0
VERTEX
8
CUT
10
167.849
20
15.917
0
VERTEX
8
CUT
10
169.733
20
15.452
0
VERTEX
8
CUT
10
171.555
20
15.001
0
VERTEX
8
CUT
10
173.303
20
14.568
0
VERTEX
8
CUT
10
174.968
20
14.154
0
VERTEX
8
CUT
10
176.537
20
13.764
0
VERTEX
8
CUT
10
178.000
20
13.400
0
VERTEX
8
CUT
10
180.593
20
12.751
0
VERTEX
8
CUT
10
182.805
20
12.188
0
VERTEX
8
CUT
10
184.724
20
11.690
0
VERTEX
8
CUT
10
186.438
20
11.238
0
VERTEX
8
CUT
10
188.034
20
10.811
0
VERTEX
8
CUT
10
189.602
20
10.387
0
VERTEX
8
CUT
10
191.228
20
9.947
0
VERTEX
8
CUT
10
193.000
20
9.470
0
VERTEX
8
CUT
10
194.978
20
8.937
0
VERTEX
8
CUT
10
197.102
20
8.359
0
VERTEX
8
CUT
10
199.284
20
7.761
0
VERTEX
8
CUT
10
201.438
20
7.169
0
VERTEX
8
CUT
10
203.474
20
6.608
0
VERTEX
8
CUT
10
205.305
20
6.103
0
VERTEX
8
CUT
10
206.843
20
5.678
0
VERTEX
8
CUT
10
208.000
20
5.360
0
VERTEX
8
CUT
10
208.000
20
5.000
0
VERTEX
8
CUT
10
206.843
20
5.000
0
VERTEX
8
CUT
10
205.305
20
5.000
0
VERTEX
8
CUT
10
203.474
20
5.000
0
VERTEX
8
CUT
10
201.438
20
5.000
0
VERTEX
8
CUT
10
199.284
20
5.000
0
VERTEX
8
CUT
10
197.102
20
5.000
0
VERTEX
8
CUT
10
194.978
20
5.000
0
VERTEX
8
CUT
10
193.000
20
5.000
0
VERTEX
8
CUT
10
191.228
20
5.000
0
VERTEX
8
CUT
10
189.602
20
5.000
0
VERTEX
8
CUT
10
188.034
20
5.000
0
VERTEX
8
CUT
10
186.438
20
5.000
0
VERTEX
8
CUT
10
184.724
20
5.000
0
VERTEX
8
CUT
10
182.805
20
5.000
0
VERTEX
8
CUT
10
180.593
20
5.000
0
VERTEX
8
CUT
10
178.000
20
5.000
0
VERTEX
8
CUT
10
176.436
20
5.000
0
VERTEX
8
CUT
10
174.751
20
5.000
0
VERTEX
8
CUT
10
172.960
20
5.000
0
VERTEX
8
CUT
10
171.076
20
5.000
0
VERTEX
8
CUT
10
169.111
20
5.000
0
VERTEX
8
CUT
10
167.080
20
5.000
0
VERTEX
8
CUT
10
164.996
20
5.000
0
VERTEX
8
CUT
10
162.871
20
5.000
0
VERTEX
8
CUT
10
160.720
20
5.000
0
VERTEX
8
CUT
10
158.556
20
5.000
0
VERTEX
8
CUT
10
156.391
20
5.000
0
VERTEX
8
CUT
10
154.240
20
5.000
0
VERTEX
8
CUT
10
152.116
20
5.000
0
VERTEX
8
CUT
10
150.031
20
5.000
0
VERTEX
8
CUT
10
148.000
20
5.000
0
VERTEX
8
CUT
10
146.000
20
5.000
0
VERTEX
8
CUT
10
144.000
20
5.000
0
VERTEX
8
CUT
10
143.000
20
5.000
0
SEQEND
0
TEXT
8
POPIS
10
149.000
20
8.000
40
4.197
1
zebro-klapka-65
0
POLYLINE
8
CUT
66
1
70
1
0
VERTEX
8
CUT
10
212.000
20
21.786
0
VERTEX
8
CUT
10
213.250
20
21.507
0
VERTEX
8
CUT
10
215.125
20
21.085
0
VERTEX
8
CUT
10
217.000
20
20.660
0
VERTEX
8
CUT
10
218.902
20
20.224
0
VERTEX
8
CUT
10
220.853
20
19.771
0
VERTEX
8
CUT
10
222.839
20
19.305
0
VERTEX
8
CUT
10
224.852
20
18.828
0
VERTEX
8
CUT
10
226.879
20
18.344
0
VERTEX
8
CUT
10
228.909
20
17.855
0
VERTEX
8
CUT
10
230.932
20
17.365
0
VERTEX
8
CUT
10
232.938
20
16.876
0
VERTEX
8
CUT
10
234.913
20
16.393
0
VERTEX
8
CUT
10
236.849
20
15.917
0
VERTEX
8
CUT
10
238.733
20
15.452
0
VERTEX
8
CUT
10
240.555
20
15.001
0
VERTEX
8
CUT
10
242.303
20
14.568
0
VERTEX
8
CUT
10
243.968
20
14.154
0
VERTEX
8
CUT
10
245.537
20
13.764
0
VERTEX
8
CUT
10
247.000
20
13.400
0
VERTEX
8
CUT
10
249.593
20
12.751
0
VERTEX
8
CUT
10
251.805
20
12.188
0
VERTEX
8
CUT
10
253.724
20
11.690
0
VERTEX
8
CUT
10
255.438
20
11.238
0
VERTEX
8
CUT
10
257.034
20
10.811
0
VERTEX
8
CUT
10
258.602
20
10.387
0
VERTEX
8
CUT
10
260.228
20
9.947
0
VERTEX
8
CUT
10
262.000
20
9.470
0
VERTEX
8
CUT
10
263.978
20
8.937
0
VERTEX
8
CUT
10
266.102
20
8.359
0
VERTEX
8
CUT
10
268.284
20
7.761
0
VERTEX
8
CUT
10
270.438
20
7.169
0
VERTEX
8
CUT
10
272.474
20
6.608
0
VERTEX
8
CUT
10
274.305
20
6.103
0
VERTEX
8
CUT
10
275.843
20
5.678
0
VERTEX
8
CUT
10
277.000
20
5.360
0
VERTEX
8
CUT
10
277.000
20
5.000
0
VERTEX
8
CUT
10
275.843
20
5.000
0
VERTEX
8
CUT
10
274.305
20
5.000
0
VERTEX
8
CUT
10
272.474
20
5.000
0
VERTEX
8
CUT
10
270.438
20
5.000
0
VERTEX
8
CUT
10
268.284
20
5.000
0
VERTEX
8
CUT
10
266.102
20
5.000
0
VERTEX
8
CUT
10
263.978
20
5.000
0
VERTEX
8
CUT
10
262.000
20
5.000
0
VERTEX
8
CUT
10
260.228
20
5.000
0
VERTEX
8
CUT
10
258.602
20
5.000
0
VERTEX
8
CUT
10
257.034
20
5.000
0
VERTEX
8
CUT
10
255.438
20
5.000
0
VERTEX
8
CUT
10
253.724
20
5.000
0
VERTEX
8
CUT
10
251.805
20
5.000
0
VERTEX
8
CUT
10
249.593
20
5.000
0
VERTEX
8
CUT
10
247.000
20
5.000
0
VERTEX
8
CUT
10
245.436
20
5.000
0
VERTEX
8
CUT
10
243.751
20
5.000
0
VERTEX
8
CUT
10
241.960
20
5.000
0
VERTEX
8
CUT
10
240.076
20
5.000
0
VERTEX
8
CUT
10
238.111
20
5.000
0
VERTEX
8
CUT
10
236.080
20
5.000
0
VERTEX
8
CUT
10
233.996
20
5.000
0
VERTEX
8
CUT
10
231.871
20
5.000
0
VERTEX
8
CUT
10
229.720
20
5.000
0
VERTEX
8
CUT
10
227.556
20
5.000
0
VERTEX
8
CUT
10
225.391
20
5.000
0
VERTEX
8
CUT
10
223.240
20
5.000
0
VERTEX
8
CUT
10
221.116
20
5.000
0
VERTEX
8
CUT
10
219.031
20
5.000
0
VERTEX
8
CUT
10
217.000
20
5.000
0
VERTEX
8
CUT
10
215.000
20
5.000
0
VERTEX
8
CUT
10
213.000
20
5.000
0
VERTEX
8
CUT
10
212.000
20
5.000
0
SEQEND
0
TEXT
8
POPIS
10
218.000
20
8.000
40
4.197
1
zebro-klapka-65
0
POLYLINE
8
CUT
66
1
70
1
0
VERTEX
8
CUT
10
281.000
20
21.786
0
VERTEX
8
CUT
10
282.250
20
21.507
0
VERTEX
8
CUT
10
284.125
20
21.085
0
VERTEX
8
CUT
10
286.000
20
20.660
0
VERTEX
8
CUT
10
287.902
20
20.224
0
VERTEX
8
CUT
10
289.853
20
19.771
0
VERTEX
8
CUT
10
291.839
20
19.305
0
VERTEX
8
CUT
10
293.852
20
18.828
0
VERTEX
8
CUT
10
295.879
20
18.344
0
VERTEX
8
CUT
10
297.909
20
17.855
0
VERTEX
8
CUT
10
299.932
20
17.365
0
VERTEX
8
CUT
10
301.938
20
16.876
0
VERTEX
8
CUT
10
303.913
20
16.393
0
VERTEX
8
CUT
10
305.849
20
15.917
0
VERTEX
8
CUT
10
307.733
20
15.452
0
VERTEX
8
CUT
10
309.555
20
15.001
0
VERTEX
8
CUT
10
311.303
20
14.568
0
VERTEX
8
CUT
10
312.968
20
14.154
0
VERTEX
8
CUT
10
314.537
20
13.764
0
VERTEX
8
CUT
10
316.000
20
13.400
0
VERTEX
8
CUT
10
318.593
20
12.751
0
VERTEX
8
CUT
10
320.805
20
12.188
0
VERTEX
8
CUT
10
322.724
20
11.690
0
VERTEX
8
CUT
10
324.438
20
11.238
0
VERTEX
8
CUT
10
326.034
20
10.811
0
VERTEX
8
CUT
10
327.602
20
10.387
0
VERTEX
8
CUT
10
329.228
20
9.947
0
VERTEX
8
CUT
10
331.000
20
9.470
0
VERTEX
8
CUT
10
332.978
20
8.937
0
VERTEX
8
CUT
10
335.102
20
8.359
0
VERTEX
8
CUT
10
337.284
20
7.761
0
VERTEX
8
CUT
10
339.438
20
7.169
0
VERTEX
8
CUT
10
341.474
20
6.608
0
VERTEX
8
CUT
10
343.305
20
6.103
0
VERTEX
8
CUT
10
344.843
20
5.678
0
VERTEX
8
CUT
10
346.000
20
5.360
0
VERTEX
8
CUT
10
346.000
20
5.000
0
VERTEX
8
CUT
10
344.843
20
5.000
0
VERTEX
8
CUT
10
343.305
20
5.000
0
VERTEX
8
CUT
10
341.474
20
5.000
0
VERTEX
8
CUT
10
339.438
20
5.000
0
VERTEX
8
CUT
10
337.284
20
5.000
0
VERTEX
8
CUT
10
335.102
20
5.000
0
VERTEX
8
CUT
10
332.978
20
5.000
0
VERTEX
8
CUT
10
331.000
20
5.000
0
VERTEX
8
CUT
10
329.228
20
5.000
0
VERTEX
8
CUT
10
327.602
20
5.000
0
VERTEX
8
CUT
10
326.034
20
5.000
0
VERTEX
8
CUT
10
324.438
20
5.000
0
VERTEX
8
CUT
10
322.724
20
5.000
0
VERTEX
8
CUT
10
320.805
20
5.000
0
VERTEX
8
CUT
10
318.593
20
5.000
0
VERTEX
8
CUT
10
316.000
20
5.000
0
VERTEX
8
CUT
10
314.436
20
5.000
0
VERTEX
8
CUT
10
312.751
20
5.000
0
VERTEX
8
CUT
10
310.960
20
5.000
0
VERTEX
8
CUT
10
309.076
20
5.000
0
VERTEX
8
CUT
10
307.111
20
5.000
0
VERTEX
8
CUT
10
305.080
20
5.000
0
VERTEX
8
CUT
10
302.996
20
5.000
0
VERTEX
8
CUT
10
300.871
20
5.000
0
VERTEX
8
CUT
10
298.720
20
5.000
0
VERTEX
8
CUT
10
296.556
20
5.000
0
VERTEX
8
CUT
10
294.391
20
5.000
0
VERTEX
8
CUT
10
292.240
20
5.000
0
VERTEX
8
CUT
10
290.116
20
5.000
0
VERTEX
8
CUT
10
288.031
20
5.000
0
VERTEX
8
CUT
10
286.000
20
5.000
0
VERTEX
8
CUT
10
284.000
20
5.000
0
VERTEX
8
CUT
10
282.000
20
5.000
0
VERTEX
8
CUT
10
281.000
20
5.000
0
SEQEND
0
TEXT
8
POPIS
10
287.000
20
8.000
40
4.197
1
zebro-klapka-65
0
POLYLINE
8
CUT
66
1
70
1
0
VERTEX
8
CUT
10
350.000
20
21.786
0
VERTEX
8
CUT
10
351.250
20
21.507
0
VERTEX
8
CUT
10
353.125
20
21.085
0
VERTEX
8
CUT
10
355.000
20
20.660
0
VERTEX
8
CUT
10
356.902
20
20.224
0
VERTEX
8
CUT
10
358.853
20
19.771
0
VERTEX
8
CUT
10
360.839
20
19.305
0
VERTEX
8
CUT
10
362.852
20
18.828
0
VERTEX
8
CUT
10
364.879
20
18.344
0
VERTEX
8
CUT
10
366.909
20
17.855
0
VERTEX
8
CUT
10
368.932
20
17.365
0
VERTEX
8
CUT
10
370.938
20
16.876
0
VERTEX
8
CUT
10
372.913
20
16.393
0
VERTEX
8
CUT
10
374.849
20
15.917
0
VERTEX
8
CUT
10
376.733
20
15.452
0
VERTEX
8
CUT
10
378.555
20
15.001
0
VERTEX
8
CUT
10
380.303
20
14.568
0
VERTEX
8
CUT
10
381.968
20
14.154
0
VERTEX
8
CUT
10
383.537
20
13.764
0
VERTEX
8
CUT
10
385.000
20
13.400
0
VERTEX
8
CUT
10
387.593
20
12.751
0
VERTEX
8
CUT
10
389.805
20
12.188
0
VERTEX
8
CUT
10
391.724
20
11.690
0
VERTEX
8
CUT
10
393.438
20
11.238
0
VERTEX
8
CUT
10
395.034
20
10.811
0
VERTEX
8
CUT
10
396.602
20
10.387
0
VERTEX
8
CUT
10
398.228
20
9.947
0
VERTEX
8
CUT
10
400.000
20
9.470
0
VERTEX
8
CUT
10
401.978
20
8.937
0
VERTEX
8
CUT
10
404.102
20
8.359
0
VERTEX
8
CUT
10
406.284
20
7.761
0
VERTEX
8
CUT
10
408.438
20
7.169
0
VERTEX
8
CUT
10
410.474
20
6.608
0
VERTEX
8
CUT
10
412.305
20
6.103
0
VERTEX
8
CUT
10
413.843
20
5.678
0
VERTEX
8
CUT
10
415.000
20
5.360
0
VERTEX
8
CUT
10
415.000
20
5.000
0
VERTEX
8
CUT
10
413.843
20
5.000
0
VERTEX
8
CUT
10
412.305
20
5.000
0
VERTEX
8
CUT
10
410.474
20
5.000
0
VERTEX
8
CUT
10
408.438
20
5.000
0
VERTEX
8
CUT
10
406.284
20
5.000
0
VERTEX
8
CUT
10
404.102
20
5.000
0
VERTEX
8
CUT
10
401.978
20
5.000
0
VERTEX
8
CUT
10
400.000
20
5.000
0
VERTEX
8
CUT
10
398.228
20
5.000
0
VERTEX
8
CUT
10
396.602
20
5.000
0
VERTEX
8
CUT
10
395.034
20
5.000
0
VERTEX
8
CUT
10
393.438
20
5.000
0
VERTEX
8
CUT
10
391.724
20
5.000
0
VERTEX
8
CUT
10
389.805
20
5.000
0
VERTEX
8
CUT
10
387.593
20
5.000
0
VERTEX
8
CUT
10
385.000
20
5.000
0
VERTEX
8
CUT
10
383.436
20
5.000
0
VERTEX
8
CUT
10
381.751
20
5.000
0
VERTEX
8
CUT
10
379.960
20
5.000
0
VERTEX
8
CUT
10
378.076
20
5.000
0
VERTEX
8
CUT
10
376.111
20
5.000
0
VERTEX
8
CUT
10
374.080
20
5.000
0
VERTEX
8
CUT
10
371.996
20
5.000
0
VERTEX
8
CUT
10
369.871
20
5.000
0
VERTEX
8
CUT
10
367.720
20
5.000
0
VERTEX
8
CUT
10
365.556
20
5.000
0
VERTEX
8
CUT
10
363.391
20
5.000
0
VERTEX
8
CUT
10
361.240
20
5.000
0
VERTEX
8
CUT
10
359.116
20
5.000
0
VERTEX
8
CUT
10
357.031
20
5.000
0
VERTEX
8
CUT
10
355.000
20
5.000
0
VERTEX
8
CUT
10
353.000
20
5.000
0
VERTEX
8
CUT
10
351.000
20
5.000
0
VERTEX
8
CUT
10
350.000
20
5.000
0
SEQEND
0
TEXT
8
POPIS
10
356.000
20
8.000
40
4.197
1
zebro-klapka-65
0
POLYLINE
8
CUT
66
1
70
1
0
VERTEX
8
CUT
10
419.000
20
21.786
0
VERTEX
8
CUT
10
420.250
20
21.507
0
VERTEX
8
CUT
10
422.125
20
21.085
0
VERTEX
8
CUT
10
424.000
20
20.660
0
VERTEX
8
CUT
10
425.902
20
20.224
0
VERTEX
8
CUT
10
427.853
20
19.771
0
VERTEX
8
CUT
10
429.839
20
19.305
0
VERTEX
8
CUT
10
431.852
20
18.828
0
VERTEX
8
CUT
10
433.879
20
18.344
0
VERTEX
8
CUT
10
435.909
20
17.855
0
VERTEX
8
CUT
10
437.932
20
17.365
0
VERTEX
8
CUT
10
439.938
20
16.876
0
VERTEX
8
CUT
10
441.913
20
16.393
0
VERTEX
8
CUT
10
443.849
20
15.917
0
VERTEX
8
CUT
10
445.733
20
15.452
0
VERTEX
8
CUT
10
447.555
20
15.001
0
VERTEX
8
CUT
10
449.303
20
14.568
0
VERTEX
8
CUT
10
450.968
20
14.154
0
VERTEX
8
CUT
10
452.537
20
13.764
0
VERTEX
8
CUT
10
454.000
20
13.400
0
VERTEX
8
CUT
10
456.593
20
12.751
0
VERTEX
8
CUT
10
458.805
20
12.188
0
VERTEX
8
CUT
10
460.724
20
11.690
0
VERTEX
8
CUT
10
462.438
20
11.238
0
VERTEX
8
CUT
10
464.034
20
10.811
0
VERTEX
8
CUT
10
465.602
20
10.387
0
VERTEX
8
CUT
10
467.228
20
9.947
0
VERTEX
8
CUT
10
469.000
20
9.470
0
VERTEX
8
CUT
10
470.978
20
8.937
0
VERTEX
8
CUT
10
473.102
20
8.359
0
VERTEX
8
CUT
10
475.284
20
7.761
0
VERTEX
8
CUT
10
477.438
20
7.169
0
VERTEX
8
CUT
10
479.474
20
6.608
0
VERTEX
8
CUT
10
481.305
20
6.103
0
VERTEX
8
CUT
10
482.843
20
5.678
0
VERTEX
8
CUT
10
484.000
20
5.360
0
VERTEX
8
CUT
10
484.000
20
5.000
0
VERTEX
8
CUT
10
482.843
20
5.000
0
VERTEX
8
CUT
10
481.305
20
5.000
0
VERTEX
8
CUT
10
479.474
20
5.000
0
VERTEX
8
CUT
10
477.438
20
5.000
0
VERTEX
8
CUT
10
475.284
20
5.000
0
VERTEX
8
CUT
10
473.102
20
5.000
0
VERTEX
8
CUT
10
470.978
20
5.000
0
VERTEX
8
CUT
10
469.000
20
5.000
0
VERTEX
8
CUT
10
467.228
20
5.000
0
VERTEX
8
CUT
10
465.602
20
5.000
0
VERTEX
8
CUT
10
464.034
20
5.000
0
VERTEX
8
CUT
10
462.438
20
5.000
0
VERTEX
8
CUT
10
460.724
20
5.000
0
VERTEX
8
CUT
10
458.805
20
5.000
0
VERTEX
8
CUT
10
456.593
20
5.000
0
VERTEX
8
CUT
10
454.000
20
5.000
0
VERTEX
8
CUT
10
452.436
20
5.000
0
VERTEX
8
CUT
10
450.751
20
5.000
0
VERTEX
8
CUT
10
448.960
20
5.000
0
VERTEX
8
CUT
10
447.076
20
5.000
0
VERTEX
8
CUT
10
445.111
20
5.000
0
VERTEX
8
CUT
10
443.080
20
5.000
0
VERTEX
8
CUT
10
440.996
20
5.000
0
VERTEX
8
CUT
10
438.871
20
5.000
0
VERTEX
8
CUT
10
436.720
20
5.000
0
VERTEX
8
CUT
10
434.556
20
5.000
0
VERTEX
8
CUT
10
432.391
20
5.000
0
VERTEX
8
CUT
10
430.240
20
5.000
0
VERTEX
8
CUT
10
428.116
20
5.000
0
VERTEX
8
CUT
10
426.031
20
5.000
0
VERTEX
8
CUT
10
424.000
20
5.000
0
VERTEX
8
CUT
10
422.000
20
5.000
0
VERTEX
8
CUT
10
420.000
20
5.000
0
VERTEX
8
CUT
10
419.000
20
5.000
0
SEQEND
0
TEXT
8
POPIS
10
425.000
20
8.000
40
4.197
1
zebro-klapka-65
0
POLYLINE
8
CUT
66
1
70
1
0
VERTEX
8
CUT
10
488.000
20
21.786
0
VERTEX
8
CUT
10
489.250
20
21.507
0
VERTEX
8
CUT
10
491.125
20
21.085
0
VERTEX
8
CUT
10
493.000
20
20.660
0
VERTEX
8
CUT
10
494.902
20
20.224
0
VERTEX
8
CUT
10
496.853
20
19.771
0
VERTEX
8
CUT
10
498.839
20
19.305
0
VERTEX
8
CUT
10
500.852
20
18.828
0
VERTEX
8
CUT
10
502.879
20
18.344
0
VERTEX
8
CUT
10
504.909
20
17.855
0
VERTEX
8
CUT
10
506.932
20
17.365
0
VERTEX
8
CUT
10
508.938
20
16.876
0
VERTEX
8
CUT
10
510.913
20
16.393
0
VERTEX
8
CUT
10
512.849
20
15.917
0
VERTEX
8
CUT
10
514.733
20
15.452
0
VERTEX
8
CUT
10
516.555
20
15.001
0
VERTEX
8
CUT
10
518.303
20
14.568
0
VERTEX
8
CUT
10
519.968
20
14.154
0
VERTEX
8
CUT
10
521.537
20
13.764
0
VERTEX
8
CUT
10
523.000
20
13.400
0
VERTEX
8
CUT
10
525.593
20
12.751
0
VERTEX
8
CUT
10
527.805
20
12.188
0
VERTEX
8
CUT
10
529.724
20
11.690
0
VERTEX
8
CUT
10
531.438
20
11.238
0
VERTEX
8
CUT
10
533.034
20
10.811
0
VERTEX
8
CUT
10
534.602
20
10.387
0
VERTEX
8
CUT
10
536.228
20
9.947
0
VERTEX
8
CUT
10
538.000
20
9.470
0
VERTEX
8
CUT
10
539.978
20
8.937
0
VERTEX
8
CUT
10
542.102
20
8.359
0
VERTEX
8
CUT
10
544.284
20
7.761
0
VERTEX
8
CUT
10
546.438
20
7.169
0
VERTEX
8
CUT
10
548.474
20
6.608
0
VERTEX
8
CUT
10
550.305
20
6.103
0
VERTEX
8
CUT
10
551.843
20
5.678
0
VERTEX
8
CUT
10
553.000
20
5.360
0
VERTEX
8
CUT
10
553.000
20
5.000
0
VERTEX
8
CUT
10
551.843
20
5.000
0
VERTEX
8
CUT
10
550.305
20
5.000
0
VERTEX
8
CUT
10
548.474
20
5.000
0
VERTEX
8
CUT
10
546.438
20
5.000
0
VERTEX
8
CUT
10
544.284
20
5.000
0
VERTEX
8
CUT
10
542.102
20
5.000
0
VERTEX
8
CUT
10
539.978
20
5.000
0
VERTEX
8
CUT
10
538.000
20
5.000
0
VERTEX
8
CUT
10
536.228
20
5.000
0
VERTEX
8
CUT
10
534.602
20
5.000
0
VERTEX
8
CUT
10
533.034
20
5.000
0
VERTEX
8
CUT
10
531.438
20
5.000
0
VERTEX
8
CUT
10
529.724
20
5.000
0
VERTEX
8
CUT
10
527.805
20
5.000
0
VERTEX
8
CUT
10
525.593
20
5.000
0
VERTEX
8
CUT
10
523.000
20
5.000
0
VERTEX
8
CUT
10
521.436
20
5.000
0
VERTEX
8
CUT
10
519.751
20
5.000
0
VERTEX
8
CUT
10
517.960
20
5.000
0
VERTEX
8
CUT
10
516.076
20
5.000
0
VERTEX
8
CUT
10
514.111
20
5.000
0
VERTEX
8
CUT
10
512.080
20
5.000
0
VERTEX
8
CUT
10
509.996
20
5.000
0
VERTEX
8
CUT
10
507.871
20
5.000
0
VERTEX
8
CUT
10
505.720
20
5.000
0
VERTEX
8
CUT
10
503.556
20
5.000
0
VERTEX
8
CUT
10
501.391
20
5.000
0
VERTEX
8
CUT
10
499.240
20
5.000
0
VERTEX
8
CUT
10
497.116
20
5.000
0
VERTEX
8
CUT
10
495.031
20
5.000
0
VERTEX
8
CUT
10
493.000
20
5.000
0
VERTEX
8
CUT
10
491.000
20
5.000
0
VERTEX
8
CUT
10
489.000
20
5.000
0
VERTEX
8
CUT
10
488.000
20
5.000
0
SEQEND
0
TEXT
8
POPIS
10
494.000
20
8.000
40
4.197
1
zebro-klapka-65
0
POLYLINE
8
CUT
66
1
70
1
0
VERTEX
8
CUT
10
557.000
20
21.786
0
VERTEX
8
CUT
10
558.250
20
21.507
0
VERTEX
8
CUT
10
560.125
20
21.085
0
VERTEX
8
CUT
10
562.000
20
20.660
0
VERTEX
8
CUT
10
563.902
20
20.224
0
VERTEX
8
CUT
10
565.853
20
19.771
0
VERTEX
8
CUT
10
567.839
20
19.305
0
VERTEX
8
CUT
10
569.852
20
18.828
0
VERTEX
8
CUT
10
571.879
20
18.344
0
VERTEX
8
CUT
10
573.909
20
17.855
0
VERTEX
8
CUT
10
575.932
20
17.365
0
VERTEX
8
CUT
10
577.938
20
16.876
0
VERTEX
8
CUT
10
579.913
20
16.393
0
VERTEX
8
CUT
10
581.849
20
15.917
0
VERTEX
8
CUT
10
583.733
20
15.452
0
VERTEX
8
CUT
10
585.555
20
15.001
0
VERTEX
8
CUT
10
587.303
20
14.568
0
VERTEX
8
CUT
10
588.968
20
14.154
0
VERTEX
8
CUT
10
590.537
20
13.764
0
VERTEX
8
CUT
10
592.000
20
13.400
0
VERTEX
8
CUT
10
594.593
20
12.751
0
VERTEX
8
CUT
10
596.805
20
12.188
0
VERTEX
8
CUT
10
598.724
20
11.690
0
VERTEX
8
CUT
10
600.438
20
11.238
0
VERTEX
8
CUT
10
602.034
20
10.811
0
VERTEX
8
CUT
10
603.602
20
10.387
0
VERTEX
8
CUT
10
605.228
20
9.947
0
VERTEX
8
CUT
10
607.000
20
9.470
0
VERTEX
8
CUT
10
608.978
20
8.937
0
VERTEX
8
CUT
10
611.102
20
8.359
0
VERTEX
8
CUT
10
613.284
20
7.761
0
VERTEX
8
CUT
10
615.438
20
7.169
0
VERTEX
8
CUT
10
617.474
20
6.608
0
VERTEX
8
CUT
10
619.305
20
6.103
0
VERTEX
8
CUT
10
620.843
20
5.678
0
VERTEX
8
CUT
10
622.000
20
5.360
0
VERTEX
8
CUT
10
622.000
20
5.000
0
VERTEX
8
CUT
10
620.843
20
5.000
0
VERTEX
8
CUT
10
619.305
20
5.000
0
VERTEX
8
CUT
10
617.474
20
5.000
0
VERTEX
8
CUT
10
615.438
20
5.000
0
VERTEX
8
CUT
10
613.284
20
5.000
0
VERTEX
8
CUT
10
611.102
20
5.000
0
VERTEX
8
CUT
10
608.978
20
5.000
0
VERTEX
8
CUT
10
607.000
20
5.000
0
VERTEX
8
CUT
10
605.228
20
5.000
0
VERTEX
8
CUT
10
603.602
20
5.000
0
VERTEX
8
CUT
10
602.034
20
5.000
0
VERTEX
8
CUT
10
600.438
20
5.000
0
VERTEX
8
CUT
10
598.724
20
5.000
0
VERTEX
8
CUT
10
596.805
20
5.000
0
VERTEX
8
CUT
10
594.593
20
5.000
0
VERTEX
8
CUT
10
592.000
20
5.000
0
VERTEX
8
CUT
10
590.436
20
5.000
0
VERTEX
8
CUT
10
588.751
20
5.000
0
VERTEX
8
CUT
10
586.960
20
5.000
0
VERTEX
8
CUT
10
585.076
20
5.000
0
VERTEX
8
CUT
10
583.111
20
5.000
0
VERTEX
8
CUT
10
581.080
20
5.000
0
VERTEX
8
CUT
10
578.996
20
5.000
0
VERTEX
8
CUT
10
576.871
20
5.000
0
VERTEX
8
CUT
10
574.720
20
5.000
0
VERTEX
8
CUT
10
572.556
20
5.000
0
VERTEX
8
CUT
10
570.391
20
5.000
0
VERTEX
8
CUT
10
568.240
20
5.000
0
VERTEX
8
CUT
10
566.116
20
5.000
0
VERTEX
8
CUT
10
564.031
20
5.000
0
VERTEX
8
CUT
10
562.000
20
5.000
0
VERTEX
8
CUT
10
560.000
20
5.000
0
VERTEX
8
CUT
10
558.000
20
5.000
0
VERTEX
8
CUT
10
557.000
20
5.000
0
SEQEND
0
TEXT
8
POPIS
10
563.000
20
8.000
40
4.197
1
zebro-klapka-65
0
POLYLINE
8
CUT
66
1
70
1
0
VERTEX
8
CUT
10
626.000
20
21.786
0
VERTEX
8
CUT
10
627.250
20
21.507
0
VERTEX
8
CUT
10
629.125
20
21.085
0
VERTEX
8
CUT
10
631.000
20
20.660
0
VERTEX
8
CUT
10
632.902
20
20.224
0
VERTEX
8
CUT
10
634.853
20
19.771
0
VERTEX
8
CUT
10
636.839
20
19.305
0
VERTEX
8
CUT
10
638.852
20
18.828
0
VERTEX
8
CUT
10
640.879
20
18.344
0
VERTEX
8
CUT
10
642.909
20
17.855
0
VERTEX
8
CUT
10
644.932
20
17.365
0
VERTEX
8
CUT
10
646.938
20
16.876
0
VERTEX
8
CUT
10
648.913
20
16.393
0
VERTEX
8
CUT
10
650.849
20
15.917
0
VERTEX
8
CUT
10
652.733
20
15.452
0
VERTEX
8
CUT
10
654.555
20
15.001
0
VERTEX
8
CUT
10
656.303
20
14.568
0
VERTEX
8
CUT
10
657.968
20
14.154
0
VERTEX
8
CUT
10
659.537
20
13.764
0
VERTEX
8
CUT
10
661.000
20
13.400
0
VERTEX
8
CUT
10
663.593
20
12.751
0
VERTEX
8
CUT
10
665.805
20
12.188
0
VERTEX
8
CUT
10
667.724
20
11.690
0
VERTEX
8
CUT
10
669.438
20
11.238
0
VERTEX
8
CUT
10
671.034
20
10.811
0
VERTEX
8
CUT
10
672.602
20
10.387
0
VERTEX
8
CUT
10
674.228
20
9.947
0
VERTEX
8
CUT
10
676.000
20
9.470
0
VERTEX
8
CUT
10
677.978
20
8.937
0
VERTEX
8
CUT
10
680.102
20
8.359
0
VERTEX
8
CUT
10
682.284
20
7.761
0
VERTEX
8
CUT
10
684.438
20
7.169
0
VERTEX
8
CUT
10
686.474
20
6.608
0
VERTEX
8
CUT
10
688.305
20
6.103
0
VERTEX
8
CUT
10
689.843
20
5.678
0
VERTEX
8
CUT
10
691.000
20
5.360
0
VERTEX
8
CUT
10
691.000
20
5.000
0
VERTEX
8
CUT
10
689.843
20
5.000
0
VERTEX
8
CUT
10
688.305
20
5.000
0
VERTEX
8
CUT
10
686.474
20
5.000
0
VERTEX
8
CUT
10
684.438
20
5.000
0
VERTEX
8
CUT
10
682.284
20
5.000
0
VERTEX
8
CUT
10
680.102
20
5.000
0
VERTEX
8
CUT
10
677.978
20
5.000
0
VERTEX
8
CUT
10
676.000
20
5.000
0
VERTEX
8
CUT
10
674.228
20
5.000
0
VERTEX
8
CUT
10
672.602
20
5.000
0
VERTEX
8
CUT
10
671.034
20
5.000
0
VERTEX
8
CUT
10
669.438
20
5.000
0
VERTEX
8
CUT
10
667.724
20
5.000
0
VERTEX
8
CUT
10
665.805
20
5.000
0
VERTEX
8
CUT
10
663.593
20
5.000
0
VERTEX
8
CUT
10
661.000
20
5.000
0
VERTEX
8
CUT
10
659.436
20
5.000
0
VERTEX
8
CUT
10
657.751
20
5.000
0
VERTEX
8
CUT
10
655.960
20
5.000
0
VERTEX
8
CUT
10
654.076
20
5.000
0
VERTEX
8
CUT
10
652.111
20
5.000
0
VERTEX
8
CUT
10
650.080
20
5.000
0
VERTEX
8
CUT
10
647.996
20
5.000
0
VERTEX
8
CUT
10
645.871
20
5.000
0
VERTEX
8
CUT
10
643.720
20
5.000
0
VERTEX
8
CUT
10
641.556
20
5.000
0
VERTEX
8
CUT
10
639.391
20
5.000
0
VERTEX
8
CUT
10
637.240
20
5.000
0
VERTEX
8
CUT
10
635.116
20
5.000
0
VERTEX
8
CUT
10
633.031
20
5.000
0
VERTEX
8
CUT
10
631.000
20
5.000
0
VERTEX
8
CUT
10
629.000
20
5.000
0
VERTEX
8
CUT
10
627.000
20
5.000
0
VERTEX
8
CUT
10
626.000
20
5.000
0
SEQEND
0
TEXT
8
POPIS
10
632.000
20
8.000
40
4.197
1
zebro-klapka-65
0
POLYLINE
8
CUT
66
1
70
1
0
VERTEX
8
CUT
10
695.000
20
21.786
0
VERTEX
8
CUT
10
696.250
20
21.507
0
VERTEX
8
CUT
10
698.125
20
21.085
0
VERTEX
8
CUT
10
700.000
20
20.660
0
VERTEX
8
CUT
10
701.902
20
20.224
0
VERTEX
8
CUT
10
703.853
20
19.771
0
VERTEX
8
CUT
10
705.839
20
19.305
0
VERTEX
8
CUT
10
707.852
20
18.828
0
VERTEX
8
CUT
10
709.879
20
18.344
0
VERTEX
8
CUT
10
711.909
20
17.855
0
VERTEX
8
CUT
10
713.932
20
17.365
0
VERTEX
8
CUT
10
715.938
20
16.876
0
VERTEX
8
CUT
10
717.913
20
16.393
0
VERTEX
8
CUT
10
719.849
20
15.917
0
VERTEX
8
CUT
10
721.733
20
15.452
0
VERTEX
8
CUT
10
723.555
20
15.001
0
VERTEX
8
CUT
10
725.303
20
14.568
0
VERTEX
8
CUT
10
726.968
20
14.154
0
VERTEX
8
CUT
10
728.537
20
13.764
0
VERTEX
8
CUT
10
730.000
20
13.400
0
VERTEX
8
CUT
10
732.593
20
12.751
0
VERTEX
8
CUT
10
734.805
20
12.188
0
VERTEX
8
CUT
10
736.724
20
11.690
0
VERTEX
8
CUT
10
738.438
20
11.238
0
VERTEX
8
CUT
10
740.034
20
10.811
0
VERTEX
8
CUT
10
741.602
20
10.387
0
VERTEX
8
CUT
10
743.228
20
9.947
0
VERTEX
8
CUT
10
745.000
20
9.470
0
VERTEX
8
CUT
10
746.978
20
8.937
0
VERTEX
8
CUT
10
749.102
20
8.359
0
VERTEX
8
CUT
10
751.284
20
7.761
0
VERTEX
8
CUT
10
753.438
20
7.169
0
VERTEX
8
CUT
10
755.474
20
6.608
0
VERTEX
8
CUT
10
757.305
20
6.103
0
VERTEX
8
CUT
10
758.843
20
5.678
0
VERTEX
8
CUT
10
760.000
20
5.360
0
VERTEX
8
CUT
10
760.000
20
5.000
0
VERTEX
8
CUT
10
758.843
20
5.000
0
VERTEX
8
CUT
10
757.305
20
5.000
0
VERTEX
8
CUT
10
755.474
20
5.000
0
VERTEX
8
CUT
10
753.438
20
5.000
0
VERTEX
8
CUT
10
751.284
20
5.000
0
VERTEX
8
CUT
10
749.102
20
5.000
0
VERTEX
8
CUT
10
746.978
20
5.000
0
VERTEX
8
CUT
10
745.000
20
5.000
0
VERTEX
8
CUT
10
743.228
20
5.000
0
VERTEX
8
CUT
10
741.602
20
5.000
0
VERTEX
8
CUT
10
740.034
20
5.000
0
VERTEX
8
CUT
10
738.438
20
5.000
0
VERTEX
8
CUT
10
736.724
20
5.000
0
VERTEX
8
CUT
10
734.805
20
5.000
0
VERTEX
8
CUT
10
732.593
20
5.000
0
VERTEX
8
CUT
10
730.000
20
5.000
0
VERTEX
8
CUT
10
728.436
20
5.000
0
VERTEX
8
CUT
10
726.751
20
5.000
0
VERTEX
8
CUT
10
724.960
20
5.000
0
VERTEX
8
CUT
10
723.076
20
5.000
0
VERTEX
8
CUT
10
721.111
20
5.000
0
VERTEX
8
CUT
10
719.080
20
5.000
0
VERTEX
8
CUT
10
716.996
20
5.000
0
VERTEX
8
CUT
10
714.871
20
5.000
0
VERTEX
8
CUT
10
712.720
20
5.000
0
VERTEX
8
CUT
10
710.556
20
5.000
0
VERTEX
8
CUT
10
708.391
20
5.000
0
VERTEX
8
CUT
10
706.240
20
5.000
0
VERTEX
8
CUT
10
704.116
20
5.000
0
VERTEX
8
CUT
10
702.031
20
5.000
0
VERTEX
8
CUT
10
700.000
20
5.000
0
VERTEX
8
CUT
10
698.000
20
5.000
0
VERTEX
8
CUT
10
696.000
20
5.000
0
VERTEX
8
CUT
10
695.000
20
5.000
0
SEQEND
0
TEXT
8
POPIS
10
701.000
20
8.000
40
4.197
1
zebro-klapka-65
0
POLYLINE
8
CUT
66
1
70
1
0
VERTEX
8
CUT
10
764.000
20
21.786
0
VERTEX
8
CUT
10
765.250
20
21.507
0
VERTEX
8
CUT
10
767.125
20
21.085
0
VERTEX
8
CUT
10
769.000
20
20.660
0
VERTEX
8
CUT
10
770.902
20
20.224
0
VERTEX
8
CUT
10
772.853
20
19.771
0
VERTEX
8
CUT
10
774.839
20
19.305
0
VERTEX
8
CUT
10
776.852
20
18.828
0
VERTEX
8
CUT
10
778.879
20
18.344
0
VERTEX
8
CUT
10
780.909
20
17.855
0
VERTEX
8
CUT
10
782.932
20
17.365
0
VERTEX
8
CUT
10
784.938
20
16.876
0
VERTEX
8
CUT
10
786.913
20
16.393
0
VERTEX
8
CUT
10
788.849
20
15.917
0
VERTEX
8
CUT
10
790.733
20
15.452
0
VERTEX
8
CUT
10
792.555
20
15.001
0
VERTEX
8
CUT
10
794.303
20
14.568
0
VERTEX
8
CUT
10
795.968
20
14.154
0
VERTEX
8
CUT
10
797.537
20
13.764
0
VERTEX
8
CUT
10
799.000
20
13.400
0
VERTEX
8
CUT
10
801.593
20
12.751
0
VERTEX
8
CUT
10
803.805
20
12.188
0
VERTEX
8
CUT
10
805.724
20
11.690
0
VERTEX
8
CUT
10
807.438
20
11.238
0
VERTEX
8
CUT
10
809.034
20
10.811
0
VERTEX
8
CUT
10
810.602
20
10.387
0
VERTEX
8
CUT
10
812.228
20
9.947
0
VERTEX
8
CUT
10
814.000
20
9.470
0
VERTEX
8
CUT
10
815.978
20
8.937
0
VERTEX
8
CUT
10
818.102
20
8.359
0
VERTEX
8
CUT
10
820.284
20
7.761
0
VERTEX
8
CUT
10
822.438
20
7.169
0
VERTEX
8
CUT
10
824.474
20
6.608
0
VERTEX
8
CUT
10
826.305
20
6.103
0
VERTEX
8
CUT
10
827.843
20
5.678
0
VERTEX
8
CUT
10
829.000
20
5.360
0
VERTEX
8
CUT
10
829.000
20
5.000
0
VERTEX
8
CUT
10
827.843
20
5.000
0
VERTEX
8
CUT
10
826.305
20
5.000
0
VERTEX
8
CUT
10
824.474
20
5.000
0
VERTEX
8
CUT
10
822.438
20
5.000
0
VERTEX
8
CUT
10
820.284
20
5.000
0
VERTEX
8
CUT
10
818.102
20
5.000
0
VERTEX
8
CUT
10
815.978
20
5.000
0
VERTEX
8
CUT
10
814.000
20
5.000
0
VERTEX
8
CUT
10
812.228
20
5.000
0
VERTEX
8
CUT
10
810.602
20
5.000
0
VERTEX
8
CUT
10
809.034
20
5.000
0
VERTEX
8
CUT
10
807.438
20
5.000
0
VERTEX
8
CUT
10
805.724
20
5.000
0
VERTEX
8
CUT
10
803.805
20
5.000
0
VERTEX
8
CUT
10
801.593
20
5.000
0
VERTEX
8
CUT
10
799.000
20
5.000
0
VERTEX
8
CUT
10
797.436
20
5.000
0
VERTEX
8
CUT
10
795.751
20
5.000
0
VERTEX
8
CUT
10
793.960
20
5.000
0
VERTEX
8
CUT
10
792.076
20
5.000
0
VERTEX
8
CUT
10
790.111
20
5.000
0
VERTEX
8
CUT
10
788.080
20
5.000
0
VERTEX
8
CUT
10
785.996
20
5.000
0
VERTEX
8
CUT
10
783.871
20
5.000
0
VERTEX
8
CUT
10
781.720
20
5.000
0
VERTEX
8
CUT
10
779.556
20
5.000
0
VERTEX
8
CUT
10
777.391
20
5.000
0
VERTEX
8
CUT
10
775.240
20
5.000
0
VERTEX
8
CUT
10
773.116
20
5.000
0
VERTEX
8
CUT
10
771.031
20
5.000
0
VERTEX
8
CUT
10
769.000
20
5.000
0
VERTEX
8
CUT
10
767.000
20
5.000
0
VERTEX
8
CUT
10
765.000
20
5.000
0
VERTEX
8
CUT
10
764.000
20
5.000
0
SEQEND
0
TEXT
8
POPIS
10
770.000
20
8.000
40
4.197
1
zebro-klapka-65
0
POLYLINE
8
CUT
66
1
70
1
0
VERTEX
8
CUT
10
833.000
20
21.786
0
VERTEX
8
CUT
10
834.250
20
21.507
0
VERTEX
8
CUT
10
836.125
20
21.085
0
VERTEX
8
CUT
10
838.000
20
20.660
0
VERTEX
8
CUT
10
839.902
20
20.224
0
VERTEX
8
CUT
10
841.853
20
19.771
0
VERTEX
8
CUT
10
843.839
20
19.305
0
VERTEX
8
CUT
10
845.852
20
18.828
0
VERTEX
8
CUT
10
847.879
20
18.344
0
VERTEX
8
CUT
10
849.909
20
17.855
0
VERTEX
8
CUT
10
851.932
20
17.365
0
VERTEX
8
CUT
10
853.938
20
16.876
0
VERTEX
8
CUT
10
855.913
20
16.393
0
VERTEX
8
CUT
10
857.849
20
15.917
0
VERTEX
8
CUT
10
859.733
20
15.452
0
VERTEX
8
CUT
10
861.555
20
15.001
0
VERTEX
8
CUT
10
863.303
20
14.568
0
VERTEX
8
CUT
10
864.968
20
14.154
0
VERTEX
8
CUT
10
866.537
20
13.764
0
VERTEX
8
CUT
10
868.000
20
13.400
0
VERTEX
8
CUT
10
870.593
20
12.751
0
VERTEX
8
CUT
10
872.805
20
12.188
0
VERTEX
8
CUT
10
874.724
20
11.690
0
VERTEX
8
CUT
10
876.438
20
11.238
0
VERTEX
8
CUT
10
878.034
20
10.811
0
VERTEX
8
CUT
10
879.602
20
10.387
0
VERTEX
8
CUT
10
881.228
20
9.947
0
VERTEX
8
CUT
10
883.000
20
9.470
0
VERTEX
8
CUT
10
884.978
20
8.937
0
VERTEX
8
CUT
10
887.102
20
8.359
0
VERTEX
8
CUT
10
889.284
20
7.761
0
VERTEX
8
CUT
10
891.438
20
7.169
0
VERTEX
8
CUT
10
893.474
20
6.608
0
VERTEX
8
CUT
10
895.305
20
6.103
0
VERTEX
8
CUT
10
896.843
20
5.678
0
VERTEX
8
CUT
10
898.000
20
5.360
0
VERTEX
8
CUT
10
898.000
20
5.000
0
VERTEX
8
CUT
10
896.843
20
5.000
0
VERTEX
8
CUT
10
895.305
20
5.000
0
VERTEX
8
CUT
10
893.474
20
5.000
0
VERTEX
8
CUT
10
891.438
20
5.000
0
VERTEX
8
CUT
10
889.284
20
5.000
0
VERTEX
8
CUT
10
887.102
20
5.000
0
VERTEX
8
CUT
10
884.978
20
5.000
0
VERTEX
8
CUT
10
883.000
20
5.000
0
VERTEX
8
CUT
10
881.228
20
5.000
0
VERTEX
8
CUT
10
879.602
20
5.000
0
VERTEX
8
CUT
10
878.034
20
5.000
0
VERTEX
8
CUT
10
876.438
20
5.000
0
VERTEX
8
CUT
10
874.724
20
5.000
0
VERTEX
8
CUT
10
872.805
20
5.000
0
VERTEX
8
CUT
10
870.593
20
5.000
0
VERTEX
8
CUT
10
868.000
20
5.000
0
VERTEX
8
CUT
10
866.436
20
5.000
0
VERTEX
8
CUT
10
864.751
20
5.000
0
VERTEX
8
CUT
10
862.960
20
5.000
0
VERTEX
8
CUT
10
861.076
20
5.000
0
VERTEX
8
CUT
10
859.111
20
5.000
0
VERTEX
8
CUT
10
857.080
20
5.000
0
VERTEX
8
CUT
10
854.996
20
5.000
0
VERTEX
8
CUT
10
852.871
20
5.000
0
VERTEX
8
CUT
10
850.720
20
5.000
0
VERTEX
8
CUT
10
848.556
20
5.000
0
VERTEX
8
CUT
10
846.391
20
5.000
0
VERTEX
8
CUT
10
844.240
20
5.000
0
VERTEX
8
CUT
10
842.116
20
5.000
0
VERTEX
8
CUT
10
840.031
20
5.000
0
VERTEX
8
CUT
10
838.000
20
5.000
0
VERTEX
8
CUT
10
836.000
20
5.000
0
VERTEX
8
CUT
10
834.000
20
5.000
0
VERTEX
8
CUT
10
833.000
20
5.000
0
SEQEND
0
TEXT
8
POPIS
10
839.000
20
8.000
40
4.197
1
zebro-klapka-65
0
POLYLINE
8
CUT
66
1
70
1
0
VERTEX
8
CUT
10
902.000
20
21.786
0
VERTEX
8
CUT
10
903.250
20
21.507
0
VERTEX
8
CUT
10
905.125
20
21.085
0
VERTEX
8
CUT
10
907.000
20
20.660
0
VERTEX
8
CUT
10
908.902
20
20.224
0
VERTEX
8
CUT
10
910.853
20
19.771
0
VERTEX
8
CUT
10
912.839
20
19.305
0
VERTEX
8
CUT
10
914.852
20
18.828
0
VERTEX
8
CUT
10
916.879
20
18.344
0
VERTEX
8
CUT
10
918.909
20
17.855
0
VERTEX
8
CUT
10
920.932
20
17.365
0
VERTEX
8
CUT
10
922.938
20
16.876
0
VERTEX
8
CUT
10
924.913
20
16.393
0
VERTEX
8
CUT
10
926.849
20
15.917
0
VERTEX
8
CUT
10
928.733
20
15.452
0
VERTEX
8
CUT
10
930.555
20
15.001
0
VERTEX
8
CUT
10
932.303
20
14.568
0
VERTEX
8
CUT
10
933.968
20
14.154
0
VERTEX
8
CUT
10
935.537
20
13.764
0
VERTEX
8
CUT
10
937.000
20
13.400
0
VERTEX
8
CUT
10
939.593
20
12.751
0
VERTEX
8
CUT
10
941.805
20
12.188
0
VERTEX
8
CUT
10
943.724
20
11.690
0
VERTEX
8
CUT
10
945.438
20
11.238
0
VERTEX
8
CUT
10
947.034
20
10.811
0
VERTEX
8
CUT
10
948.602
20
10.387
0
VERTEX
8
CUT
10
950.228
20
9.947
0
VERTEX
8
CUT
10
952.000
20
9.470
0
VERTEX
8
CUT
10
953.978
20
8.937
0
VERTEX
8
CUT
10
956.102
20
8.359
0
VERTEX
8
CUT
10
958.284
20
7.761
0
VERTEX
8
CUT
10
960.438
20
7.169
0
VERTEX
8
CUT
10
962.474
20
6.608
0
VERTEX
8
CUT
10
964.305
20
6.103
0
VERTEX
8
CUT
10
965.843
20
5.678
0
VERTEX
8
CUT
10
967.000
20
5.360
0
VERTEX
8
CUT
10
967.000
20
5.000
0
VERTEX
8
CUT
10
965.843
20
5.000
0
VERTEX
8
CUT
10
964.305
20
5.000
0
VERTEX
8
CUT
10
962.474
20
5.000
0
VERTEX
8
CUT
10
960.438
20
5.000
0
VERTEX
8
CUT
10
958.284
20
5.000
0
VERTEX
8
CUT
10
956.102
20
5.000
0
VERTEX
8
CUT
10
953.978
20
5.000
0
VERTEX
8
CUT
10
952.000
20
5.000
0
VERTEX
8
CUT
10
950.228
20
5.000
0
VERTEX
8
CUT
10
948.602
20
5.000
0
VERTEX
8
CUT
10
947.034
20
5.000
0
VERTEX
8
CUT
10
945.438
20
5.000
0
VERTEX
8
CUT
10
943.724
20
5.000
0
VERTEX
8
CUT
10
941.805
20
5.000
0
VERTEX
8
CUT
10
939.593
20
5.000
0
VERTEX
8
CUT
10
937.000
20
5.000
0
VERTEX
8
CUT
10
935.436
20
5.000
0
VERTEX
8
CUT
10
933.751
20
5.000
0
VERTEX
8
CUT
10
931.960
20
5.000
0
VERTEX
8
CUT
10
930.076
20
5.000
0
VERTEX
8
CUT
10
928.111
20
5.000
0
VERTEX
8
CUT
10
926.080
20
5.000
0
VERTEX
8
CUT
10
923.996
20
5.000
0
VERTEX
8
CUT
10
921.871
20
5.000
0
VERTEX
8
CUT
10
919.720
20
5.000
0
VERTEX
8
CUT
10
917.556
20
5.000
0
VERTEX
8
CUT
10
915.391
20
5.000
0
VERTEX
8
CUT
10
913.240
20
5.000
0
VERTEX
8
CUT
10
911.116
20
5.000
0
VERTEX
8
CUT
10
909.031
20
5.000
0
VERTEX
8
CUT
10
907.000
20
5.000
0
VERTEX
8
CUT
10
905.000
20
5.000
0
VERTEX
8
CUT
10
903.000
20
5.000
0
VERTEX
8
CUT
10
902.000
20
5.000
0
SEQEND
0
TEXT
8
POPIS
10
908.000
20
8.000
40
4.197
1
zebro-klapka-65
0
POLYLINE
8
CUT
66
1
70
1
0
VERTEX
8
CUT
10
5.000
20
42.573
0
VERTEX
8
CUT
10
6.250
20
42.294
0
VERTEX
8
CUT
10
8.125
20
41.872
0
VERTEX
8
CUT
10
10.000
20
41.446
0
VERTEX
8
CUT
10
11.902
20
41.011
0
VERTEX
8
CUT
10
13.853
20
40.558
0
VERTEX
8
CUT
10
15.839
20
40.091
0
VERTEX
8
CUT
10
17.852
20
39.615
0
VERTEX
8
CUT
10
19.879
20
39.130
0
VERTEX
8
CUT
10
21.909
20
38.641
0
VERTEX
8
CUT
10
23.932
20
38.151
0
VERTEX
8
CUT
10
25.938
20
37.663
0
VERTEX
8
CUT
10
27.913
20
37.179
0
VERTEX
8
CUT
10
29.849
20
36.703
0
VERTEX
8
CUT
10
31.733
20
36.238
0
VERTEX
8
CUT
10
33.555
20
35.788
0
VERTEX
8
CUT
10
35.303
20
35.354
0
VERTEX
8
CUT
10
36.968
20
34.941
0
VERTEX
8
CUT
10
38.537
20
34.550
0
VERTEX
8
CUT
10
40.000
20
34.186
0
VERTEX
8
CUT
10
42.593
20
33.537
0
VERTEX
8
CUT
10
44.805
20
32.974
0
VERTEX
8
CUT
10
46.724
20
32.477
0
VERTEX
8
CUT
10
48.438
20
32.025
0
VERTEX
8
CUT
10
50.034
20
31.597
0
VERTEX
8
CUT
10
51.602
20
31.174
0
VERTEX
8
CUT
10
53.228
20
30.734
0
VERTEX
8
CUT
10
55.000
20
30.256
0
VERTEX
8
CUT
10
56.978
20
29.723
0
VERTEX
8
CUT
10
59.102
20
29.145
0
VERTEX
8
CUT
10
61.284
20
28.548
0
VERTEX
8
CUT
10
63.438
20
27.956
0
VERTEX
8
CUT
10
65.474
20
27.395
0
VERTEX
8
CUT
10
67.305
20
26.889
0
VERTEX
8
CUT
10
68.843
20
26.465
0
VERTEX
8
CUT
10
70.000
20
26.146
0
VERTEX
8
CUT
10
70.000
20
25.786
0
VERTEX
8
CUT
10
68.843
20
25.786
0
VERTEX
8
CUT
10
67.305
20
25.786
0
VERTEX
8
CUT
10
65.474
20
25.786
0
VERTEX
8
CUT
10
63.438
20
25.786
0
VERTEX
8
CUT
10
61.284
20
25.786
0
VERTEX
8
CUT
10
59.102
20
25.786
0
VERTEX
8
CUT
10
56.978
20
25.786
0
VERTEX
8
CUT
10
55.000
20
25.786
0
VERTEX
8
CUT
10
53.228
20
25.786
0
VERTEX
8
CUT
10
51.602
20
25.786
0
VERTEX
8
CUT
10
50.034
20
25.786
0
VERTEX
8
CUT
10
48.438
20
25.786
0
VERTEX
8
CUT
10
46.724
20
25.786
0
VERTEX
8
CUT
10
44.805
20
25.786
0
VERTEX
8
CUT
10
42.593
20
25.786
0
VERTEX
8
CUT
10
40.000
20
25.786
0
VERTEX
8
CUT
10
38.436
20
25.786
0
VERTEX
8
CUT
10
36.751
20
25.786
0
VERTEX
8
CUT
10
34.960
20
25.786
0
VERTEX
8
CUT
10
33.076
20
25.786
0
VERTEX
8
CUT
10
31.111
20
25.786
0
VERTEX
8
CUT
10
29.080
20
25.786
0
VERTEX
8
CUT
10
26.996
20
25.786
0
VERTEX
8
CUT
10
24.871
20
25.786
0
VERTEX
8
CUT
10
22.720
20
25.786
0
VERTEX
8
CUT
10
20.556
20
25.786
0
VERTEX
8
CUT
10
18.391
20
25.786
0
VERTEX
8
CUT
10
16.240
20
25.786
0
VERTEX
8
CUT
10
14.116
20
25.786
0
VERTEX
8
CUT
10
12.031
20
25.786
0
VERTEX
8
CUT
10
10.000
20
25.786
0
VERTEX
8
CUT
10
8.000
20
25.786
0
VERTEX
8
CUT
10
6.000
20
25.786
0
VERTEX
8
CUT
10
5.000
20
25.786
0
SEQEND
0
TEXT
8
POPIS
10
11.000
20
28.786
40
4.197
1
zebro-klapka-65
0
POLYLINE
8
CUT
66
1
70
1
0
VERTEX
8
CUT
10
74.000
20
42.573
0
VERTEX
8
CUT
10
75.250
20
42.294
0
VERTEX
8
CUT
10
77.125
20
41.872
0
VERTEX
8
CUT
10
79.000
20
41.446
0
VERTEX
8
CUT
10
80.902
20
41.011
0
VERTEX
8
CUT
10
82.853
20
40.558
0
VERTEX
8
CUT
10
84.839
20
40.091
0
VERTEX
8
CUT
10
86.852
20
39.615
0
VERTEX
8
CUT
10
88.879
20
39.130
0
VERTEX
8
CUT
10
90.909
20
38.641
0
VERTEX
8
CUT
10
92.932
20
38.151
0
VERTEX
8
CUT
10
94.938
20
37.663
0
VERTEX
8
CUT
10
96.913
20
37.179
0
VERTEX
8
CUT
10
98.849
20
36.703
0
VERTEX
8
CUT
10
100.733
20
36.238
0
VERTEX
8
CUT
10
102.555
20
35.788
0
VERTEX
8
CUT
10
104.303
20
35.354
0
VERTEX
8
CUT
10
105.968
20
34.941
0
VERTEX
8
CUT
10
107.537
20
34.550
0
VERTEX
8
CUT
10
109.000
20
34.186
0
VERTEX
8
CUT
10
111.593
20
33.537
0
VERTEX
8
CUT
10
113.805
20
32.974
0
VERTEX
8
CUT
10
115.724
20
32.477
0
VERTEX
8
CUT
10
117.438
20
32.025
0
VERTEX
8
CUT
10
119.034
20
31.597
0
VERTEX
8
CUT
10
120.602
20
31.174
0
VERTEX
8
CUT
10
122.228
20
30.734
0
VERTEX
8
CUT
10
124.000
20
30.256
0
VERTEX
8
CUT
10
125.978
20
29.723
0
VERTEX
8
CUT
10
128.102
20
29.145
0
VERTEX
8
CUT
10
130.284
20
28.548
0
VERTEX
8
CUT
10
132.438
20
27.956
0
VERTEX
8
CUT
10
134.474
20
27.395
0
VERTEX
8
CUT
10
136.305
20
26.889
0
VERTEX
8
CUT
10
137.843
20
26.465
0
VERTEX
8
CUT
10
139.000
20
26.146
0
VERTEX
8
CUT
10
139.000
20
25.786
0
VERTEX
8
CUT
10
137.843
20
25.786
0
VERTEX
8
CUT
10
136.305
20
25.786
0
VERTEX
8
CUT
10
134.474
20
25.786
0
VERTEX
8
CUT
10
132.438
20
25.786
0
VERTEX
8
CUT
10
130.284
20
25.786
0
VERTEX
8
CUT
10
128.102
20
25.786
0
VERTEX
8
CUT
10
125.978
20
25.786
0
VERTEX
8
CUT
10
124.000
20
25.786
0
VERTEX
8
CUT
10
122.228
20
25.786
0
VERTEX
8
CUT
10
120.602
20
25.786
0
VERTEX
8
CUT
10
119.034
20
25.786
0
VERTEX
8
CUT
10
117.438
20
25.786
0
VERTEX
8
CUT
10
115.724
20
25.786
0
VERTEX
8
CUT
10
113.805
20
25.786
0
VERTEX
8
CUT
10
111.593
20
25.786
0
VERTEX
8
CUT
10
109.000
20
25.786
0
VERTEX
8
CUT
10
107.436
20
25.786
0
VERTEX
8
CUT
10
105.751
20
25.786
0
VERTEX
8
CUT
10
103.960
20
25.786
0
VERTEX
8
CUT
10
102.076
20
25.786
0
VERTEX
8
CUT
10
100.111
20
25.786
0
VERTEX
8
CUT
10
98.080
20
25.786
0
VERTEX
8
CUT
10
95.996
20
25.786
0
VERTEX
8
CUT
10
93.871
20
25.786
0
VERTEX
8
CUT
10
91.720
20
25.786
0
VERTEX
8
CUT
10
89.556
20
25.786
0
VERTEX
8
CUT
10
87.391
20
25.786
0
VERTEX
8
CUT
10
85.240
20
25.786
0
VERTEX
8
CUT
10
83.116
20
25.786
0
VERTEX
8
CUT
10
81.031
20
25.786
0
VERTEX
8
CUT
10
79.000
20
25.786
0
VERTEX
8
CUT
10
77.000
20
25.786
0
VERTEX
8
CUT
10
75.000
20
25.786
0
VERTEX
8
CUT
10
74.000
20
25.786
0
SEQEND
0
TEXT
8
POPIS
10
80.000
20
28.786
40
4.197
1
zebro-klapka-65
0
POLYLINE
8
CUT
66
1
70
1
0
VERTEX
8
CUT
10
143.000
20
42.573
0
VERTEX
8
CUT
10
144.250
20
42.294
0
VERTEX
8
CUT
10
146.125
20
41.872
0
VERTEX
8
CUT
10
148.000
20
41.446
0
VERTEX
8
CUT
10
149.902
20
41.011
0
VERTEX
8
CUT
10
151.853
20
40.558
0
VERTEX
8
CUT
10
153.839
20
40.091
0
VERTEX
8
CUT
10
155.852
20
39.615
0
VERTEX
8
CUT
10
157.879
20
39.130
0
VERTEX
8
CUT
10
159.909
20
38.641
0
VERTEX
8
CUT
10
161.932
20
38.151
0
VERTEX
8
CUT
10
163.938
20
37.663
0
VERTEX
8
CUT
10
165.913
20
37.179
0
VERTEX
8
CUT
10
167.849
20
36.703
0
VERTEX
8
CUT
10
169.733
20
36.238
0
VERTEX
8
CUT
10
171.555
20
35.788
0
VERTEX
8
CUT
10
173.303
20
35.354
0
VERTEX
8
CUT
10
174.968
20
34.941
0
VERTEX
8
CUT
10
176.537
20
34.550
0
VERTEX
8
CUT
10
178.000
20
34.186
0
VERTEX
8
CUT
10
180.593
20
33.537
0
VERTEX
8
CUT
10
182.805
20
32.974
0
VERTEX
8
CUT
10
184.724
20
32.477
0
VERTEX
8
CUT
10
186.438
20
32.025
0
VERTEX
8
CUT
10
188.034
20
31.597
0
VERTEX
8
CUT
10
189.602
20
31.174
0
VERTEX
8
CUT
10
191.228
20
30.734
0
VERTEX
8
CUT
10
193.000
20
30.256
0
VERTEX
8
CUT
10
194.978
20
29.723
0
VERTEX
8
CUT
10
197.102
20
29.145
0
VERTEX
8
CUT
10
199.284
20
28.548
0
VERTEX
8
CUT
10
201.438
20
27.956
0
VERTEX
8
CUT
10
203.474
20
27.395
0
VERTEX
8
CUT
10
205.305
20
26.889
0
VERTEX
8
CUT
10
206.843
20
26.465
0
VERTEX
8
CUT
10
208.000
20
26.146
0
VERTEX
8
CUT
10
208.000
20
25.786
0
VERTEX
8
CUT
10
206.843
20
25.786
0
VERTEX
8
CUT
10
205.305
20
25.786
0
VERTEX
8
CUT
10
203.474
20
25.786
0
VERTEX
8
CUT
10
201.438
20
25.786
0
VERTEX
8
CUT
10
199.284
20
25.786
0
VERTEX
8
CUT
10
197.102
20
25.786
0
VERTEX
8
CUT
10
194.978
20
25.786
0
VERTEX
8
CUT
10
193.000
20
25.786
0
VERTEX
8
CUT
10
191.228
20
25.786
0
VERTEX
8
CUT
10
189.602
20
25.786
0
VERTEX
8
CUT
10
188.034
20
25.786
0
VERTEX
8
CUT
10
186.438
20
25.786
0
VERTEX
8
CUT
10
184.724
20
25.786
0
VERTEX
8
CUT
10
182.805
20
25.786
0
VERTEX
8
CUT
10
180.593
20
25.786
0
VERTEX
8
CUT
10
178.000
20
25.786
0
VERTEX
8
CUT
10
176.436
20
25.786
0
VERTEX
8
CUT
10
174.751
20
25.786
0
VERTEX
8
CUT
10
172.960
20
25.786
0
VERTEX
8
CUT
10
171.076
20
25.786
0
VERTEX
8
CUT
10
169.111
20
25.786
0
VERTEX
8
CUT
10
167.080
20
25.786
0
VERTEX
8
CUT
10
164.996
20
25.786
0
VERTEX
8
CUT
10
162.871
20
25.786
0
VERTEX
8
CUT
10
160.720
20
25.786
0
VERTEX
8
CUT
10
158.556
20
25.786
0
VERTEX
8
CUT
10
156.391
20
25.786
0
VERTEX
8
CUT
10
154.240
20
25.786
0
VERTEX
8
CUT
10
152.116
20
25.786
0
VERTEX
8
CUT
10
150.031
20
25.786
0
VERTEX
8
CUT
10
148.000
20
25.786
0
VERTEX
8
CUT
10
146.000
20
25.786
0
VERTEX
8
CUT
10
144.000
20
25.786
0
VERTEX
8
CUT
10
143.000
20
25.786
0
SEQEND
0
TEXT
8
POPIS
10
149.000
20
28.786
40
4.197
1
zebro-klapka-65
0
POLYLINE
8
CUT
66
1
70
1
0
VERTEX
8
CUT
10
212.000
20
42.573
0
VERTEX
8
CUT
10
213.250
20
42.294
0
VERTEX
8
CUT
10
215.125
20
41.872
0
VERTEX
8
CUT
10
217.000
20
41.446
0
VERTEX
8
CUT
10
218.902
20
41.011
0
VERTEX
8
CUT
10
220.853
20
40.558
0
VERTEX
8
CUT
10
222.839
20
40.091
0
VERTEX
8
CUT
10
224.852
20
39.615
0
VERTEX
8
CUT
10
226.879
20
39.130
0
VERTEX
8
CUT
10
228.909
20
38.641
0
VERTEX
8
CUT
10
230.932
20
38.151
0
VERTEX
8
CUT
10
232.938
20
37.663
0
VERTEX
8
CUT
10
234.913
20
37.179
0
VERTEX
8
CUT
10
236.849
20
36.703
0
VERTEX
8
CUT
10
238.733
20
36.238
0
VERTEX
8
CUT
10
240.555
20
35.788
0
VERTEX
8
CUT
10
242.303
20
35.354
0
VERTEX
8
CUT
10
243.968
20
34.941
0
VERTEX
8
CUT
10
245.537
20
34.550
0
VERTEX
8
CUT
10
247.000
20
34.186
0
VERTEX
8
CUT
10
249.593
20
33.537
0
VERTEX
8
CUT
10
251.805
20
32.974
0
VERTEX
8
CUT
10
253.724
20
32.477
0
VERTEX
8
CUT
10
255.438
20
32.025
0
VERTEX
8
CUT
10
257.034
20
31.597
0
VERTEX
8
CUT
10
258.602
20
31.174
0
VERTEX
8
CUT
10
260.228
20
30.734
0
VERTEX
8
CUT
10
262.000
20
30.256
0
VERTEX
8
CUT
10
263.978
20
29.723
0
VERTEX
8
CUT
10
266.102
20
29.145
0
VERTEX
8
CUT
10
268.284
20
28.548
0
VERTEX
8
CUT
10
270.438
20
27.956
0
VERTEX
8
CUT
10
272.474
20
27.395
0
VERTEX
8
CUT
10
274.305
20
26.889
0
VERTEX
8
CUT
10
275.843
20
26.465
0
VERTEX
8
CUT
10
277.000
20
26.146
0
VERTEX
8
CUT
10
277.000
20
25.786
0
VERTEX
8
CUT
10
275.843
20
25.786
0
VERTEX
8
CUT
10
274.305
20
25.786
0
VERTEX
8
CUT
10
272.474
20
25.786
0
VERTEX
8
CUT
10
270.438
20
25.786
0
VERTEX
8
CUT
10
268.284
20
25.786
0
VERTEX
8
CUT
10
266.102
20
25.786
0
VERTEX
8
CUT
10
263.978
20
25.786
0
VERTEX
8
CUT
10
262.000
20
25.786
0
VERTEX
8
CUT
10
260.228
20
25.786
0
VERTEX
8
CUT
10
258.602
20
25.786
0
VERTEX
8
CUT
10
257.034
20
25.786
0
VERTEX
8
CUT
10
255.438
20
25.786
0
VERTEX
8
CUT
10
253.724
20
25.786
0
VERTEX
8
CUT
10
251.805
20
25.786
0
VERTEX
8
CUT
10
249.593
20
25.786
0
VERTEX
8
CUT
10
247.000
20
25.786
0
VERTEX
8
CUT
10
245.436
20
25.786
0
VERTEX
8
CUT
10
243.751
20
25.786
0
VERTEX
8
CUT
10
241.960
20
25.786
0
VERTEX
8
CUT
10
240.076
20
25.786
0
VERTEX
8
CUT
10
238.111
20
25.786
0
VERTEX
8
CUT
10
236.080
20
25.786
0
VERTEX
8
CUT
10
233.996
20
25.786
0
VERTEX
8
CUT
10
231.871
20
25.786
0
VERTEX
8
CUT
10
229.720
20
25.786
0
VERTEX
8
CUT
10
227.556
20
25.786
0
VERTEX
8
CUT
10
225.391
20
25.786
0
VERTEX
8
CUT
10
223.240
20
25.786
0
VERTEX
8
CUT
10
221.116
20
25.786
0
VERTEX
8
CUT
10
219.031
20
25.786
0
VERTEX
8
CUT
10
217.000
20
25.786
0
VERTEX
8
CUT
10
215.000
20
25.786
0
VERTEX
8
CUT
10
213.000
20
25.786
0
VERTEX
8
CUT
10
212.000
20
25.786
0
SEQEND
0
TEXT
8
POPIS
10
218.000
20
28.786
40
4.197
1
zebro-klapka-65
0
POLYLINE
8
CUT
66
1
70
1
0
VERTEX
8
CUT
10
281.000
20
42.573
0
VERTEX
8
CUT
10
282.250
20
42.294
0
VERTEX
8
CUT
10
284.125
20
41.872
0
VERTEX
8
CUT
10
286.000
20
41.446
0
VERTEX
8
CUT
10
287.902
20
41.011
0
VERTEX
8
CUT
10
289.853
20
40.558
0
VERTEX
8
CUT
10
291.839
20
40.091
0
VERTEX
8
CUT
10
293.852
20
39.615
0
VERTEX
8
CUT
10
295.879
20
39.130
0
VERTEX
8
CUT
10
297.909
20
38.641
0
VERTEX
8
CUT
10
299.932
20
38.151
0
VERTEX
8
CUT
10
301.938
20
37.663
0
VERTEX
8
CUT
10
303.913
20
37.179
0
VERTEX
8
CUT
10
305.849
20
36.703
0
VERTEX
8
CUT
10
307.733
20
36.238
0
VERTEX
8
CUT
10
309.555
20
35.788
0
VERTEX
8
CUT
10
311.303
20
35.354
0
VERTEX
8
CUT
10
312.968
20
34.941
0
VERTEX
8
CUT
10
314.537
20
34.550
0
VERTEX
8
CUT
10
316.000
20
34.186
0
VERTEX
8
CUT
10
318.593
20
33.537
0
VERTEX
8
CUT
10
320.805
20
32.974
0
VERTEX
8
CUT
10
322.724
20
32.477
0
VERTEX
8
CUT
10
324.438
20
32.025
0
VERTEX
8
CUT
10
326.034
20
31.597
0
VERTEX
8
CUT
10
327.602
20
31.174
0
VERTEX
8
CUT
10
329.228
20
30.734
0
VERTEX
8
CUT
10
331.000
20
30.256
0
VERTEX
8
CUT
10
332.978
20
29.723
0
VERTEX
8
CUT
10
335.102
20
29.145
0
VERTEX
8
CUT
10
337.284
20
28.548
0
VERTEX
8
CUT
10
339.438
20
27.956
0
VERTEX
8
CUT
10
341.474
20
27.395
0
VERTEX
8
CUT
10
343.305
20
26.889
0
VERTEX
8
CUT
10
344.843
20
26.465
0
VERTEX
8
CUT
10
346.000
20
26.146
0
VERTEX
8
CUT
10
346.000
20
25.786
0
VERTEX
8
CUT
10
344.843
20
25.786
0
VERTEX
8
CUT
10
343.305
20
25.786
0
VERTEX
8
CUT
10
341.474
20
25.786
0
VERTEX
8
CUT
10
339.438
20
25.786
0
VERTEX
8
CUT
10
337.284
20
25.786
0
VERTEX
8
CUT
10
335.102
20
25.786
0
VERTEX
8
CUT
10
332.978
20
25.786
0
VERTEX
8
CUT
10
331.000
20
25.786
0
VERTEX
8
CUT
10
329.228
20
25.786
0
VERTEX
8
CUT
10
327.602
20
25.786
0
VERTEX
8
CUT
10
326.034
20
25.786
0
VERTEX
8
CUT
10
324.438
20
25.786
0
VERTEX
8
CUT
10
322.724
20
25.786
0
VERTEX
8
CUT
10
320.805
20
25.786
0
VERTEX
8
CUT
10
318.593
20
25.786
0
VERTEX
8
CUT
10
316.000
20
25.786
0
VERTEX
8
CUT
10
314.436
20
25.786
0
VERTEX
8
CUT
10
312.751
20
25.786
0
VERTEX
8
CUT
10
310.960
20
25.786
0
VERTEX
8
CUT
10
309.076
20
25.786
0
VERTEX
8
CUT
10
307.111
20
25.786
0
VERTEX
8
CUT
10
305.080
20
25.786
0
VERTEX
8
CUT
10
302.996
20
25.786
0
VERTEX
8
CUT
10
300.871
20
25.786
0
VERTEX
8
CUT
10
298.720
20
25.786
0
VERTEX
8
CUT
10
296.556
20
25.786
0
VERTEX
8
CUT
10
294.391
20
25.786
0
VERTEX
8
CUT
10
292.240
20
25.786
0
VERTEX
8
CUT
10
290.116
20
25.786
0
VERTEX
8
CUT
10
288.031
20
25.786
0
VERTEX
8
CUT
10
286.000
20
25.786
0
VERTEX
8
CUT
10
284.000
20
25.786
0
VERTEX
8
CUT
10
282.000
20
25.786
0
VERTEX
8
CUT
10
281.000
20
25.786
0
SEQEND
0
TEXT
8
POPIS
10
287.000
20
28.786
40
4.197
1
zebro-klapka-65
0
ENDSEC
0
EOF
