0
SECTION
2
TABLES
0
TABLE
2
LAYER
70
2
0
LAYER
2
CUT
70
0
62
7
6
CONTINUOUS
0
LAYER
2
POPIS
70
0
62
1
6
CONTINUOUS
0
ENDTAB
0
ENDSEC
0
SECTION
2
ENTITIES
0
POLYLINE
8
CUT
66
1
70
1
0
VERTEX
8
CUT
10
5.000
20
15.507
0
VERTEX
8
CUT
10
5.674
20
16.621
0
VERTEX
8
CUT
10
6.641
20
18.235
0
VERTEX
8
CUT
10
7.725
20
19.947
0
VERTEX
8
CUT
10
8.750
20
21.357
0
VERTEX
8
CUT
10
9.861
20
22.568
0
VERTEX
8
CUT
10
10.972
20
23.479
0
VERTEX
8
CUT
10
12.500
20
24.507
0
VERTEX
8
CUT
10
13.760
20
25.301
0
VERTEX
8
CUT
10
15.230
20
26.176
0
VERTEX
8
CUT
10
16.820
20
27.073
0
VERTEX
8
CUT
10
18.440
20
27.936
0
VERTEX
8
CUT
10
20.000
20
28.707
0
VERTEX
8
CUT
10
21.500
20
29.373
0
VERTEX
8
CUT
10
23.000
20
29.973
0
VERTEX
8
CUT
10
24.500
20
30.525
0
VERTEX
8
CUT
10
26.000
20
31.047
0
VERTEX
8
CUT
10
26.400
20
31.183
0
VERTEX
8
CUT
10
27.995
20
26.444
0
VERTEX
8
CUT
10
33.195
20
28.158
0
VERTEX
8
CUT
10
31.600
20
32.897
0
VERTEX
8
CUT
10
32.598
20
33.189
0
VERTEX
8
CUT
10
35.000
20
33.807
0
VERTEX
8
CUT
10
36.516
20
34.172
0
VERTEX
8
CUT
10
38.223
20
34.575
0
VERTEX
8
CUT
10
40.076
20
35.002
0
VERTEX
8
CUT
10
42.031
20
35.440
0
VERTEX
8
CUT
10
44.045
20
35.876
0
VERTEX
8
CUT
10
46.074
20
36.298
0
VERTEX
8
CUT
10
48.074
20
36.692
0
VERTEX
8
CUT
10
50.000
20
37.047
0
VERTEX
8
CUT
10
51.772
20
37.366
0
VERTEX
8
CUT
10
53.398
20
37.665
0
VERTEX
8
CUT
10
54.966
20
37.944
0
VERTEX
8
CUT
10
56.562
20
38.205
0
VERTEX
8
CUT
10
58.276
20
38.449
0
VERTEX
8
CUT
10
60.195
20
38.677
0
VERTEX
8
CUT
10
62.407
20
38.889
0
VERTEX
8
CUT
10
65.000
20
39.087
0
VERTEX
8
CUT
10
66.463
20
39.182
0
VERTEX
8
CUT
10
68.032
20
39.276
0
VERTEX
8
CUT
10
69.697
20
39.368
0
VERTEX
8
CUT
10
71.445
20
39.458
0
VERTEX
8
CUT
10
73.267
20
39.545
0
VERTEX
8
CUT
10
75.151
20
39.628
0
VERTEX
8
CUT
10
77.087
20
39.707
0
VERTEX
8
CUT
10
79.062
20
39.780
0
VERTEX
8
CUT
10
81.068
20
39.848
0
VERTEX
8
CUT
10
83.091
20
39.910
0
VERTEX
8
CUT
10
85.121
20
39.964
0
VERTEX
8
CUT
10
87.148
20
40.011
0
VERTEX
8
CUT
10
89.161
20
40.049
0
VERTEX
8
CUT
10
91.147
20
40.078
0
VERTEX
8
CUT
10
92.400
20
40.091
0
VERTEX
8
CUT
10
92.412
20
35.091
0
VERTEX
8
CUT
10
97.612
20
35.103
0
VERTEX
8
CUT
10
97.600
20
40.103
0
VERTEX
8
CUT
10
98.750
20
40.098
0
VERTEX
8
CUT
10
100.625
20
40.082
0
VERTEX
8
CUT
10
102.500
20
40.057
0
VERTEX
8
CUT
10
104.375
20
40.026
0
VERTEX
8
CUT
10
106.250
20
39.986
0
VERTEX
8
CUT
10
108.125
20
39.939
0
VERTEX
8
CUT
10
110.000
20
39.885
0
VERTEX
8
CUT
10
111.875
20
39.824
0
VERTEX
8
CUT
10
113.750
20
39.756
0
VERTEX
8
CUT
10
115.625
20
39.681
0
VERTEX
8
CUT
10
117.500
20
39.599
0
VERTEX
8
CUT
10
119.375
20
39.511
0
VERTEX
8
CUT
10
121.250
20
39.416
0
VERTEX
8
CUT
10
123.125
20
39.314
0
VERTEX
8
CUT
10
125.000
20
39.207
0
VERTEX
8
CUT
10
126.875
20
39.092
0
VERTEX
8
CUT
10
128.750
20
38.970
0
VERTEX
8
CUT
10
130.625
20
38.840
0
VERTEX
8
CUT
10
132.500
20
38.703
0
VERTEX
8
CUT
10
134.375
20
38.560
0
VERTEX
8
CUT
10
136.250
20
38.409
0
VERTEX
8
CUT
10
138.125
20
38.251
0
VERTEX
8
CUT
10
140.000
20
38.087
0
VERTEX
8
CUT
10
141.875
20
37.917
0
VERTEX
8
CUT
10
143.750
20
37.741
0
VERTEX
8
CUT
10
145.625
20
37.559
0
VERTEX
8
CUT
10
147.500
20
37.371
0
VERTEX
8
CUT
10
149.375
20
37.177
0
VERTEX
8
CUT
10
151.250
20
36.979
0
VERTEX
8
CUT
10
153.125
20
36.775
0
VERTEX
8
CUT
10
155.000
20
36.567
0
VERTEX
8
CUT
10
156.875
20
36.353
0
VERTEX
8
CUT
10
158.400
20
36.173
0
VERTEX
8
CUT
10
157.789
20
31.211
0
VERTEX
8
CUT
10
162.989
20
30.570
0
VERTEX
8
CUT
10
163.600
20
35.533
0
VERTEX
8
CUT
10
164.375
20
35.434
0
VERTEX
8
CUT
10
166.250
20
35.190
0
VERTEX
8
CUT
10
168.125
20
34.940
0
VERTEX
8
CUT
10
170.000
20
34.684
0
VERTEX
8
CUT
10
171.875
20
34.423
0
VERTEX
8
CUT
10
173.750
20
34.157
0
VERTEX
8
CUT
10
175.625
20
33.886
0
VERTEX
8
CUT
10
177.500
20
33.609
0
VERTEX
8
CUT
10
179.375
20
33.328
0
VERTEX
8
CUT
10
181.250
20
33.042
0
VERTEX
8
CUT
10
183.125
20
32.752
0
VERTEX
8
CUT
10
185.000
20
32.457
0
VERTEX
8
CUT
10
186.875
20
32.156
0
VERTEX
8
CUT
10
188.750
20
31.850
0
VERTEX
8
CUT
10
190.625
20
31.538
0
VERTEX
8
CUT
10
192.500
20
31.221
0
VERTEX
8
CUT
10
194.375
20
30.898
0
VERTEX
8
CUT
10
196.250
20
30.570
0
VERTEX
8
CUT
10
198.125
20
30.237
0
VERTEX
8
CUT
10
200.000
20
29.899
0
VERTEX
8
CUT
10
201.875
20
29.557
0
VERTEX
8
CUT
10
203.750
20
29.211
0
VERTEX
8
CUT
10
205.625
20
28.861
0
VERTEX
8
CUT
10
207.500
20
28.507
0
VERTEX
8
CUT
10
209.375
20
28.149
0
VERTEX
8
CUT
10
211.250
20
27.788
0
VERTEX
8
CUT
10
213.125
20
27.424
0
VERTEX
8
CUT
10
215.000
20
27.057
0
VERTEX
8
CUT
10
216.875
20
26.686
0
VERTEX
8
CUT
10
218.750
20
26.311
0
VERTEX
8
CUT
10
220.625
20
25.932
0
VERTEX
8
CUT
10
222.500
20
25.549
0
VERTEX
8
CUT
10
224.375
20
25.162
0
VERTEX
8
CUT
10
224.400
20
25.157
0
VERTEX
8
CUT
10
223.371
20
20.264
0
VERTEX
8
CUT
10
228.571
20
19.170
0
VERTEX
8
CUT
10
229.600
20
24.063
0
VERTEX
8
CUT
10
230.000
20
23.978
0
VERTEX
8
CUT
10
231.875
20
23.576
0
VERTEX
8
CUT
10
233.750
20
23.170
0
VERTEX
8
CUT
10
235.625
20
22.761
0
VERTEX
8
CUT
10
237.500
20
22.349
0
VERTEX
8
CUT
10
239.375
20
21.933
0
VERTEX
8
CUT
10
241.250
20
21.514
0
VERTEX
8
CUT
10
243.125
20
21.092
0
VERTEX
8
CUT
10
245.000
20
20.667
0
VERTEX
8
CUT
10
246.902
20
20.231
0
VERTEX
8
CUT
10
248.853
20
19.778
0
VERTEX
8
CUT
10
250.839
20
19.312
0
VERTEX
8
CUT
10
252.852
20
18.835
0
VERTEX
8
CUT
10
254.879
20
18.350
0
VERTEX
8
CUT
10
256.909
20
17.862
0
VERTEX
8
CUT
10
258.932
20
17.371
0
VERTEX
8
CUT
10
260.938
20
16.883
0
VERTEX
8
CUT
10
262.913
20
16.399
0
VERTEX
8
CUT
10
264.849
20
15.924
0
VERTEX
8
CUT
10
266.733
20
15.459
0
VERTEX
8
CUT
10
268.555
20
15.008
0
VERTEX
8
CUT
10
270.303
20
14.574
0
VERTEX
8
CUT
10
271.968
20
14.161
0
VERTEX
8
CUT
10
273.537
20
13.771
0
VERTEX
8
CUT
10
275.000
20
13.407
0
VERTEX
8
CUT
10
277.593
20
12.757
0
VERTEX
8
CUT
10
279.805
20
12.194
0
VERTEX
8
CUT
10
281.724
20
11.697
0
VERTEX
8
CUT
10
283.438
20
11.245
0
VERTEX
8
CUT
10
285.034
20
10.817
0
VERTEX
8
CUT
10
286.602
20
10.394
0
VERTEX
8
CUT
10
288.228
20
9.954
0
VERTEX
8
CUT
10
290.000
20
9.477
0
VERTEX
8
CUT
10
291.978
20
8.943
0
VERTEX
8
CUT
10
294.102
20
8.365
0
VERTEX
8
CUT
10
296.284
20
7.768
0
VERTEX
8
CUT
10
298.438
20
7.176
0
VERTEX
8
CUT
10
300.474
20
6.615
0
VERTEX
8
CUT
10
302.305
20
6.109
0
VERTEX
8
CUT
10
303.843
20
5.685
0
VERTEX
8
CUT
10
305.000
20
5.367
0
VERTEX
8
CUT
10
305.000
20
5.007
0
VERTEX
8
CUT
10
303.843
20
5.007
0
VERTEX
8
CUT
10
302.305
20
5.007
0
VERTEX
8
CUT
10
300.474
20
5.007
0
VERTEX
8
CUT
10
298.438
20
5.007
0
VERTEX
8
CUT
10
296.284
20
5.007
0
VERTEX
8
CUT
10
294.102
20
5.007
0
VERTEX
8
CUT
10
291.978
20
5.007
0
VERTEX
8
CUT
10
290.000
20
5.007
0
VERTEX
8
CUT
10
288.228
20
5.007
0
VERTEX
8
CUT
10
286.602
20
5.007
0
VERTEX
8
CUT
10
285.034
20
5.007
0
VERTEX
8
CUT
10
283.438
20
5.007
0
VERTEX
8
CUT
10
281.724
20
5.007
0
VERTEX
8
CUT
10
279.805
20
5.007
0
VERTEX
8
CUT
10
277.593
20
5.007
0
VERTEX
8
CUT
10
275.000
20
5.007
0
VERTEX
8
CUT
10
273.436
20
5.007
0
VERTEX
8
CUT
10
271.751
20
5.007
0
VERTEX
8
CUT
10
269.960
20
5.007
0
VERTEX
8
CUT
10
268.076
20
5.007
0
VERTEX
8
CUT
10
266.111
20
5.007
0
VERTEX
8
CUT
10
264.080
20
5.007
0
VERTEX
8
CUT
10
261.996
20
5.007
0
VERTEX
8
CUT
10
259.871
20
5.007
0
VERTEX
8
CUT
10
257.720
20
5.007
0
VERTEX
8
CUT
10
255.556
20
5.007
0
VERTEX
8
CUT
10
253.391
20
5.007
0
VERTEX
8
CUT
10
251.240
20
5.007
0
VERTEX
8
CUT
10
249.116
20
5.007
0
VERTEX
8
CUT
10
247.031
20
5.007
0
VERTEX
8
CUT
10
245.000
20
5.007
0
VERTEX
8
CUT
10
243.000
20
5.007
0
VERTEX
8
CUT
10
241.000
20
5.007
0
VERTEX
8
CUT
10
239.000
20
5.007
0
VERTEX
8
CUT
10
237.000
20
5.007
0
VERTEX
8
CUT
10
235.000
20
5.007
0
VERTEX
8
CUT
10
233.000
20
5.007
0
VERTEX
8
CUT
10
231.000
20
5.007
0
VERTEX
8
CUT
10
229.600
20
5.007
0
VERTEX
8
CUT
10
229.600
20
10.007
0
VERTEX
8
CUT
10
224.400
20
10.007
0
VERTEX
8
CUT
10
224.400
20
5.007
0
VERTEX
8
CUT
10
223.000
20
5.007
0
VERTEX
8
CUT
10
221.000
20
5.007
0
VERTEX
8
CUT
10
219.000
20
5.007
0
VERTEX
8
CUT
10
217.000
20
5.007
0
VERTEX
8
CUT
10
215.000
20
5.007
0
VERTEX
8
CUT
10
213.000
20
5.007
0
VERTEX
8
CUT
10
211.000
20
5.007
0
VERTEX
8
CUT
10
209.000
20
5.007
0
VERTEX
8
CUT
10
207.000
20
5.007
0
VERTEX
8
CUT
10
205.000
20
5.007
0
VERTEX
8
CUT
10
203.000
20
5.007
0
VERTEX
8
CUT
10
201.000
20
5.007
0
VERTEX
8
CUT
10
199.000
20
5.007
0
VERTEX
8
CUT
10
197.000
20
5.007
0
VERTEX
8
CUT
10
195.000
20
5.007
0
VERTEX
8
CUT
10
193.000
20
5.007
0
VERTEX
8
CUT
10
191.000
20
5.007
0
VERTEX
8
CUT
10
189.000
20
5.007
0
VERTEX
8
CUT
10
187.000
20
5.007
0
VERTEX
8
CUT
10
185.000
20
5.007
0
VERTEX
8
CUT
10
183.000
20
5.007
0
VERTEX
8
CUT
10
181.000
20
5.007
0
VERTEX
8
CUT
10
179.000
20
5.007
0
VERTEX
8
CUT
10
177.000
20
5.007
0
VERTEX
8
CUT
10
175.000
20
5.007
0
VERTEX
8
CUT
10
173.000
20
5.007
0
VERTEX
8
CUT
10
171.000
20
5.007
0
VERTEX
8
CUT
10
169.000
20
5.007
0
VERTEX
8
CUT
10
167.000
20
5.007
0
VERTEX
8
CUT
10
165.000
20
5.007
0
VERTEX
8
CUT
10
163.600
20
5.007
0
VERTEX
8
CUT
10
163.600
20
10.007
0
VERTEX
8
CUT
10
158.400
20
10.007
0
VERTEX
8
CUT
10
158.400
20
5.007
0
VERTEX
8
CUT
10
157.000
20
5.007
0
VERTEX
8
CUT
10
155.000
20
5.007
0
VERTEX
8
CUT
10
153.000
20
5.007
0
VERTEX
8
CUT
10
151.000
20
5.007
0
VERTEX
8
CUT
10
149.000
20
5.007
0
VERTEX
8
CUT
10
147.000
20
5.007
0
VERTEX
8
CUT
10
145.000
20
5.007
0
VERTEX
8
CUT
10
143.000
20
5.007
0
VERTEX
8
CUT
10
141.000
20
5.007
0
VERTEX
8
CUT
10
139.000
20
5.007
0
VERTEX
8
CUT
10
137.000
20
5.007
0
VERTEX
8
CUT
10
135.000
20
5.007
0
VERTEX
8
CUT
10
133.000
20
5.007
0
VERTEX
8
CUT
10
131.000
20
5.007
0
VERTEX
8
CUT
10
129.000
20
5.007
0
VERTEX
8
CUT
10
127.000
20
5.007
0
VERTEX
8
CUT
10
125.000
20
5.007
0
VERTEX
8
CUT
10
123.000
20
5.006
0
VERTEX
8
CUT
10
121.000
20
5.006
0
VERTEX
8
CUT
10
119.000
20
5.005
0
VERTEX
8
CUT
10
117.000
20
5.004
0
VERTEX
8
CUT
10
115.000
20
5.003
0
VERTEX
8
CUT
10
113.000
20
5.002
0
VERTEX
8
CUT
10
111.000
20
5.001
0
VERTEX
8
CUT
10
109.000
20
5.001
0
VERTEX
8
CUT
10
107.000
20
5.000
0
VERTEX
8
CUT
10
105.000
20
5.000
0
VERTEX
8
CUT
10
103.000
20
5.000
0
VERTEX
8
CUT
10
101.000
20
5.001
0
VERTEX
8
CUT
10
99.000
20
5.002
0
VERTEX
8
CUT
10
97.600
20
5.003
0
VERTEX
8
CUT
10
97.607
20
10.003
0
VERTEX
8
CUT
10
92.407
20
10.010
0
VERTEX
8
CUT
10
92.400
20
5.010
0
VERTEX
8
CUT
10
91.147
20
5.012
0
VERTEX
8
CUT
10
89.161
20
5.014
0
VERTEX
8
CUT
10
87.148
20
5.017
0
VERTEX
8
CUT
10
85.121
20
5.019
0
VERTEX
8
CUT
10
83.091
20
5.022
0
VERTEX
8
CUT
10
81.068
20
5.025
0
VERTEX
8
CUT
10
79.062
20
5.029
0
VERTEX
8
CUT
10
77.087
20
5.034
0
VERTEX
8
CUT
10
75.151
20
5.039
0
VERTEX
8
CUT
10
73.267
20
5.046
0
VERTEX
8
CUT
10
71.445
20
5.053
0
VERTEX
8
CUT
10
69.697
20
5.062
0
VERTEX
8
CUT
10
68.032
20
5.072
0
VERTEX
8
CUT
10
66.463
20
5.083
0
VERTEX
8
CUT
10
65.000
20
5.097
0
VERTEX
8
CUT
10
62.407
20
5.126
0
VERTEX
8
CUT
10
60.195
20
5.157
0
VERTEX
8
CUT
10
58.276
20
5.192
0
VERTEX
8
CUT
10
56.562
20
5.232
0
VERTEX
8
CUT
10
54.966
20
5.277
0
VERTEX
8
CUT
10
53.398
20
5.329
0
VERTEX
8
CUT
10
51.772
20
5.388
0
VERTEX
8
CUT
10
50.000
20
5.457
0
VERTEX
8
CUT
10
48.074
20
5.538
0
VERTEX
8
CUT
10
46.074
20
5.632
0
VERTEX
8
CUT
10
44.045
20
5.735
0
VERTEX
8
CUT
10
42.031
20
5.845
0
VERTEX
8
CUT
10
40.076
20
5.956
0
VERTEX
8
CUT
10
38.223
20
6.066
0
VERTEX
8
CUT
10
36.516
20
6.171
0
VERTEX
8
CUT
10
35.000
20
6.267
0
VERTEX
8
CUT
10
32.598
20
6.430
0
VERTEX
8
CUT
10
30.781
20
6.576
0
VERTEX
8
CUT
10
29.199
20
6.724
0
VERTEX
8
CUT
10
27.500
20
6.897
0
VERTEX
8
CUT
10
25.625
20
7.086
0
VERTEX
8
CUT
10
23.750
20
7.285
0
VERTEX
8
CUT
10
21.875
20
7.515
0
VERTEX
8
CUT
10
20.000
20
7.797
0
VERTEX
8
CUT
10
18.037
20
8.157
0
VERTEX
8
CUT
10
16.016
20
8.577
0
VERTEX
8
CUT
10
14.111
20
9.012
0
VERTEX
8
CUT
10
12.500
20
9.417
0
VERTEX
8
CUT
10
10.391
20
9.914
0
VERTEX
8
CUT
10
8.750
20
10.797
0
VERTEX
8
CUT
10
7.725
20
11.850
0
VERTEX
8
CUT
10
6.641
20
13.238
0
VERTEX
8
CUT
10
5.674
20
14.582
0
SEQEND
0
TEXT
8
POPIS
10
11.000
20
8.000
40
5.000
1
zebro-plne-300
0
POLYLINE
8
CUT
66
1
70
1
0
VERTEX
8
CUT
10
309.000
20
15.507
0
VERTEX
8
CUT
10
309.674
20
16.621
0
VERTEX
8
CUT
10
310.641
20
18.235
0
VERTEX
8
CUT
10
311.725
20
19.947
0
VERTEX
8
CUT
10
312.750
20
21.357
0
VERTEX
8
CUT
10
313.861
20
22.568
0
VERTEX
8
CUT
10
314.972
20
23.479
0
VERTEX
8
CUT
10
316.500
20
24.507
0
VERTEX
8
CUT
10
317.760
20
25.301
0
VERTEX
8
CUT
10
319.230
20
26.176
0
VERTEX
8
CUT
10
320.820
20
27.073
0
VERTEX
8
CUT
10
322.440
20
27.936
0
VERTEX
8
CUT
10
324.000
20
28.707
0
VERTEX
8
CUT
10
325.500
20
29.373
0
VERTEX
8
CUT
10
327.000
20
29.973
0
VERTEX
8
CUT
10
328.500
20
30.525
0
VERTEX
8
CUT
10
330.000
20
31.047
0
VERTEX
8
CUT
10
330.400
20
31.183
0
VERTEX
8
CUT
10
331.995
20
26.444
0
VERTEX
8
CUT
10
337.195
20
28.158
0
VERTEX
8
CUT
10
335.600
20
32.897
0
VERTEX
8
CUT
10
336.598
20
33.189
0
VERTEX
8
CUT
10
339.000
20
33.807
0
VERTEX
8
CUT
10
340.516
20
34.172
0
VERTEX
8
CUT
10
342.223
20
34.575
0
VERTEX
8
CUT
10
344.076
20
35.002
0
VERTEX
8
CUT
10
346.031
20
35.440
0
VERTEX
8
CUT
10
348.045
20
35.876
0
VERTEX
8
CUT
10
350.074
20
36.298
0
VERTEX
8
CUT
10
352.074
20
36.692
0
VERTEX
8
CUT
10
354.000
20
37.047
0
VERTEX
8
CUT
10
355.772
20
37.366
0
VERTEX
8
CUT
10
357.398
20
37.665
0
VERTEX
8
CUT
10
358.966
20
37.944
0
VERTEX
8
CUT
10
360.562
20
38.205
0
VERTEX
8
CUT
10
362.276
20
38.449
0
VERTEX
8
CUT
10
364.195
20
38.677
0
VERTEX
8
CUT
10
366.407
20
38.889
0
VERTEX
8
CUT
10
369.000
20
39.087
0
VERTEX
8
CUT
10
370.463
20
39.182
0
VERTEX
8
CUT
10
372.032
20
39.276
0
VERTEX
8
CUT
10
373.697
20
39.368
0
VERTEX
8
CUT
10
375.445
20
39.458
0
VERTEX
8
CUT
10
377.267
20
39.545
0
VERTEX
8
CUT
10
379.151
20
39.628
0
VERTEX
8
CUT
10
381.087
20
39.707
0
VERTEX
8
CUT
10
383.062
20
39.780
0
VERTEX
8
CUT
10
385.068
20
39.848
0
VERTEX
8
CUT
10
387.091
20
39.910
0
VERTEX
8
CUT
10
389.121
20
39.964
0
VERTEX
8
CUT
10
391.148
20
40.011
0
VERTEX
8
CUT
10
393.161
20
40.049
0
VERTEX
8
CUT
10
395.147
20
40.078
0
VERTEX
8
CUT
10
396.400
20
40.091
0
VERTEX
8
CUT
10
396.412
20
35.091
0
VERTEX
8
CUT
10
401.612
20
35.103
0
VERTEX
8
CUT
10
401.600
20
40.103
0
VERTEX
8
CUT
10
402.750
20
40.098
0
VERTEX
8
CUT
10
404.625
20
40.082
0
VERTEX
8
CUT
10
406.500
20
40.057
0
VERTEX
8
CUT
10
408.375
20
40.026
0
VERTEX
8
CUT
10
410.250
20
39.986
0
VERTEX
8
CUT
10
412.125
20
39.939
0
VERTEX
8
CUT
10
414.000
20
39.885
0
VERTEX
8
CUT
10
415.875
20
39.824
0
VERTEX
8
CUT
10
417.750
20
39.756
0
VERTEX
8
CUT
10
419.625
20
39.681
0
VERTEX
8
CUT
10
421.500
20
39.599
0
VERTEX
8
CUT
10
423.375
20
39.511
0
VERTEX
8
CUT
10
425.250
20
39.416
0
VERTEX
8
CUT
10
427.125
20
39.314
0
VERTEX
8
CUT
10
429.000
20
39.207
0
VERTEX
8
CUT
10
430.875
20
39.092
0
VERTEX
8
CUT
10
432.750
20
38.970
0
VERTEX
8
CUT
10
434.625
20
38.840
0
VERTEX
8
CUT
10
436.500
20
38.703
0
VERTEX
8
CUT
10
438.375
20
38.560
0
VERTEX
8
CUT
10
440.250
20
38.409
0
VERTEX
8
CUT
10
442.125
20
38.251
0
VERTEX
8
CUT
10
444.000
20
38.087
0
VERTEX
8
CUT
10
445.875
20
37.917
0
VERTEX
8
CUT
10
447.750
20
37.741
0
VERTEX
8
CUT
10
449.625
20
37.559
0
VERTEX
8
CUT
10
451.500
20
37.371
0
VERTEX
8
CUT
10
453.375
20
37.177
0
VERTEX
8
CUT
10
455.250
20
36.979
0
VERTEX
8
CUT
10
457.125
20
36.775
0
VERTEX
8
CUT
10
459.000
20
36.567
0
VERTEX
8
CUT
10
460.875
20
36.353
0
VERTEX
8
CUT
10
462.400
20
36.173
0
VERTEX
8
CUT
10
461.789
20
31.211
0
VERTEX
8
CUT
10
466.989
20
30.570
0
VERTEX
8
CUT
10
467.600
20
35.533
0
VERTEX
8
CUT
10
468.375
20
35.434
0
VERTEX
8
CUT
10
470.250
20
35.190
0
VERTEX
8
CUT
10
472.125
20
34.940
0
VERTEX
8
CUT
10
474.000
20
34.684
0
VERTEX
8
CUT
10
475.875
20
34.423
0
VERTEX
8
CUT
10
477.750
20
34.157
0
VERTEX
8
CUT
10
479.625
20
33.886
0
VERTEX
8
CUT
10
481.500
20
33.609
0
VERTEX
8
CUT
10
483.375
20
33.328
0
VERTEX
8
CUT
10
485.250
20
33.042
0
VERTEX
8
CUT
10
487.125
20
32.752
0
VERTEX
8
CUT
10
489.000
20
32.457
0
VERTEX
8
CUT
10
490.875
20
32.156
0
VERTEX
8
CUT
10
492.750
20
31.850
0
VERTEX
8
CUT
10
494.625
20
31.538
0
VERTEX
8
CUT
10
496.500
20
31.221
0
VERTEX
8
CUT
10
498.375
20
30.898
0
VERTEX
8
CUT
10
500.250
20
30.570
0
VERTEX
8
CUT
10
502.125
20
30.237
0
VERTEX
8
CUT
10
504.000
20
29.899
0
VERTEX
8
CUT
10
505.875
20
29.557
0
VERTEX
8
CUT
10
507.750
20
29.211
0
VERTEX
8
CUT
10
509.625
20
28.861
0
VERTEX
8
CUT
10
511.500
20
28.507
0
VERTEX
8
CUT
10
513.375
20
28.149
0
VERTEX
8
CUT
10
515.250
20
27.788
0
VERTEX
8
CUT
10
517.125
20
27.424
0
VERTEX
8
CUT
10
519.000
20
27.057
0
VERTEX
8
CUT
10
520.875
20
26.686
0
VERTEX
8
CUT
10
522.750
20
26.311
0
VERTEX
8
CUT
10
524.625
20
25.932
0
VERTEX
8
CUT
10
526.500
20
25.549
0
VERTEX
8
CUT
10
528.375
20
25.162
0
VERTEX
8
CUT
10
528.400
20
25.157
0
VERTEX
8
CUT
10
527.371
20
20.264
0
VERTEX
8
CUT
10
532.571
20
19.170
0
VERTEX
8
CUT
10
533.600
20
24.063
0
VERTEX
8
CUT
10
534.000
20
23.978
0
VERTEX
8
CUT
10
535.875
20
23.576
0
VERTEX
8
CUT
10
537.750
20
23.170
0
VERTEX
8
CUT
10
539.625
20
22.761
0
VERTEX
8
CUT
10
541.500
20
22.349
0
VERTEX
8
CUT
10
543.375
20
21.933
0
VERTEX
8
CUT
10
545.250
20
21.514
0
VERTEX
8
CUT
10
547.125
20
21.092
0
VERTEX
8
CUT
10
549.000
20
20.667
0
VERTEX
8
CUT
10
550.902
20
20.231
0
VERTEX
8
CUT
10
552.853
20
19.778
0
VERTEX
8
CUT
10
554.839
20
19.312
0
VERTEX
8
CUT
10
556.852
20
18.835
0
VERTEX
8
CUT
10
558.879
20
18.350
0
VERTEX
8
CUT
10
560.909
20
17.862
0
VERTEX
8
CUT
10
562.932
20
17.371
0
VERTEX
8
CUT
10
564.938
20
16.883
0
VERTEX
8
CUT
10
566.913
20
16.399
0
VERTEX
8
CUT
10
568.849
20
15.924
0
VERTEX
8
CUT
10
570.733
20
15.459
0
VERTEX
8
CUT
10
572.555
20
15.008
0
VERTEX
8
CUT
10
574.303
20
14.574
0
VERTEX
8
CUT
10
575.968
20
14.161
0
VERTEX
8
CUT
10
577.537
20
13.771
0
VERTEX
8
CUT
10
579.000
20
13.407
0
VERTEX
8
CUT
10
581.593
20
12.757
0
VERTEX
8
CUT
10
583.805
20
12.194
0
VERTEX
8
CUT
10
585.724
20
11.697
0
VERTEX
8
CUT
10
587.438
20
11.245
0
VERTEX
8
CUT
10
589.034
20
10.817
0
VERTEX
8
CUT
10
590.602
20
10.394
0
VERTEX
8
CUT
10
592.228
20
9.954
0
VERTEX
8
CUT
10
594.000
20
9.477
0
VERTEX
8
CUT
10
595.978
20
8.943
0
VERTEX
8
CUT
10
598.102
20
8.365
0
VERTEX
8
CUT
10
600.284
20
7.768
0
VERTEX
8
CUT
10
602.438
20
7.176
0
VERTEX
8
CUT
10
604.474
20
6.615
0
VERTEX
8
CUT
10
606.305
20
6.109
0
VERTEX
8
CUT
10
607.843
20
5.685
0
VERTEX
8
CUT
10
609.000
20
5.367
0
VERTEX
8
CUT
10
609.000
20
5.007
0
VERTEX
8
CUT
10
607.843
20
5.007
0
VERTEX
8
CUT
10
606.305
20
5.007
0
VERTEX
8
CUT
10
604.474
20
5.007
0
VERTEX
8
CUT
10
602.438
20
5.007
0
VERTEX
8
CUT
10
600.284
20
5.007
0
VERTEX
8
CUT
10
598.102
20
5.007
0
VERTEX
8
CUT
10
595.978
20
5.007
0
VERTEX
8
CUT
10
594.000
20
5.007
0
VERTEX
8
CUT
10
592.228
20
5.007
0
VERTEX
8
CUT
10
590.602
20
5.007
0
VERTEX
8
CUT
10
589.034
20
5.007
0
VERTEX
8
CUT
10
587.438
20
5.007
0
VERTEX
8
CUT
10
585.724
20
5.007
0
VERTEX
8
CUT
10
583.805
20
5.007
0
VERTEX
8
CUT
10
581.593
20
5.007
0
VERTEX
8
CUT
10
579.000
20
5.007
0
VERTEX
8
CUT
10
577.436
20
5.007
0
VERTEX
8
CUT
10
575.751
20
5.007
0
VERTEX
8
CUT
10
573.960
20
5.007
0
VERTEX
8
CUT
10
572.076
20
5.007
0
VERTEX
8
CUT
10
570.111
20
5.007
0
VERTEX
8
CUT
10
568.080
20
5.007
0
VERTEX
8
CUT
10
565.996
20
5.007
0
VERTEX
8
CUT
10
563.871
20
5.007
0
VERTEX
8
CUT
10
561.720
20
5.007
0
VERTEX
8
CUT
10
559.556
20
5.007
0
VERTEX
8
CUT
10
557.391
20
5.007
0
VERTEX
8
CUT
10
555.240
20
5.007
0
VERTEX
8
CUT
10
553.116
20
5.007
0
VERTEX
8
CUT
10
551.031
20
5.007
0
VERTEX
8
CUT
10
549.000
20
5.007
0
VERTEX
8
CUT
10
547.000
20
5.007
0
VERTEX
8
CUT
10
545.000
20
5.007
0
VERTEX
8
CUT
10
543.000
20
5.007
0
VERTEX
8
CUT
10
541.000
20
5.007
0
VERTEX
8
CUT
10
539.000
20
5.007
0
VERTEX
8
CUT
10
537.000
20
5.007
0
VERTEX
8
CUT
10
535.000
20
5.007
0
VERTEX
8
CUT
10
533.600
20
5.007
0
VERTEX
8
CUT
10
533.600
20
10.007
0
VERTEX
8
CUT
10
528.400
20
10.007
0
VERTEX
8
CUT
10
528.400
20
5.007
0
VERTEX
8
CUT
10
527.000
20
5.007
0
VERTEX
8
CUT
10
525.000
20
5.007
0
VERTEX
8
CUT
10
523.000
20
5.007
0
VERTEX
8
CUT
10
521.000
20
5.007
0
VERTEX
8
CUT
10
519.000
20
5.007
0
VERTEX
8
CUT
10
517.000
20
5.007
0
VERTEX
8
CUT
10
515.000
20
5.007
0
VERTEX
8
CUT
10
513.000
20
5.007
0
VERTEX
8
CUT
10
511.000
20
5.007
0
VERTEX
8
CUT
10
509.000
20
5.007
0
VERTEX
8
CUT
10
507.000
20
5.007
0
VERTEX
8
CUT
10
505.000
20
5.007
0
VERTEX
8
CUT
10
503.000
20
5.007
0
VERTEX
8
CUT
10
501.000
20
5.007
0
VERTEX
8
CUT
10
499.000
20
5.007
0
VERTEX
8
CUT
10
497.000
20
5.007
0
VERTEX
8
CUT
10
495.000
20
5.007
0
VERTEX
8
CUT
10
493.000
20
5.007
0
VERTEX
8
CUT
10
491.000
20
5.007
0
VERTEX
8
CUT
10
489.000
20
5.007
0
VERTEX
8
CUT
10
487.000
20
5.007
0
VERTEX
8
CUT
10
485.000
20
5.007
0
VERTEX
8
CUT
10
483.000
20
5.007
0
VERTEX
8
CUT
10
481.000
20
5.007
0
VERTEX
8
CUT
10
479.000
20
5.007
0
VERTEX
8
CUT
10
477.000
20
5.007
0
VERTEX
8
CUT
10
475.000
20
5.007
0
VERTEX
8
CUT
10
473.000
20
5.007
0
VERTEX
8
CUT
10
471.000
20
5.007
0
VERTEX
8
CUT
10
469.000
20
5.007
0
VERTEX
8
CUT
10
467.600
20
5.007
0
VERTEX
8
CUT
10
467.600
20
10.007
0
VERTEX
8
CUT
10
462.400
20
10.007
0
VERTEX
8
CUT
10
462.400
20
5.007
0
VERTEX
8
CUT
10
461.000
20
5.007
0
VERTEX
8
CUT
10
459.000
20
5.007
0
VERTEX
8
CUT
10
457.000
20
5.007
0
VERTEX
8
CUT
10
455.000
20
5.007
0
VERTEX
8
CUT
10
453.000
20
5.007
0
VERTEX
8
CUT
10
451.000
20
5.007
0
VERTEX
8
CUT
10
449.000
20
5.007
0
VERTEX
8
CUT
10
447.000
20
5.007
0
VERTEX
8
CUT
10
445.000
20
5.007
0
VERTEX
8
CUT
10
443.000
20
5.007
0
VERTEX
8
CUT
10
441.000
20
5.007
0
VERTEX
8
CUT
10
439.000
20
5.007
0
VERTEX
8
CUT
10
437.000
20
5.007
0
VERTEX
8
CUT
10
435.000
20
5.007
0
VERTEX
8
CUT
10
433.000
20
5.007
0
VERTEX
8
CUT
10
431.000
20
5.007
0
VERTEX
8
CUT
10
429.000
20
5.007
0
VERTEX
8
CUT
10
427.000
20
5.006
0
VERTEX
8
CUT
10
425.000
20
5.006
0
VERTEX
8
CUT
10
423.000
20
5.005
0
VERTEX
8
CUT
10
421.000
20
5.004
0
VERTEX
8
CUT
10
419.000
20
5.003
0
VERTEX
8
CUT
10
417.000
20
5.002
0
VERTEX
8
CUT
10
415.000
20
5.001
0
VERTEX
8
CUT
10
413.000
20
5.001
0
VERTEX
8
CUT
10
411.000
20
5.000
0
VERTEX
8
CUT
10
409.000
20
5.000
0
VERTEX
8
CUT
10
407.000
20
5.000
0
VERTEX
8
CUT
10
405.000
20
5.001
0
VERTEX
8
CUT
10
403.000
20
5.002
0
VERTEX
8
CUT
10
401.600
20
5.003
0
VERTEX
8
CUT
10
401.607
20
10.003
0
VERTEX
8
CUT
10
396.407
20
10.010
0
VERTEX
8
CUT
10
396.400
20
5.010
0
VERTEX
8
CUT
10
395.147
20
5.012
0
VERTEX
8
CUT
10
393.161
20
5.014
0
VERTEX
8
CUT
10
391.148
20
5.017
0
VERTEX
8
CUT
10
389.121
20
5.019
0
VERTEX
8
CUT
10
387.091
20
5.022
0
VERTEX
8
CUT
10
385.068
20
5.025
0
VERTEX
8
CUT
10
383.062
20
5.029
0
VERTEX
8
CUT
10
381.087
20
5.034
0
VERTEX
8
CUT
10
379.151
20
5.039
0
VERTEX
8
CUT
10
377.267
20
5.046
0
VERTEX
8
CUT
10
375.445
20
5.053
0
VERTEX
8
CUT
10
373.697
20
5.062
0
VERTEX
8
CUT
10
372.032
20
5.072
0
VERTEX
8
CUT
10
370.463
20
5.083
0
VERTEX
8
CUT
10
369.000
20
5.097
0
VERTEX
8
CUT
10
366.407
20
5.126
0
VERTEX
8
CUT
10
364.195
20
5.157
0
VERTEX
8
CUT
10
362.276
20
5.192
0
VERTEX
8
CUT
10
360.562
20
5.232
0
VERTEX
8
CUT
10
358.966
20
5.277
0
VERTEX
8
CUT
10
357.398
20
5.329
0
VERTEX
8
CUT
10
355.772
20
5.388
0
VERTEX
8
CUT
10
354.000
20
5.457
0
VERTEX
8
CUT
10
352.074
20
5.538
0
VERTEX
8
CUT
10
350.074
20
5.632
0
VERTEX
8
CUT
10
348.045
20
5.735
0
VERTEX
8
CUT
10
346.031
20
5.845
0
VERTEX
8
CUT
10
344.076
20
5.956
0
VERTEX
8
CUT
10
342.223
20
6.066
0
VERTEX
8
CUT
10
340.516
20
6.171
0
VERTEX
8
CUT
10
339.000
20
6.267
0
VERTEX
8
CUT
10
336.598
20
6.430
0
VERTEX
8
CUT
10
334.781
20
6.576
0
VERTEX
8
CUT
10
333.199
20
6.724
0
VERTEX
8
CUT
10
331.500
20
6.897
0
VERTEX
8
CUT
10
329.625
20
7.086
0
VERTEX
8
CUT
10
327.750
20
7.285
0
VERTEX
8
CUT
10
325.875
20
7.515
0
VERTEX
8
CUT
10
324.000
20
7.797
0
VERTEX
8
CUT
10
322.037
20
8.157
0
VERTEX
8
CUT
10
320.016
20
8.577
0
VERTEX
8
CUT
10
318.111
20
9.012
0
VERTEX
8
CUT
10
316.500
20
9.417
0
VERTEX
8
CUT
10
314.391
20
9.914
0
VERTEX
8
CUT
10
312.750
20
10.797
0
VERTEX
8
CUT
10
311.725
20
11.850
0
VERTEX
8
CUT
10
310.641
20
13.238
0
VERTEX
8
CUT
10
309.674
20
14.582
0
SEQEND
0
TEXT
8
POPIS
10
315.000
20
8.000
40
5.000
1
zebro-plne-300
0
POLYLINE
8
CUT
66
1
70
1
0
VERTEX
8
CUT
10
613.000
20
15.507
0
VERTEX
8
CUT
10
613.674
20
16.621
0
VERTEX
8
CUT
10
614.641
20
18.235
0
VERTEX
8
CUT
10
615.725
20
19.947
0
VERTEX
8
CUT
10
616.750
20
21.357
0
VERTEX
8
CUT
10
617.861
20
22.568
0
VERTEX
8
CUT
10
618.972
20
23.479
0
VERTEX
8
CUT
10
620.500
20
24.507
0
VERTEX
8
CUT
10
621.760
20
25.301
0
VERTEX
8
CUT
10
623.230
20
26.176
0
VERTEX
8
CUT
10
624.820
20
27.073
0
VERTEX
8
CUT
10
626.440
20
27.936
0
VERTEX
8
CUT
10
628.000
20
28.707
0
VERTEX
8
CUT
10
629.500
20
29.373
0
VERTEX
8
CUT
10
631.000
20
29.973
0
VERTEX
8
CUT
10
632.500
20
30.525
0
VERTEX
8
CUT
10
634.000
20
31.047
0
VERTEX
8
CUT
10
634.400
20
31.183
0
VERTEX
8
CUT
10
635.995
20
26.444
0
VERTEX
8
CUT
10
641.195
20
28.158
0
VERTEX
8
CUT
10
639.600
20
32.897
0
VERTEX
8
CUT
10
640.598
20
33.189
0
VERTEX
8
CUT
10
643.000
20
33.807
0
VERTEX
8
CUT
10
644.516
20
34.172
0
VERTEX
8
CUT
10
646.223
20
34.575
0
VERTEX
8
CUT
10
648.076
20
35.002
0
VERTEX
8
CUT
10
650.031
20
35.440
0
VERTEX
8
CUT
10
652.045
20
35.876
0
VERTEX
8
CUT
10
654.074
20
36.298
0
VERTEX
8
CUT
10
656.074
20
36.692
0
VERTEX
8
CUT
10
658.000
20
37.047
0
VERTEX
8
CUT
10
659.772
20
37.366
0
VERTEX
8
CUT
10
661.398
20
37.665
0
VERTEX
8
CUT
10
662.966
20
37.944
0
VERTEX
8
CUT
10
664.562
20
38.205
0
VERTEX
8
CUT
10
666.276
20
38.449
0
VERTEX
8
CUT
10
668.195
20
38.677
0
VERTEX
8
CUT
10
670.407
20
38.889
0
VERTEX
8
CUT
10
673.000
20
39.087
0
VERTEX
8
CUT
10
674.463
20
39.182
0
VERTEX
8
CUT
10
676.032
20
39.276
0
VERTEX
8
CUT
10
677.697
20
39.368
0
VERTEX
8
CUT
10
679.445
20
39.458
0
VERTEX
8
CUT
10
681.267
20
39.545
0
VERTEX
8
CUT
10
683.151
20
39.628
0
VERTEX
8
CUT
10
685.087
20
39.707
0
VERTEX
8
CUT
10
687.062
20
39.780
0
VERTEX
8
CUT
10
689.068
20
39.848
0
VERTEX
8
CUT
10
691.091
20
39.910
0
VERTEX
8
CUT
10
693.121
20
39.964
0
VERTEX
8
CUT
10
695.148
20
40.011
0
VERTEX
8
CUT
10
697.161
20
40.049
0
VERTEX
8
CUT
10
699.147
20
40.078
0
VERTEX
8
CUT
10
700.400
20
40.091
0
VERTEX
8
CUT
10
700.412
20
35.091
0
VERTEX
8
CUT
10
705.612
20
35.103
0
VERTEX
8
CUT
10
705.600
20
40.103
0
VERTEX
8
CUT
10
706.750
20
40.098
0
VERTEX
8
CUT
10
708.625
20
40.082
0
VERTEX
8
CUT
10
710.500
20
40.057
0
VERTEX
8
CUT
10
712.375
20
40.026
0
VERTEX
8
CUT
10
714.250
20
39.986
0
VERTEX
8
CUT
10
716.125
20
39.939
0
VERTEX
8
CUT
10
718.000
20
39.885
0
VERTEX
8
CUT
10
719.875
20
39.824
0
VERTEX
8
CUT
10
721.750
20
39.756
0
VERTEX
8
CUT
10
723.625
20
39.681
0
VERTEX
8
CUT
10
725.500
20
39.599
0
VERTEX
8
CUT
10
727.375
20
39.511
0
VERTEX
8
CUT
10
729.250
20
39.416
0
VERTEX
8
CUT
10
731.125
20
39.314
0
VERTEX
8
CUT
10
733.000
20
39.207
0
VERTEX
8
CUT
10
734.875
20
39.092
0
VERTEX
8
CUT
10
736.750
20
38.970
0
VERTEX
8
CUT
10
738.625
20
38.840
0
VERTEX
8
CUT
10
740.500
20
38.703
0
VERTEX
8
CUT
10
742.375
20
38.560
0
VERTEX
8
CUT
10
744.250
20
38.409
0
VERTEX
8
CUT
10
746.125
20
38.251
0
VERTEX
8
CUT
10
748.000
20
38.087
0
VERTEX
8
CUT
10
749.875
20
37.917
0
VERTEX
8
CUT
10
751.750
20
37.741
0
VERTEX
8
CUT
10
753.625
20
37.559
0
VERTEX
8
CUT
10
755.500
20
37.371
0
VERTEX
8
CUT
10
757.375
20
37.177
0
VERTEX
8
CUT
10
759.250
20
36.979
0
VERTEX
8
CUT
10
761.125
20
36.775
0
VERTEX
8
CUT
10
763.000
20
36.567
0
VERTEX
8
CUT
10
764.875
20
36.353
0
VERTEX
8
CUT
10
766.400
20
36.173
0
VERTEX
8
CUT
10
765.789
20
31.211
0
VERTEX
8
CUT
10
770.989
20
30.570
0
VERTEX
8
CUT
10
771.600
20
35.533
0
VERTEX
8
CUT
10
772.375
20
35.434
0
VERTEX
8
CUT
10
774.250
20
35.190
0
VERTEX
8
CUT
10
776.125
20
34.940
0
VERTEX
8
CUT
10
778.000
20
34.684
0
VERTEX
8
CUT
10
779.875
20
34.423
0
VERTEX
8
CUT
10
781.750
20
34.157
0
VERTEX
8
CUT
10
783.625
20
33.886
0
VERTEX
8
CUT
10
785.500
20
33.609
0
VERTEX
8
CUT
10
787.375
20
33.328
0
VERTEX
8
CUT
10
789.250
20
33.042
0
VERTEX
8
CUT
10
791.125
20
32.752
0
VERTEX
8
CUT
10
793.000
20
32.457
0
VERTEX
8
CUT
10
794.875
20
32.156
0
VERTEX
8
CUT
10
796.750
20
31.850
0
VERTEX
8
CUT
10
798.625
20
31.538
0
VERTEX
8
CUT
10
800.500
20
31.221
0
VERTEX
8
CUT
10
802.375
20
30.898
0
VERTEX
8
CUT
10
804.250
20
30.570
0
VERTEX
8
CUT
10
806.125
20
30.237
0
VERTEX
8
CUT
10
808.000
20
29.899
0
VERTEX
8
CUT
10
809.875
20
29.557
0
VERTEX
8
CUT
10
811.750
20
29.211
0
VERTEX
8
CUT
10
813.625
20
28.861
0
VERTEX
8
CUT
10
815.500
20
28.507
0
VERTEX
8
CUT
10
817.375
20
28.149
0
VERTEX
8
CUT
10
819.250
20
27.788
0
VERTEX
8
CUT
10
821.125
20
27.424
0
VERTEX
8
CUT
10
823.000
20
27.057
0
VERTEX
8
CUT
10
824.875
20
26.686
0
VERTEX
8
CUT
10
826.750
20
26.311
0
VERTEX
8
CUT
10
828.625
20
25.932
0
VERTEX
8
CUT
10
830.500
20
25.549
0
VERTEX
8
CUT
10
832.375
20
25.162
0
VERTEX
8
CUT
10
832.400
20
25.157
0
VERTEX
8
CUT
10
831.371
20
20.264
0
VERTEX
8
CUT
10
836.571
20
19.170
0
VERTEX
8
CUT
10
837.600
20
24.063
0
VERTEX
8
CUT
10
838.000
20
23.978
0
VERTEX
8
CUT
10
839.875
20
23.576
0
VERTEX
8
CUT
10
841.750
20
23.170
0
VERTEX
8
CUT
10
843.625
20
22.761
0
VERTEX
8
CUT
10
845.500
20
22.349
0
VERTEX
8
CUT
10
847.375
20
21.933
0
VERTEX
8
CUT
10
849.250
20
21.514
0
VERTEX
8
CUT
10
851.125
20
21.092
0
VERTEX
8
CUT
10
853.000
20
20.667
0
VERTEX
8
CUT
10
854.902
20
20.231
0
VERTEX
8
CUT
10
856.853
20
19.778
0
VERTEX
8
CUT
10
858.839
20
19.312
0
VERTEX
8
CUT
10
860.852
20
18.835
0
VERTEX
8
CUT
10
862.879
20
18.350
0
VERTEX
8
CUT
10
864.909
20
17.862
0
VERTEX
8
CUT
10
866.932
20
17.371
0
VERTEX
8
CUT
10
868.938
20
16.883
0
VERTEX
8
CUT
10
870.913
20
16.399
0
VERTEX
8
CUT
10
872.849
20
15.924
0
VERTEX
8
CUT
10
874.733
20
15.459
0
VERTEX
8
CUT
10
876.555
20
15.008
0
VERTEX
8
CUT
10
878.303
20
14.574
0
VERTEX
8
CUT
10
879.968
20
14.161
0
VERTEX
8
CUT
10
881.537
20
13.771
0
VERTEX
8
CUT
10
883.000
20
13.407
0
VERTEX
8
CUT
10
885.593
20
12.757
0
VERTEX
8
CUT
10
887.805
20
12.194
0
VERTEX
8
CUT
10
889.724
20
11.697
0
VERTEX
8
CUT
10
891.438
20
11.245
0
VERTEX
8
CUT
10
893.034
20
10.817
0
VERTEX
8
CUT
10
894.602
20
10.394
0
VERTEX
8
CUT
10
896.228
20
9.954
0
VERTEX
8
CUT
10
898.000
20
9.477
0
VERTEX
8
CUT
10
899.978
20
8.943
0
VERTEX
8
CUT
10
902.102
20
8.365
0
VERTEX
8
CUT
10
904.284
20
7.768
0
VERTEX
8
CUT
10
906.438
20
7.176
0
VERTEX
8
CUT
10
908.474
20
6.615
0
VERTEX
8
CUT
10
910.305
20
6.109
0
VERTEX
8
CUT
10
911.843
20
5.685
0
VERTEX
8
CUT
10
913.000
20
5.367
0
VERTEX
8
CUT
10
913.000
20
5.007
0
VERTEX
8
CUT
10
911.843
20
5.007
0
VERTEX
8
CUT
10
910.305
20
5.007
0
VERTEX
8
CUT
10
908.474
20
5.007
0
VERTEX
8
CUT
10
906.438
20
5.007
0
VERTEX
8
CUT
10
904.284
20
5.007
0
VERTEX
8
CUT
10
902.102
20
5.007
0
VERTEX
8
CUT
10
899.978
20
5.007
0
VERTEX
8
CUT
10
898.000
20
5.007
0
VERTEX
8
CUT
10
896.228
20
5.007
0
VERTEX
8
CUT
10
894.602
20
5.007
0
VERTEX
8
CUT
10
893.034
20
5.007
0
VERTEX
8
CUT
10
891.438
20
5.007
0
VERTEX
8
CUT
10
889.724
20
5.007
0
VERTEX
8
CUT
10
887.805
20
5.007
0
VERTEX
8
CUT
10
885.593
20
5.007
0
VERTEX
8
CUT
10
883.000
20
5.007
0
VERTEX
8
CUT
10
881.436
20
5.007
0
VERTEX
8
CUT
10
879.751
20
5.007
0
VERTEX
8
CUT
10
877.960
20
5.007
0
VERTEX
8
CUT
10
876.076
20
5.007
0
VERTEX
8
CUT
10
874.111
20
5.007
0
VERTEX
8
CUT
10
872.080
20
5.007
0
VERTEX
8
CUT
10
869.996
20
5.007
0
VERTEX
8
CUT
10
867.871
20
5.007
0
VERTEX
8
CUT
10
865.720
20
5.007
0
VERTEX
8
CUT
10
863.556
20
5.007
0
VERTEX
8
CUT
10
861.391
20
5.007
0
VERTEX
8
CUT
10
859.240
20
5.007
0
VERTEX
8
CUT
10
857.116
20
5.007
0
VERTEX
8
CUT
10
855.031
20
5.007
0
VERTEX
8
CUT
10
853.000
20
5.007
0
VERTEX
8
CUT
10
851.000
20
5.007
0
VERTEX
8
CUT
10
849.000
20
5.007
0
VERTEX
8
CUT
10
847.000
20
5.007
0
VERTEX
8
CUT
10
845.000
20
5.007
0
VERTEX
8
CUT
10
843.000
20
5.007
0
VERTEX
8
CUT
10
841.000
20
5.007
0
VERTEX
8
CUT
10
839.000
20
5.007
0
VERTEX
8
CUT
10
837.600
20
5.007
0
VERTEX
8
CUT
10
837.600
20
10.007
0
VERTEX
8
CUT
10
832.400
20
10.007
0
VERTEX
8
CUT
10
832.400
20
5.007
0
VERTEX
8
CUT
10
831.000
20
5.007
0
VERTEX
8
CUT
10
829.000
20
5.007
0
VERTEX
8
CUT
10
827.000
20
5.007
0
VERTEX
8
CUT
10
825.000
20
5.007
0
VERTEX
8
CUT
10
823.000
20
5.007
0
VERTEX
8
CUT
10
821.000
20
5.007
0
VERTEX
8
CUT
10
819.000
20
5.007
0
VERTEX
8
CUT
10
817.000
20
5.007
0
VERTEX
8
CUT
10
815.000
20
5.007
0
VERTEX
8
CUT
10
813.000
20
5.007
0
VERTEX
8
CUT
10
811.000
20
5.007
0
VERTEX
8
CUT
10
809.000
20
5.007
0
VERTEX
8
CUT
10
807.000
20
5.007
0
VERTEX
8
CUT
10
805.000
20
5.007
0
VERTEX
8
CUT
10
803.000
20
5.007
0
VERTEX
8
CUT
10
801.000
20
5.007
0
VERTEX
8
CUT
10
799.000
20
5.007
0
VERTEX
8
CUT
10
797.000
20
5.007
0
VERTEX
8
CUT
10
795.000
20
5.007
0
VERTEX
8
CUT
10
793.000
20
5.007
0
VERTEX
8
CUT
10
791.000
20
5.007
0
VERTEX
8
CUT
10
789.000
20
5.007
0
VERTEX
8
CUT
10
787.000
20
5.007
0
VERTEX
8
CUT
10
785.000
20
5.007
0
VERTEX
8
CUT
10
783.000
20
5.007
0
VERTEX
8
CUT
10
781.000
20
5.007
0
VERTEX
8
CUT
10
779.000
20
5.007
0
VERTEX
8
CUT
10
777.000
20
5.007
0
VERTEX
8
CUT
10
775.000
20
5.007
0
VERTEX
8
CUT
10
773.000
20
5.007
0
VERTEX
8
CUT
10
771.600
20
5.007
0
VERTEX
8
CUT
10
771.600
20
10.007
0
VERTEX
8
CUT
10
766.400
20
10.007
0
VERTEX
8
CUT
10
766.400
20
5.007
0
VERTEX
8
CUT
10
765.000
20
5.007
0
VERTEX
8
CUT
10
763.000
20
5.007
0
VERTEX
8
CUT
10
761.000
20
5.007
0
VERTEX
8
CUT
10
759.000
20
5.007
0
VERTEX
8
CUT
10
757.000
20
5.007
0
VERTEX
8
CUT
10
755.000
20
5.007
0
VERTEX
8
CUT
10
753.000
20
5.007
0
VERTEX
8
CUT
10
751.000
20
5.007
0
VERTEX
8
CUT
10
749.000
20
5.007
0
VERTEX
8
CUT
10
747.000
20
5.007
0
VERTEX
8
CUT
10
745.000
20
5.007
0
VERTEX
8
CUT
10
743.000
20
5.007
0
VERTEX
8
CUT
10
741.000
20
5.007
0
VERTEX
8
CUT
10
739.000
20
5.007
0
VERTEX
8
CUT
10
737.000
20
5.007
0
VERTEX
8
CUT
10
735.000
20
5.007
0
VERTEX
8
CUT
10
733.000
20
5.007
0
VERTEX
8
CUT
10
731.000
20
5.006
0
VERTEX
8
CUT
10
729.000
20
5.006
0
VERTEX
8
CUT
10
727.000
20
5.005
0
VERTEX
8
CUT
10
725.000
20
5.004
0
VERTEX
8
CUT
10
723.000
20
5.003
0
VERTEX
8
CUT
10
721.000
20
5.002
0
VERTEX
8
CUT
10
719.000
20
5.001
0
VERTEX
8
CUT
10
717.000
20
5.001
0
VERTEX
8
CUT
10
715.000
20
5.000
0
VERTEX
8
CUT
10
713.000
20
5.000
0
VERTEX
8
CUT
10
711.000
20
5.000
0
VERTEX
8
CUT
10
709.000
20
5.001
0
VERTEX
8
CUT
10
707.000
20
5.002
0
VERTEX
8
CUT
10
705.600
20
5.003
0
VERTEX
8
CUT
10
705.607
20
10.003
0
VERTEX
8
CUT
10
700.407
20
10.010
0
VERTEX
8
CUT
10
700.400
20
5.010
0
VERTEX
8
CUT
10
699.147
20
5.012
0
VERTEX
8
CUT
10
697.161
20
5.014
0
VERTEX
8
CUT
10
695.148
20
5.017
0
VERTEX
8
CUT
10
693.121
20
5.019
0
VERTEX
8
CUT
10
691.091
20
5.022
0
VERTEX
8
CUT
10
689.068
20
5.025
0
VERTEX
8
CUT
10
687.062
20
5.029
0
VERTEX
8
CUT
10
685.087
20
5.034
0
VERTEX
8
CUT
10
683.151
20
5.039
0
VERTEX
8
CUT
10
681.267
20
5.046
0
VERTEX
8
CUT
10
679.445
20
5.053
0
VERTEX
8
CUT
10
677.697
20
5.062
0
VERTEX
8
CUT
10
676.032
20
5.072
0
VERTEX
8
CUT
10
674.463
20
5.083
0
VERTEX
8
CUT
10
673.000
20
5.097
0
VERTEX
8
CUT
10
670.407
20
5.126
0
VERTEX
8
CUT
10
668.195
20
5.157
0
VERTEX
8
CUT
10
666.276
20
5.192
0
VERTEX
8
CUT
10
664.562
20
5.232
0
VERTEX
8
CUT
10
662.966
20
5.277
0
VERTEX
8
CUT
10
661.398
20
5.329
0
VERTEX
8
CUT
10
659.772
20
5.388
0
VERTEX
8
CUT
10
658.000
20
5.457
0
VERTEX
8
CUT
10
656.074
20
5.538
0
VERTEX
8
CUT
10
654.074
20
5.632
0
VERTEX
8
CUT
10
652.045
20
5.735
0
VERTEX
8
CUT
10
650.031
20
5.845
0
VERTEX
8
CUT
10
648.076
20
5.956
0
VERTEX
8
CUT
10
646.223
20
6.066
0
VERTEX
8
CUT
10
644.516
20
6.171
0
VERTEX
8
CUT
10
643.000
20
6.267
0
VERTEX
8
CUT
10
640.598
20
6.430
0
VERTEX
8
CUT
10
638.781
20
6.576
0
VERTEX
8
CUT
10
637.199
20
6.724
0
VERTEX
8
CUT
10
635.500
20
6.897
0
VERTEX
8
CUT
10
633.625
20
7.086
0
VERTEX
8
CUT
10
631.750
20
7.285
0
VERTEX
8
CUT
10
629.875
20
7.515
0
VERTEX
8
CUT
10
628.000
20
7.797
0
VERTEX
8
CUT
10
626.037
20
8.157
0
VERTEX
8
CUT
10
624.016
20
8.577
0
VERTEX
8
CUT
10
622.111
20
9.012
0
VERTEX
8
CUT
10
620.500
20
9.417
0
VERTEX
8
CUT
10
618.391
20
9.914
0
VERTEX
8
CUT
10
616.750
20
10.797
0
VERTEX
8
CUT
10
615.725
20
11.850
0
VERTEX
8
CUT
10
614.641
20
13.238
0
VERTEX
8
CUT
10
613.674
20
14.582
0
SEQEND
0
TEXT
8
POPIS
10
619.000
20
8.000
40
5.000
1
zebro-plne-300
0
POLYLINE
8
CUT
66
1
70
1
0
VERTEX
8
CUT
10
5.000
20
54.610
0
VERTEX
8
CUT
10
5.674
20
55.724
0
VERTEX
8
CUT
10
6.641
20
57.338
0
VERTEX
8
CUT
10
7.725
20
59.050
0
VERTEX
8
CUT
10
8.750
20
60.460
0
VERTEX
8
CUT
10
9.861
20
61.671
0
VERTEX
8
CUT
10
10.972
20
62.582
0
VERTEX
8
CUT
10
12.500
20
63.610
0
VERTEX
8
CUT
10
13.760
20
64.404
0
VERTEX
8
CUT
10
15.230
20
65.279
0
VERTEX
8
CUT
10
16.820
20
66.177
0
VERTEX
8
CUT
10
18.440
20
67.039
0
VERTEX
8
CUT
10
20.000
20
67.810
0
VERTEX
8
CUT
10
21.500
20
68.476
0
VERTEX
8
CUT
10
23.000
20
69.076
0
VERTEX
8
CUT
10
24.500
20
69.628
0
VERTEX
8
CUT
10
26.000
20
70.150
0
VERTEX
8
CUT
10
26.400
20
70.286
0
VERTEX
8
CUT
10
27.995
20
65.547
0
VERTEX
8
CUT
10
33.195
20
67.261
0
VERTEX
8
CUT
10
31.600
20
72.000
0
VERTEX
8
CUT
10
32.598
20
72.292
0
VERTEX
8
CUT
10
35.000
20
72.910
0
VERTEX
8
CUT
10
36.516
20
73.276
0
VERTEX
8
CUT
10
38.223
20
73.678
0
VERTEX
8
CUT
10
40.076
20
74.105
0
VERTEX
8
CUT
10
42.031
20
74.543
0
VERTEX
8
CUT
10
44.045
20
74.979
0
VERTEX
8
CUT
10
46.074
20
75.401
0
VERTEX
8
CUT
10
48.074
20
75.795
0
VERTEX
8
CUT
10
50.000
20
76.150
0
VERTEX
8
CUT
10
51.772
20
76.469
0
VERTEX
8
CUT
10
53.398
20
76.768
0
VERTEX
8
CUT
10
54.966
20
77.047
0
VERTEX
8
CUT
10
56.562
20
77.309
0
VERTEX
8
CUT
10
58.276
20
77.552
0
VERTEX
8
CUT
10
60.195
20
77.780
0
VERTEX
8
CUT
10
62.407
20
77.992
0
VERTEX
8
CUT
10
65.000
20
78.190
0
VERTEX
8
CUT
10
66.463
20
78.285
0
VERTEX
8
CUT
10
68.032
20
78.379
0
VERTEX
8
CUT
10
69.697
20
78.472
0
VERTEX
8
CUT
10
71.445
20
78.561
0
VERTEX
8
CUT
10
73.267
20
78.648
0
VERTEX
8
CUT
10
75.151
20
78.731
0
VERTEX
8
CUT
10
77.087
20
78.810
0
VERTEX
8
CUT
10
79.062
20
78.884
0
VERTEX
8
CUT
10
81.068
20
78.951
0
VERTEX
8
CUT
10
83.091
20
79.013
0
VERTEX
8
CUT
10
85.121
20
79.067
0
VERTEX
8
CUT
10
87.148
20
79.114
0
VERTEX
8
CUT
10
89.161
20
79.152
0
VERTEX
8
CUT
10
91.147
20
79.181
0
VERTEX
8
CUT
10
92.400
20
79.194
0
VERTEX
8
CUT
10
92.412
20
74.194
0
VERTEX
8
CUT
10
97.612
20
74.206
0
VERTEX
8
CUT
10
97.600
20
79.206
0
VERTEX
8
CUT
10
98.750
20
79.201
0
VERTEX
8
CUT
10
100.625
20
79.185
0
VERTEX
8
CUT
10
102.500
20
79.161
0
VERTEX
8
CUT
10
104.375
20
79.129
0
VERTEX
8
CUT
10
106.250
20
79.089
0
VERTEX
8
CUT
10
108.125
20
79.043
0
VERTEX
8
CUT
10
110.000
20
78.989
0
VERTEX
8
CUT
10
111.875
20
78.927
0
VERTEX
8
CUT
10
113.750
20
78.859
0
VERTEX
8
CUT
10
115.625
20
78.784
0
VERTEX
8
CUT
10
117.500
20
78.702
0
VERTEX
8
CUT
10
119.375
20
78.614
0
VERTEX
8
CUT
10
121.250
20
78.519
0
VERTEX
8
CUT
10
123.125
20
78.417
0
VERTEX
8
CUT
10
125.000
20
78.310
0
VERTEX
8
CUT
10
126.875
20
78.195
0
VERTEX
8
CUT
10
128.750
20
78.073
0
VERTEX
8
CUT
10
130.625
20
77.943
0
VERTEX
8
CUT
10
132.500
20
77.807
0
VERTEX
8
CUT
10
134.375
20
77.663
0
VERTEX
8
CUT
10
136.250
20
77.512
0
VERTEX
8
CUT
10
138.125
20
77.354
0
VERTEX
8
CUT
10
140.000
20
77.190
0
VERTEX
8
CUT
10
141.875
20
77.020
0
VERTEX
8
CUT
10
143.750
20
76.844
0
VERTEX
8
CUT
10
145.625
20
76.662
0
VERTEX
8
CUT
10
147.500
20
76.474
0
VERTEX
8
CUT
10
149.375
20
76.281
0
VERTEX
8
CUT
10
151.250
20
76.082
0
VERTEX
8
CUT
10
153.125
20
75.878
0
VERTEX
8
CUT
10
155.000
20
75.670
0
VERTEX
8
CUT
10
156.875
20
75.456
0
VERTEX
8
CUT
10
158.400
20
75.276
0
VERTEX
8
CUT
10
157.789
20
70.314
0
VERTEX
8
CUT
10
162.989
20
69.673
0
VERTEX
8
CUT
10
163.600
20
74.636
0
VERTEX
8
CUT
10
164.375
20
74.537
0
VERTEX
8
CUT
10
166.250
20
74.293
0
VERTEX
8
CUT
10
168.125
20
74.043
0
VERTEX
8
CUT
10
170.000
20
73.787
0
VERTEX
8
CUT
10
171.875
20
73.526
0
VERTEX
8
CUT
10
173.750
20
73.260
0
VERTEX
8
CUT
10
175.625
20
72.989
0
VERTEX
8
CUT
10
177.500
20
72.712
0
VERTEX
8
CUT
10
179.375
20
72.431
0
VERTEX
8
CUT
10
181.250
20
72.145
0
VERTEX
8
CUT
10
183.125
20
71.855
0
VERTEX
8
CUT
10
185.000
20
71.560
0
VERTEX
8
CUT
10
186.875
20
71.259
0
VERTEX
8
CUT
10
188.750
20
70.953
0
VERTEX
8
CUT
10
190.625
20
70.641
0
VERTEX
8
CUT
10
192.500
20
70.324
0
VERTEX
8
CUT
10
194.375
20
70.001
0
VERTEX
8
CUT
10
196.250
20
69.673
0
VERTEX
8
CUT
10
198.125
20
69.340
0
VERTEX
8
CUT
10
200.000
20
69.002
0
VERTEX
8
CUT
10
201.875
20
68.660
0
VERTEX
8
CUT
10
203.750
20
68.314
0
VERTEX
8
CUT
10
205.625
20
67.964
0
VERTEX
8
CUT
10
207.500
20
67.610
0
VERTEX
8
CUT
10
209.375
20
67.252
0
VERTEX
8
CUT
10
211.250
20
66.891
0
VERTEX
8
CUT
10
213.125
20
66.527
0
VERTEX
8
CUT
10
215.000
20
66.160
0
VERTEX
8
CUT
10
216.875
20
65.789
0
VERTEX
8
CUT
10
218.750
20
65.414
0
VERTEX
8
CUT
10
220.625
20
65.035
0
VERTEX
8
CUT
10
222.500
20
64.652
0
VERTEX
8
CUT
10
224.375
20
64.265
0
VERTEX
8
CUT
10
224.400
20
64.260
0
VERTEX
8
CUT
10
223.371
20
59.367
0
VERTEX
8
CUT
10
228.571
20
58.273
0
VERTEX
8
CUT
10
229.600
20
63.166
0
VERTEX
8
CUT
10
230.000
20
63.081
0
VERTEX
8
CUT
10
231.875
20
62.679
0
VERTEX
8
CUT
10
233.750
20
62.273
0
VERTEX
8
CUT
10
235.625
20
61.864
0
VERTEX
8
CUT
10
237.500
20
61.452
0
VERTEX
8
CUT
10
239.375
20
61.036
0
VERTEX
8
CUT
10
241.250
20
60.617
0
VERTEX
8
CUT
10
243.125
20
60.195
0
VERTEX
8
CUT
10
245.000
20
59.770
0
VERTEX
8
CUT
10
246.902
20
59.334
0
VERTEX
8
CUT
10
248.853
20
58.881
0
VERTEX
8
CUT
10
250.839
20
58.415
0
VERTEX
8
CUT
10
252.852
20
57.938
0
VERTEX
8
CUT
10
254.879
20
57.453
0
VERTEX
8
CUT
10
256.909
20
56.965
0
VERTEX
8
CUT
10
258.932
20
56.474
0
VERTEX
8
CUT
10
260.938
20
55.986
0
VERTEX
8
CUT
10
262.913
20
55.502
0
VERTEX
8
CUT
10
264.849
20
55.027
0
VERTEX
8
CUT
10
266.733
20
54.562
0
VERTEX
8
CUT
10
268.555
20
54.111
0
VERTEX
8
CUT
10
270.303
20
53.677
0
VERTEX
8
CUT
10
271.968
20
53.264
0
VERTEX
8
CUT
10
273.537
20
52.874
0
VERTEX
8
CUT
10
275.000
20
52.510
0
VERTEX
8
CUT
10
277.593
20
51.860
0
VERTEX
8
CUT
10
279.805
20
51.297
0
VERTEX
8
CUT
10
281.724
20
50.800
0
VERTEX
8
CUT
10
283.438
20
50.348
0
VERTEX
8
CUT
10
285.034
20
49.920
0
VERTEX
8
CUT
10
286.602
20
49.497
0
VERTEX
8
CUT
10
288.228
20
49.057
0
VERTEX
8
CUT
10
290.000
20
48.580
0
VERTEX
8
CUT
10
291.978
20
48.047
0
VERTEX
8
CUT
10
294.102
20
47.469
0
VERTEX
8
CUT
10
296.284
20
46.871
0
VERTEX
8
CUT
10
298.438
20
46.279
0
VERTEX
8
CUT
10
300.474
20
45.718
0
VERTEX
8
CUT
10
302.305
20
45.212
0
VERTEX
8
CUT
10
303.843
20
44.788
0
VERTEX
8
CUT
10
305.000
20
44.470
0
VERTEX
8
CUT
10
305.000
20
44.110
0
VERTEX
8
CUT
10
303.843
20
44.110
0
VERTEX
8
CUT
10
302.305
20
44.110
0
VERTEX
8
CUT
10
300.474
20
44.110
0
VERTEX
8
CUT
10
298.438
20
44.110
0
VERTEX
8
CUT
10
296.284
20
44.110
0
VERTEX
8
CUT
10
294.102
20
44.110
0
VERTEX
8
CUT
10
291.978
20
44.110
0
VERTEX
8
CUT
10
290.000
20
44.110
0
VERTEX
8
CUT
10
288.228
20
44.110
0
VERTEX
8
CUT
10
286.602
20
44.110
0
VERTEX
8
CUT
10
285.034
20
44.110
0
VERTEX
8
CUT
10
283.438
20
44.110
0
VERTEX
8
CUT
10
281.724
20
44.110
0
VERTEX
8
CUT
10
279.805
20
44.110
0
VERTEX
8
CUT
10
277.593
20
44.110
0
VERTEX
8
CUT
10
275.000
20
44.110
0
VERTEX
8
CUT
10
273.436
20
44.110
0
VERTEX
8
CUT
10
271.751
20
44.110
0
VERTEX
8
CUT
10
269.960
20
44.110
0
VERTEX
8
CUT
10
268.076
20
44.110
0
VERTEX
8
CUT
10
266.111
20
44.110
0
VERTEX
8
CUT
10
264.080
20
44.110
0
VERTEX
8
CUT
10
261.996
20
44.110
0
VERTEX
8
CUT
10
259.871
20
44.110
0
VERTEX
8
CUT
10
257.720
20
44.110
0
VERTEX
8
CUT
10
255.556
20
44.110
0
VERTEX
8
CUT
10
253.391
20
44.110
0
VERTEX
8
CUT
10
251.240
20
44.110
0
VERTEX
8
CUT
10
249.116
20
44.110
0
VERTEX
8
CUT
10
247.031
20
44.110
0
VERTEX
8
CUT
10
245.000
20
44.110
0
VERTEX
8
CUT
10
243.000
20
44.110
0
VERTEX
8
CUT
10
241.000
20
44.110
0
VERTEX
8
CUT
10
239.000
20
44.110
0
VERTEX
8
CUT
10
237.000
20
44.110
0
VERTEX
8
CUT
10
235.000
20
44.110
0
VERTEX
8
CUT
10
233.000
20
44.110
0
VERTEX
8
CUT
10
231.000
20
44.110
0
VERTEX
8
CUT
10
229.600
20
44.110
0
VERTEX
8
CUT
10
229.600
20
49.110
0
VERTEX
8
CUT
10
224.400
20
49.110
0
VERTEX
8
CUT
10
224.400
20
44.110
0
VERTEX
8
CUT
10
223.000
20
44.110
0
VERTEX
8
CUT
10
221.000
20
44.110
0
VERTEX
8
CUT
10
219.000
20
44.110
0
VERTEX
8
CUT
10
217.000
20
44.110
0
VERTEX
8
CUT
10
215.000
20
44.110
0
VERTEX
8
CUT
10
213.000
20
44.110
0
VERTEX
8
CUT
10
211.000
20
44.110
0
VERTEX
8
CUT
10
209.000
20
44.110
0
VERTEX
8
CUT
10
207.000
20
44.110
0
VERTEX
8
CUT
10
205.000
20
44.110
0
VERTEX
8
CUT
10
203.000
20
44.110
0
VERTEX
8
CUT
10
201.000
20
44.110
0
VERTEX
8
CUT
10
199.000
20
44.110
0
VERTEX
8
CUT
10
197.000
20
44.110
0
VERTEX
8
CUT
10
195.000
20
44.110
0
VERTEX
8
CUT
10
193.000
20
44.110
0
VERTEX
8
CUT
10
191.000
20
44.110
0
VERTEX
8
CUT
10
189.000
20
44.110
0
VERTEX
8
CUT
10
187.000
20
44.110
0
VERTEX
8
CUT
10
185.000
20
44.110
0
VERTEX
8
CUT
10
183.000
20
44.110
0
VERTEX
8
CUT
10
181.000
20
44.110
0
VERTEX
8
CUT
10
179.000
20
44.110
0
VERTEX
8
CUT
10
177.000
20
44.110
0
VERTEX
8
CUT
10
175.000
20
44.110
0
VERTEX
8
CUT
10
173.000
20
44.110
0
VERTEX
8
CUT
10
171.000
20
44.110
0
VERTEX
8
CUT
10
169.000
20
44.110
0
VERTEX
8
CUT
10
167.000
20
44.110
0
VERTEX
8
CUT
10
165.000
20
44.110
0
VERTEX
8
CUT
10
163.600
20
44.110
0
VERTEX
8
CUT
10
163.600
20
49.110
0
VERTEX
8
CUT
10
158.400
20
49.110
0
VERTEX
8
CUT
10
158.400
20
44.110
0
VERTEX
8
CUT
10
157.000
20
44.110
0
VERTEX
8
CUT
10
155.000
20
44.110
0
VERTEX
8
CUT
10
153.000
20
44.110
0
VERTEX
8
CUT
10
151.000
20
44.110
0
VERTEX
8
CUT
10
149.000
20
44.110
0
VERTEX
8
CUT
10
147.000
20
44.110
0
VERTEX
8
CUT
10
145.000
20
44.110
0
VERTEX
8
CUT
10
143.000
20
44.110
0
VERTEX
8
CUT
10
141.000
20
44.110
0
VERTEX
8
CUT
10
139.000
20
44.110
0
VERTEX
8
CUT
10
137.000
20
44.110
0
VERTEX
8
CUT
10
135.000
20
44.110
0
VERTEX
8
CUT
10
133.000
20
44.110
0
VERTEX
8
CUT
10
131.000
20
44.110
0
VERTEX
8
CUT
10
129.000
20
44.110
0
VERTEX
8
CUT
10
127.000
20
44.110
0
VERTEX
8
CUT
10
125.000
20
44.110
0
VERTEX
8
CUT
10
123.000
20
44.110
0
VERTEX
8
CUT
10
121.000
20
44.109
0
VERTEX
8
CUT
10
119.000
20
44.108
0
VERTEX
8
CUT
10
117.000
20
44.107
0
VERTEX
8
CUT
10
115.000
20
44.106
0
VERTEX
8
CUT
10
113.000
20
44.105
0
VERTEX
8
CUT
10
111.000
20
44.105
0
VERTEX
8
CUT
10
109.000
20
44.104
0
VERTEX
8
CUT
10
107.000
20
44.103
0
VERTEX
8
CUT
10
105.000
20
44.103
0
VERTEX
8
CUT
10
103.000
20
44.103
0
VERTEX
8
CUT
10
101.000
20
44.104
0
VERTEX
8
CUT
10
99.000
20
44.105
0
VERTEX
8
CUT
10
97.600
20
44.107
0
VERTEX
8
CUT
10
97.607
20
49.107
0
VERTEX
8
CUT
10
92.407
20
49.113
0
VERTEX
8
CUT
10
92.400
20
44.113
0
VERTEX
8
CUT
10
91.147
20
44.115
0
VERTEX
8
CUT
10
89.161
20
44.117
0
VERTEX
8
CUT
10
87.148
20
44.120
0
VERTEX
8
CUT
10
85.121
20
44.122
0
VERTEX
8
CUT
10
83.091
20
44.125
0
VERTEX
8
CUT
10
81.068
20
44.128
0
VERTEX
8
CUT
10
79.062
20
44.132
0
VERTEX
8
CUT
10
77.087
20
44.137
0
VERTEX
8
CUT
10
75.151
20
44.142
0
VERTEX
8
CUT
10
73.267
20
44.149
0
VERTEX
8
CUT
10
71.445
20
44.156
0
VERTEX
8
CUT
10
69.697
20
44.165
0
VERTEX
8
CUT
10
68.032
20
44.175
0
VERTEX
8
CUT
10
66.463
20
44.187
0
VERTEX
8
CUT
10
65.000
20
44.200
0
VERTEX
8
CUT
10
62.407
20
44.229
0
VERTEX
8
CUT
10
60.195
20
44.260
0
VERTEX
8
CUT
10
58.276
20
44.295
0
VERTEX
8
CUT
10
56.562
20
44.335
0
VERTEX
8
CUT
10
54.966
20
44.380
0
VERTEX
8
CUT
10
53.398
20
44.432
0
VERTEX
8
CUT
10
51.772
20
44.491
0
VERTEX
8
CUT
10
50.000
20
44.560
0
VERTEX
8
CUT
10
48.074
20
44.641
0
VERTEX
8
CUT
10
46.074
20
44.735
0
VERTEX
8
CUT
10
44.045
20
44.838
0
VERTEX
8
CUT
10
42.031
20
44.948
0
VERTEX
8
CUT
10
40.076
20
45.059
0
VERTEX
8
CUT
10
38.223
20
45.169
0
VERTEX
8
CUT
10
36.516
20
45.274
0
VERTEX
8
CUT
10
35.000
20
45.370
0
VERTEX
8
CUT
10
32.598
20
45.534
0
VERTEX
8
CUT
10
30.781
20
45.679
0
VERTEX
8
CUT
10
29.199
20
45.827
0
VERTEX
8
CUT
10
27.500
20
46.000
0
VERTEX
8
CUT
10
25.625
20
46.189
0
VERTEX
8
CUT
10
23.750
20
46.388
0
VERTEX
8
CUT
10
21.875
20
46.618
0
VERTEX
8
CUT
10
20.000
20
46.900
0
VERTEX
8
CUT
10
18.037
20
47.260
0
VERTEX
8
CUT
10
16.016
20
47.680
0
VERTEX
8
CUT
10
14.111
20
48.115
0
VERTEX
8
CUT
10
12.500
20
48.520
0
VERTEX
8
CUT
10
10.391
20
49.017
0
VERTEX
8
CUT
10
8.750
20
49.900
0
VERTEX
8
CUT
10
7.725
20
50.954
0
VERTEX
8
CUT
10
6.641
20
52.341
0
VERTEX
8
CUT
10
5.674
20
53.685
0
SEQEND
0
TEXT
8
POPIS
10
11.000
20
47.103
40
5.000
1
zebro-plne-300
0
POLYLINE
8
CUT
66
1
70
1
0
VERTEX
8
CUT
10
309.000
20
54.610
0
VERTEX
8
CUT
10
309.674
20
55.724
0
VERTEX
8
CUT
10
310.641
20
57.338
0
VERTEX
8
CUT
10
311.725
20
59.050
0
VERTEX
8
CUT
10
312.750
20
60.460
0
VERTEX
8
CUT
10
313.861
20
61.671
0
VERTEX
8
CUT
10
314.972
20
62.582
0
VERTEX
8
CUT
10
316.500
20
63.610
0
VERTEX
8
CUT
10
317.760
20
64.404
0
VERTEX
8
CUT
10
319.230
20
65.279
0
VERTEX
8
CUT
10
320.820
20
66.177
0
VERTEX
8
CUT
10
322.440
20
67.039
0
VERTEX
8
CUT
10
324.000
20
67.810
0
VERTEX
8
CUT
10
325.500
20
68.476
0
VERTEX
8
CUT
10
327.000
20
69.076
0
VERTEX
8
CUT
10
328.500
20
69.628
0
VERTEX
8
CUT
10
330.000
20
70.150
0
VERTEX
8
CUT
10
330.400
20
70.286
0
VERTEX
8
CUT
10
331.995
20
65.547
0
VERTEX
8
CUT
10
337.195
20
67.261
0
VERTEX
8
CUT
10
335.600
20
72.000
0
VERTEX
8
CUT
10
336.598
20
72.292
0
VERTEX
8
CUT
10
339.000
20
72.910
0
VERTEX
8
CUT
10
340.516
20
73.276
0
VERTEX
8
CUT
10
342.223
20
73.678
0
VERTEX
8
CUT
10
344.076
20
74.105
0
VERTEX
8
CUT
10
346.031
20
74.543
0
VERTEX
8
CUT
10
348.045
20
74.979
0
VERTEX
8
CUT
10
350.074
20
75.401
0
VERTEX
8
CUT
10
352.074
20
75.795
0
VERTEX
8
CUT
10
354.000
20
76.150
0
VERTEX
8
CUT
10
355.772
20
76.469
0
VERTEX
8
CUT
10
357.398
20
76.768
0
VERTEX
8
CUT
10
358.966
20
77.047
0
VERTEX
8
CUT
10
360.562
20
77.309
0
VERTEX
8
CUT
10
362.276
20
77.552
0
VERTEX
8
CUT
10
364.195
20
77.780
0
VERTEX
8
CUT
10
366.407
20
77.992
0
VERTEX
8
CUT
10
369.000
20
78.190
0
VERTEX
8
CUT
10
370.463
20
78.285
0
VERTEX
8
CUT
10
372.032
20
78.379
0
VERTEX
8
CUT
10
373.697
20
78.472
0
VERTEX
8
CUT
10
375.445
20
78.561
0
VERTEX
8
CUT
10
377.267
20
78.648
0
VERTEX
8
CUT
10
379.151
20
78.731
0
VERTEX
8
CUT
10
381.087
20
78.810
0
VERTEX
8
CUT
10
383.062
20
78.884
0
VERTEX
8
CUT
10
385.068
20
78.951
0
VERTEX
8
CUT
10
387.091
20
79.013
0
VERTEX
8
CUT
10
389.121
20
79.067
0
VERTEX
8
CUT
10
391.148
20
79.114
0
VERTEX
8
CUT
10
393.161
20
79.152
0
VERTEX
8
CUT
10
395.147
20
79.181
0
VERTEX
8
CUT
10
396.400
20
79.194
0
VERTEX
8
CUT
10
396.412
20
74.194
0
VERTEX
8
CUT
10
401.612
20
74.206
0
VERTEX
8
CUT
10
401.600
20
79.206
0
VERTEX
8
CUT
10
402.750
20
79.201
0
VERTEX
8
CUT
10
404.625
20
79.185
0
VERTEX
8
CUT
10
406.500
20
79.161
0
VERTEX
8
CUT
10
408.375
20
79.129
0
VERTEX
8
CUT
10
410.250
20
79.089
0
VERTEX
8
CUT
10
412.125
20
79.043
0
VERTEX
8
CUT
10
414.000
20
78.989
0
VERTEX
8
CUT
10
415.875
20
78.927
0
VERTEX
8
CUT
10
417.750
20
78.859
0
VERTEX
8
CUT
10
419.625
20
78.784
0
VERTEX
8
CUT
10
421.500
20
78.702
0
VERTEX
8
CUT
10
423.375
20
78.614
0
VERTEX
8
CUT
10
425.250
20
78.519
0
VERTEX
8
CUT
10
427.125
20
78.417
0
VERTEX
8
CUT
10
429.000
20
78.310
0
VERTEX
8
CUT
10
430.875
20
78.195
0
VERTEX
8
CUT
10
432.750
20
78.073
0
VERTEX
8
CUT
10
434.625
20
77.943
0
VERTEX
8
CUT
10
436.500
20
77.807
0
VERTEX
8
CUT
10
438.375
20
77.663
0
VERTEX
8
CUT
10
440.250
20
77.512
0
VERTEX
8
CUT
10
442.125
20
77.354
0
VERTEX
8
CUT
10
444.000
20
77.190
0
VERTEX
8
CUT
10
445.875
20
77.020
0
VERTEX
8
CUT
10
447.750
20
76.844
0
VERTEX
8
CUT
10
449.625
20
76.662
0
VERTEX
8
CUT
10
451.500
20
76.474
0
VERTEX
8
CUT
10
453.375
20
76.281
0
VERTEX
8
CUT
10
455.250
20
76.082
0
VERTEX
8
CUT
10
457.125
20
75.878
0
VERTEX
8
CUT
10
459.000
20
75.670
0
VERTEX
8
CUT
10
460.875
20
75.456
0
VERTEX
8
CUT
10
462.400
20
75.276
0
VERTEX
8
CUT
10
461.789
20
70.314
0
VERTEX
8
CUT
10
466.989
20
69.673
0
VERTEX
8
CUT
10
467.600
20
74.636
0
VERTEX
8
CUT
10
468.375
20
74.537
0
VERTEX
8
CUT
10
470.250
20
74.293
0
VERTEX
8
CUT
10
472.125
20
74.043
0
VERTEX
8
CUT
10
474.000
20
73.787
0
VERTEX
8
CUT
10
475.875
20
73.526
0
VERTEX
8
CUT
10
477.750
20
73.260
0
VERTEX
8
CUT
10
479.625
20
72.989
0
VERTEX
8
CUT
10
481.500
20
72.712
0
VERTEX
8
CUT
10
483.375
20
72.431
0
VERTEX
8
CUT
10
485.250
20
72.145
0
VERTEX
8
CUT
10
487.125
20
71.855
0
VERTEX
8
CUT
10
489.000
20
71.560
0
VERTEX
8
CUT
10
490.875
20
71.259
0
VERTEX
8
CUT
10
492.750
20
70.953
0
VERTEX
8
CUT
10
494.625
20
70.641
0
VERTEX
8
CUT
10
496.500
20
70.324
0
VERTEX
8
CUT
10
498.375
20
70.001
0
VERTEX
8
CUT
10
500.250
20
69.673
0
VERTEX
8
CUT
10
502.125
20
69.340
0
VERTEX
8
CUT
10
504.000
20
69.002
0
VERTEX
8
CUT
10
505.875
20
68.660
0
VERTEX
8
CUT
10
507.750
20
68.314
0
VERTEX
8
CUT
10
509.625
20
67.964
0
VERTEX
8
CUT
10
511.500
20
67.610
0
VERTEX
8
CUT
10
513.375
20
67.252
0
VERTEX
8
CUT
10
515.250
20
66.891
0
VERTEX
8
CUT
10
517.125
20
66.527
0
VERTEX
8
CUT
10
519.000
20
66.160
0
VERTEX
8
CUT
10
520.875
20
65.789
0
VERTEX
8
CUT
10
522.750
20
65.414
0
VERTEX
8
CUT
10
524.625
20
65.035
0
VERTEX
8
CUT
10
526.500
20
64.652
0
VERTEX
8
CUT
10
528.375
20
64.265
0
VERTEX
8
CUT
10
528.400
20
64.260
0
VERTEX
8
CUT
10
527.371
20
59.367
0
VERTEX
8
CUT
10
532.571
20
58.273
0
VERTEX
8
CUT
10
533.600
20
63.166
0
VERTEX
8
CUT
10
534.000
20
63.081
0
VERTEX
8
CUT
10
535.875
20
62.679
0
VERTEX
8
CUT
10
537.750
20
62.273
0
VERTEX
8
CUT
10
539.625
20
61.864
0
VERTEX
8
CUT
10
541.500
20
61.452
0
VERTEX
8
CUT
10
543.375
20
61.036
0
VERTEX
8
CUT
10
545.250
20
60.617
0
VERTEX
8
CUT
10
547.125
20
60.195
0
VERTEX
8
CUT
10
549.000
20
59.770
0
VERTEX
8
CUT
10
550.902
20
59.334
0
VERTEX
8
CUT
10
552.853
20
58.881
0
VERTEX
8
CUT
10
554.839
20
58.415
0
VERTEX
8
CUT
10
556.852
20
57.938
0
VERTEX
8
CUT
10
558.879
20
57.453
0
VERTEX
8
CUT
10
560.909
20
56.965
0
VERTEX
8
CUT
10
562.932
20
56.474
0
VERTEX
8
CUT
10
564.938
20
55.986
0
VERTEX
8
CUT
10
566.913
20
55.502
0
VERTEX
8
CUT
10
568.849
20
55.027
0
VERTEX
8
CUT
10
570.733
20
54.562
0
VERTEX
8
CUT
10
572.555
20
54.111
0
VERTEX
8
CUT
10
574.303
20
53.677
0
VERTEX
8
CUT
10
575.968
20
53.264
0
VERTEX
8
CUT
10
577.537
20
52.874
0
VERTEX
8
CUT
10
579.000
20
52.510
0
VERTEX
8
CUT
10
581.593
20
51.860
0
VERTEX
8
CUT
10
583.805
20
51.297
0
VERTEX
8
CUT
10
585.724
20
50.800
0
VERTEX
8
CUT
10
587.438
20
50.348
0
VERTEX
8
CUT
10
589.034
20
49.920
0
VERTEX
8
CUT
10
590.602
20
49.497
0
VERTEX
8
CUT
10
592.228
20
49.057
0
VERTEX
8
CUT
10
594.000
20
48.580
0
VERTEX
8
CUT
10
595.978
20
48.047
0
VERTEX
8
CUT
10
598.102
20
47.469
0
VERTEX
8
CUT
10
600.284
20
46.871
0
VERTEX
8
CUT
10
602.438
20
46.279
0
VERTEX
8
CUT
10
604.474
20
45.718
0
VERTEX
8
CUT
10
606.305
20
45.212
0
VERTEX
8
CUT
10
607.843
20
44.788
0
VERTEX
8
CUT
10
609.000
20
44.470
0
VERTEX
8
CUT
10
609.000
20
44.110
0
VERTEX
8
CUT
10
607.843
20
44.110
0
VERTEX
8
CUT
10
606.305
20
44.110
0
VERTEX
8
CUT
10
604.474
20
44.110
0
VERTEX
8
CUT
10
602.438
20
44.110
0
VERTEX
8
CUT
10
600.284
20
44.110
0
VERTEX
8
CUT
10
598.102
20
44.110
0
VERTEX
8
CUT
10
595.978
20
44.110
0
VERTEX
8
CUT
10
594.000
20
44.110
0
VERTEX
8
CUT
10
592.228
20
44.110
0
VERTEX
8
CUT
10
590.602
20
44.110
0
VERTEX
8
CUT
10
589.034
20
44.110
0
VERTEX
8
CUT
10
587.438
20
44.110
0
VERTEX
8
CUT
10
585.724
20
44.110
0
VERTEX
8
CUT
10
583.805
20
44.110
0
VERTEX
8
CUT
10
581.593
20
44.110
0
VERTEX
8
CUT
10
579.000
20
44.110
0
VERTEX
8
CUT
10
577.436
20
44.110
0
VERTEX
8
CUT
10
575.751
20
44.110
0
VERTEX
8
CUT
10
573.960
20
44.110
0
VERTEX
8
CUT
10
572.076
20
44.110
0
VERTEX
8
CUT
10
570.111
20
44.110
0
VERTEX
8
CUT
10
568.080
20
44.110
0
VERTEX
8
CUT
10
565.996
20
44.110
0
VERTEX
8
CUT
10
563.871
20
44.110
0
VERTEX
8
CUT
10
561.720
20
44.110
0
VERTEX
8
CUT
10
559.556
20
44.110
0
VERTEX
8
CUT
10
557.391
20
44.110
0
VERTEX
8
CUT
10
555.240
20
44.110
0
VERTEX
8
CUT
10
553.116
20
44.110
0
VERTEX
8
CUT
10
551.031
20
44.110
0
VERTEX
8
CUT
10
549.000
20
44.110
0
VERTEX
8
CUT
10
547.000
20
44.110
0
VERTEX
8
CUT
10
545.000
20
44.110
0
VERTEX
8
CUT
10
543.000
20
44.110
0
VERTEX
8
CUT
10
541.000
20
44.110
0
VERTEX
8
CUT
10
539.000
20
44.110
0
VERTEX
8
CUT
10
537.000
20
44.110
0
VERTEX
8
CUT
10
535.000
20
44.110
0
VERTEX
8
CUT
10
533.600
20
44.110
0
VERTEX
8
CUT
10
533.600
20
49.110
0
VERTEX
8
CUT
10
528.400
20
49.110
0
VERTEX
8
CUT
10
528.400
20
44.110
0
VERTEX
8
CUT
10
527.000
20
44.110
0
VERTEX
8
CUT
10
525.000
20
44.110
0
VERTEX
8
CUT
10
523.000
20
44.110
0
VERTEX
8
CUT
10
521.000
20
44.110
0
VERTEX
8
CUT
10
519.000
20
44.110
0
VERTEX
8
CUT
10
517.000
20
44.110
0
VERTEX
8
CUT
10
515.000
20
44.110
0
VERTEX
8
CUT
10
513.000
20
44.110
0
VERTEX
8
CUT
10
511.000
20
44.110
0
VERTEX
8
CUT
10
509.000
20
44.110
0
VERTEX
8
CUT
10
507.000
20
44.110
0
VERTEX
8
CUT
10
505.000
20
44.110
0
VERTEX
8
CUT
10
503.000
20
44.110
0
VERTEX
8
CUT
10
501.000
20
44.110
0
VERTEX
8
CUT
10
499.000
20
44.110
0
VERTEX
8
CUT
10
497.000
20
44.110
0
VERTEX
8
CUT
10
495.000
20
44.110
0
VERTEX
8
CUT
10
493.000
20
44.110
0
VERTEX
8
CUT
10
491.000
20
44.110
0
VERTEX
8
CUT
10
489.000
20
44.110
0
VERTEX
8
CUT
10
487.000
20
44.110
0
VERTEX
8
CUT
10
485.000
20
44.110
0
VERTEX
8
CUT
10
483.000
20
44.110
0
VERTEX
8
CUT
10
481.000
20
44.110
0
VERTEX
8
CUT
10
479.000
20
44.110
0
VERTEX
8
CUT
10
477.000
20
44.110
0
VERTEX
8
CUT
10
475.000
20
44.110
0
VERTEX
8
CUT
10
473.000
20
44.110
0
VERTEX
8
CUT
10
471.000
20
44.110
0
VERTEX
8
CUT
10
469.000
20
44.110
0
VERTEX
8
CUT
10
467.600
20
44.110
0
VERTEX
8
CUT
10
467.600
20
49.110
0
VERTEX
8
CUT
10
462.400
20
49.110
0
VERTEX
8
CUT
10
462.400
20
44.110
0
VERTEX
8
CUT
10
461.000
20
44.110
0
VERTEX
8
CUT
10
459.000
20
44.110
0
VERTEX
8
CUT
10
457.000
20
44.110
0
VERTEX
8
CUT
10
455.000
20
44.110
0
VERTEX
8
CUT
10
453.000
20
44.110
0
VERTEX
8
CUT
10
451.000
20
44.110
0
VERTEX
8
CUT
10
449.000
20
44.110
0
VERTEX
8
CUT
10
447.000
20
44.110
0
VERTEX
8
CUT
10
445.000
20
44.110
0
VERTEX
8
CUT
10
443.000
20
44.110
0
VERTEX
8
CUT
10
441.000
20
44.110
0
VERTEX
8
CUT
10
439.000
20
44.110
0
VERTEX
8
CUT
10
437.000
20
44.110
0
VERTEX
8
CUT
10
435.000
20
44.110
0
VERTEX
8
CUT
10
433.000
20
44.110
0
VERTEX
8
CUT
10
431.000
20
44.110
0
VERTEX
8
CUT
10
429.000
20
44.110
0
VERTEX
8
CUT
10
427.000
20
44.110
0
VERTEX
8
CUT
10
425.000
20
44.109
0
VERTEX
8
CUT
10
423.000
20
44.108
0
VERTEX
8
CUT
10
421.000
20
44.107
0
VERTEX
8
CUT
10
419.000
20
44.106
0
VERTEX
8
CUT
10
417.000
20
44.105
0
VERTEX
8
CUT
10
415.000
20
44.105
0
VERTEX
8
CUT
10
413.000
20
44.104
0
VERTEX
8
CUT
10
411.000
20
44.103
0
VERTEX
8
CUT
10
409.000
20
44.103
0
VERTEX
8
CUT
10
407.000
20
44.103
0
VERTEX
8
CUT
10
405.000
20
44.104
0
VERTEX
8
CUT
10
403.000
20
44.105
0
VERTEX
8
CUT
10
401.600
20
44.107
0
VERTEX
8
CUT
10
401.607
20
49.107
0
VERTEX
8
CUT
10
396.407
20
49.113
0
VERTEX
8
CUT
10
396.400
20
44.113
0
VERTEX
8
CUT
10
395.147
20
44.115
0
VERTEX
8
CUT
10
393.161
20
44.117
0
VERTEX
8
CUT
10
391.148
20
44.120
0
VERTEX
8
CUT
10
389.121
20
44.122
0
VERTEX
8
CUT
10
387.091
20
44.125
0
VERTEX
8
CUT
10
385.068
20
44.128
0
VERTEX
8
CUT
10
383.062
20
44.132
0
VERTEX
8
CUT
10
381.087
20
44.137
0
VERTEX
8
CUT
10
379.151
20
44.142
0
VERTEX
8
CUT
10
377.267
20
44.149
0
VERTEX
8
CUT
10
375.445
20
44.156
0
VERTEX
8
CUT
10
373.697
20
44.165
0
VERTEX
8
CUT
10
372.032
20
44.175
0
VERTEX
8
CUT
10
370.463
20
44.187
0
VERTEX
8
CUT
10
369.000
20
44.200
0
VERTEX
8
CUT
10
366.407
20
44.229
0
VERTEX
8
CUT
10
364.195
20
44.260
0
VERTEX
8
CUT
10
362.276
20
44.295
0
VERTEX
8
CUT
10
360.562
20
44.335
0
VERTEX
8
CUT
10
358.966
20
44.380
0
VERTEX
8
CUT
10
357.398
20
44.432
0
VERTEX
8
CUT
10
355.772
20
44.491
0
VERTEX
8
CUT
10
354.000
20
44.560
0
VERTEX
8
CUT
10
352.074
20
44.641
0
VERTEX
8
CUT
10
350.074
20
44.735
0
VERTEX
8
CUT
10
348.045
20
44.838
0
VERTEX
8
CUT
10
346.031
20
44.948
0
VERTEX
8
CUT
10
344.076
20
45.059
0
VERTEX
8
CUT
10
342.223
20
45.169
0
VERTEX
8
CUT
10
340.516
20
45.274
0
VERTEX
8
CUT
10
339.000
20
45.370
0
VERTEX
8
CUT
10
336.598
20
45.534
0
VERTEX
8
CUT
10
334.781
20
45.679
0
VERTEX
8
CUT
10
333.199
20
45.827
0
VERTEX
8
CUT
10
331.500
20
46.000
0
VERTEX
8
CUT
10
329.625
20
46.189
0
VERTEX
8
CUT
10
327.750
20
46.388
0
VERTEX
8
CUT
10
325.875
20
46.618
0
VERTEX
8
CUT
10
324.000
20
46.900
0
VERTEX
8
CUT
10
322.037
20
47.260
0
VERTEX
8
CUT
10
320.016
20
47.680
0
VERTEX
8
CUT
10
318.111
20
48.115
0
VERTEX
8
CUT
10
316.500
20
48.520
0
VERTEX
8
CUT
10
314.391
20
49.017
0
VERTEX
8
CUT
10
312.750
20
49.900
0
VERTEX
8
CUT
10
311.725
20
50.954
0
VERTEX
8
CUT
10
310.641
20
52.341
0
VERTEX
8
CUT
10
309.674
20
53.685
0
SEQEND
0
TEXT
8
POPIS
10
315.000
20
47.103
40
5.000
1
zebro-plne-300
0
POLYLINE
8
CUT
66
1
70
1
0
VERTEX
8
CUT
10
613.000
20
54.610
0
VERTEX
8
CUT
10
613.674
20
55.724
0
VERTEX
8
CUT
10
614.641
20
57.338
0
VERTEX
8
CUT
10
615.725
20
59.050
0
VERTEX
8
CUT
10
616.750
20
60.460
0
VERTEX
8
CUT
10
617.861
20
61.671
0
VERTEX
8
CUT
10
618.972
20
62.582
0
VERTEX
8
CUT
10
620.500
20
63.610
0
VERTEX
8
CUT
10
621.760
20
64.404
0
VERTEX
8
CUT
10
623.230
20
65.279
0
VERTEX
8
CUT
10
624.820
20
66.177
0
VERTEX
8
CUT
10
626.440
20
67.039
0
VERTEX
8
CUT
10
628.000
20
67.810
0
VERTEX
8
CUT
10
629.500
20
68.476
0
VERTEX
8
CUT
10
631.000
20
69.076
0
VERTEX
8
CUT
10
632.500
20
69.628
0
VERTEX
8
CUT
10
634.000
20
70.150
0
VERTEX
8
CUT
10
634.400
20
70.286
0
VERTEX
8
CUT
10
635.995
20
65.547
0
VERTEX
8
CUT
10
641.195
20
67.261
0
VERTEX
8
CUT
10
639.600
20
72.000
0
VERTEX
8
CUT
10
640.598
20
72.292
0
VERTEX
8
CUT
10
643.000
20
72.910
0
VERTEX
8
CUT
10
644.516
20
73.276
0
VERTEX
8
CUT
10
646.223
20
73.678
0
VERTEX
8
CUT
10
648.076
20
74.105
0
VERTEX
8
CUT
10
650.031
20
74.543
0
VERTEX
8
CUT
10
652.045
20
74.979
0
VERTEX
8
CUT
10
654.074
20
75.401
0
VERTEX
8
CUT
10
656.074
20
75.795
0
VERTEX
8
CUT
10
658.000
20
76.150
0
VERTEX
8
CUT
10
659.772
20
76.469
0
VERTEX
8
CUT
10
661.398
20
76.768
0
VERTEX
8
CUT
10
662.966
20
77.047
0
VERTEX
8
CUT
10
664.562
20
77.309
0
VERTEX
8
CUT
10
666.276
20
77.552
0
VERTEX
8
CUT
10
668.195
20
77.780
0
VERTEX
8
CUT
10
670.407
20
77.992
0
VERTEX
8
CUT
10
673.000
20
78.190
0
VERTEX
8
CUT
10
674.463
20
78.285
0
VERTEX
8
CUT
10
676.032
20
78.379
0
VERTEX
8
CUT
10
677.697
20
78.472
0
VERTEX
8
CUT
10
679.445
20
78.561
0
VERTEX
8
CUT
10
681.267
20
78.648
0
VERTEX
8
CUT
10
683.151
20
78.731
0
VERTEX
8
CUT
10
685.087
20
78.810
0
VERTEX
8
CUT
10
687.062
20
78.884
0
VERTEX
8
CUT
10
689.068
20
78.951
0
VERTEX
8
CUT
10
691.091
20
79.013
0
VERTEX
8
CUT
10
693.121
20
79.067
0
VERTEX
8
CUT
10
695.148
20
79.114
0
VERTEX
8
CUT
10
697.161
20
79.152
0
VERTEX
8
CUT
10
699.147
20
79.181
0
VERTEX
8
CUT
10
700.400
20
79.194
0
VERTEX
8
CUT
10
700.412
20
74.194
0
VERTEX
8
CUT
10
705.612
20
74.206
0
VERTEX
8
CUT
10
705.600
20
79.206
0
VERTEX
8
CUT
10
706.750
20
79.201
0
VERTEX
8
CUT
10
708.625
20
79.185
0
VERTEX
8
CUT
10
710.500
20
79.161
0
VERTEX
8
CUT
10
712.375
20
79.129
0
VERTEX
8
CUT
10
714.250
20
79.089
0
VERTEX
8
CUT
10
716.125
20
79.043
0
VERTEX
8
CUT
10
718.000
20
78.989
0
VERTEX
8
CUT
10
719.875
20
78.927
0
VERTEX
8
CUT
10
721.750
20
78.859
0
VERTEX
8
CUT
10
723.625
20
78.784
0
VERTEX
8
CUT
10
725.500
20
78.702
0
VERTEX
8
CUT
10
727.375
20
78.614
0
VERTEX
8
CUT
10
729.250
20
78.519
0
VERTEX
8
CUT
10
731.125
20
78.417
0
VERTEX
8
CUT
10
733.000
20
78.310
0
VERTEX
8
CUT
10
734.875
20
78.195
0
VERTEX
8
CUT
10
736.750
20
78.073
0
VERTEX
8
CUT
10
738.625
20
77.943
0
VERTEX
8
CUT
10
740.500
20
77.807
0
VERTEX
8
CUT
10
742.375
20
77.663
0
VERTEX
8
CUT
10
744.250
20
77.512
0
VERTEX
8
CUT
10
746.125
20
77.354
0
VERTEX
8
CUT
10
748.000
20
77.190
0
VERTEX
8
CUT
10
749.875
20
77.020
0
VERTEX
8
CUT
10
751.750
20
76.844
0
VERTEX
8
CUT
10
753.625
20
76.662
0
VERTEX
8
CUT
10
755.500
20
76.474
0
VERTEX
8
CUT
10
757.375
20
76.281
0
VERTEX
8
CUT
10
759.250
20
76.082
0
VERTEX
8
CUT
10
761.125
20
75.878
0
VERTEX
8
CUT
10
763.000
20
75.670
0
VERTEX
8
CUT
10
764.875
20
75.456
0
VERTEX
8
CUT
10
766.400
20
75.276
0
VERTEX
8
CUT
10
765.789
20
70.314
0
VERTEX
8
CUT
10
770.989
20
69.673
0
VERTEX
8
CUT
10
771.600
20
74.636
0
VERTEX
8
CUT
10
772.375
20
74.537
0
VERTEX
8
CUT
10
774.250
20
74.293
0
VERTEX
8
CUT
10
776.125
20
74.043
0
VERTEX
8
CUT
10
778.000
20
73.787
0
VERTEX
8
CUT
10
779.875
20
73.526
0
VERTEX
8
CUT
10
781.750
20
73.260
0
VERTEX
8
CUT
10
783.625
20
72.989
0
VERTEX
8
CUT
10
785.500
20
72.712
0
VERTEX
8
CUT
10
787.375
20
72.431
0
VERTEX
8
CUT
10
789.250
20
72.145
0
VERTEX
8
CUT
10
791.125
20
71.855
0
VERTEX
8
CUT
10
793.000
20
71.560
0
VERTEX
8
CUT
10
794.875
20
71.259
0
VERTEX
8
CUT
10
796.750
20
70.953
0
VERTEX
8
CUT
10
798.625
20
70.641
0
VERTEX
8
CUT
10
800.500
20
70.324
0
VERTEX
8
CUT
10
802.375
20
70.001
0
VERTEX
8
CUT
10
804.250
20
69.673
0
VERTEX
8
CUT
10
806.125
20
69.340
0
VERTEX
8
CUT
10
808.000
20
69.002
0
VERTEX
8
CUT
10
809.875
20
68.660
0
VERTEX
8
CUT
10
811.750
20
68.314
0
VERTEX
8
CUT
10
813.625
20
67.964
0
VERTEX
8
CUT
10
815.500
20
67.610
0
VERTEX
8
CUT
10
817.375
20
67.252
0
VERTEX
8
CUT
10
819.250
20
66.891
0
VERTEX
8
CUT
10
821.125
20
66.527
0
VERTEX
8
CUT
10
823.000
20
66.160
0
VERTEX
8
CUT
10
824.875
20
65.789
0
VERTEX
8
CUT
10
826.750
20
65.414
0
VERTEX
8
CUT
10
828.625
20
65.035
0
VERTEX
8
CUT
10
830.500
20
64.652
0
VERTEX
8
CUT
10
832.375
20
64.265
0
VERTEX
8
CUT
10
832.400
20
64.260
0
VERTEX
8
CUT
10
831.371
20
59.367
0
VERTEX
8
CUT
10
836.571
20
58.273
0
VERTEX
8
CUT
10
837.600
20
63.166
0
VERTEX
8
CUT
10
838.000
20
63.081
0
VERTEX
8
CUT
10
839.875
20
62.679
0
VERTEX
8
CUT
10
841.750
20
62.273
0
VERTEX
8
CUT
10
843.625
20
61.864
0
VERTEX
8
CUT
10
845.500
20
61.452
0
VERTEX
8
CUT
10
847.375
20
61.036
0
VERTEX
8
CUT
10
849.250
20
60.617
0
VERTEX
8
CUT
10
851.125
20
60.195
0
VERTEX
8
CUT
10
853.000
20
59.770
0
VERTEX
8
CUT
10
854.902
20
59.334
0
VERTEX
8
CUT
10
856.853
20
58.881
0
VERTEX
8
CUT
10
858.839
20
58.415
0
VERTEX
8
CUT
10
860.852
20
57.938
0
VERTEX
8
CUT
10
862.879
20
57.453
0
VERTEX
8
CUT
10
864.909
20
56.965
0
VERTEX
8
CUT
10
866.932
20
56.474
0
VERTEX
8
CUT
10
868.938
20
55.986
0
VERTEX
8
CUT
10
870.913
20
55.502
0
VERTEX
8
CUT
10
872.849
20
55.027
0
VERTEX
8
CUT
10
874.733
20
54.562
0
VERTEX
8
CUT
10
876.555
20
54.111
0
VERTEX
8
CUT
10
878.303
20
53.677
0
VERTEX
8
CUT
10
879.968
20
53.264
0
VERTEX
8
CUT
10
881.537
20
52.874
0
VERTEX
8
CUT
10
883.000
20
52.510
0
VERTEX
8
CUT
10
885.593
20
51.860
0
VERTEX
8
CUT
10
887.805
20
51.297
0
VERTEX
8
CUT
10
889.724
20
50.800
0
VERTEX
8
CUT
10
891.438
20
50.348
0
VERTEX
8
CUT
10
893.034
20
49.920
0
VERTEX
8
CUT
10
894.602
20
49.497
0
VERTEX
8
CUT
10
896.228
20
49.057
0
VERTEX
8
CUT
10
898.000
20
48.580
0
VERTEX
8
CUT
10
899.978
20
48.047
0
VERTEX
8
CUT
10
902.102
20
47.469
0
VERTEX
8
CUT
10
904.284
20
46.871
0
VERTEX
8
CUT
10
906.438
20
46.279
0
VERTEX
8
CUT
10
908.474
20
45.718
0
VERTEX
8
CUT
10
910.305
20
45.212
0
VERTEX
8
CUT
10
911.843
20
44.788
0
VERTEX
8
CUT
10
913.000
20
44.470
0
VERTEX
8
CUT
10
913.000
20
44.110
0
VERTEX
8
CUT
10
911.843
20
44.110
0
VERTEX
8
CUT
10
910.305
20
44.110
0
VERTEX
8
CUT
10
908.474
20
44.110
0
VERTEX
8
CUT
10
906.438
20
44.110
0
VERTEX
8
CUT
10
904.284
20
44.110
0
VERTEX
8
CUT
10
902.102
20
44.110
0
VERTEX
8
CUT
10
899.978
20
44.110
0
VERTEX
8
CUT
10
898.000
20
44.110
0
VERTEX
8
CUT
10
896.228
20
44.110
0
VERTEX
8
CUT
10
894.602
20
44.110
0
VERTEX
8
CUT
10
893.034
20
44.110
0
VERTEX
8
CUT
10
891.438
20
44.110
0
VERTEX
8
CUT
10
889.724
20
44.110
0
VERTEX
8
CUT
10
887.805
20
44.110
0
VERTEX
8
CUT
10
885.593
20
44.110
0
VERTEX
8
CUT
10
883.000
20
44.110
0
VERTEX
8
CUT
10
881.436
20
44.110
0
VERTEX
8
CUT
10
879.751
20
44.110
0
VERTEX
8
CUT
10
877.960
20
44.110
0
VERTEX
8
CUT
10
876.076
20
44.110
0
VERTEX
8
CUT
10
874.111
20
44.110
0
VERTEX
8
CUT
10
872.080
20
44.110
0
VERTEX
8
CUT
10
869.996
20
44.110
0
VERTEX
8
CUT
10
867.871
20
44.110
0
VERTEX
8
CUT
10
865.720
20
44.110
0
VERTEX
8
CUT
10
863.556
20
44.110
0
VERTEX
8
CUT
10
861.391
20
44.110
0
VERTEX
8
CUT
10
859.240
20
44.110
0
VERTEX
8
CUT
10
857.116
20
44.110
0
VERTEX
8
CUT
10
855.031
20
44.110
0
VERTEX
8
CUT
10
853.000
20
44.110
0
VERTEX
8
CUT
10
851.000
20
44.110
0
VERTEX
8
CUT
10
849.000
20
44.110
0
VERTEX
8
CUT
10
847.000
20
44.110
0
VERTEX
8
CUT
10
845.000
20
44.110
0
VERTEX
8
CUT
10
843.000
20
44.110
0
VERTEX
8
CUT
10
841.000
20
44.110
0
VERTEX
8
CUT
10
839.000
20
44.110
0
VERTEX
8
CUT
10
837.600
20
44.110
0
VERTEX
8
CUT
10
837.600
20
49.110
0
VERTEX
8
CUT
10
832.400
20
49.110
0
VERTEX
8
CUT
10
832.400
20
44.110
0
VERTEX
8
CUT
10
831.000
20
44.110
0
VERTEX
8
CUT
10
829.000
20
44.110
0
VERTEX
8
CUT
10
827.000
20
44.110
0
VERTEX
8
CUT
10
825.000
20
44.110
0
VERTEX
8
CUT
10
823.000
20
44.110
0
VERTEX
8
CUT
10
821.000
20
44.110
0
VERTEX
8
CUT
10
819.000
20
44.110
0
VERTEX
8
CUT
10
817.000
20
44.110
0
VERTEX
8
CUT
10
815.000
20
44.110
0
VERTEX
8
CUT
10
813.000
20
44.110
0
VERTEX
8
CUT
10
811.000
20
44.110
0
VERTEX
8
CUT
10
809.000
20
44.110
0
VERTEX
8
CUT
10
807.000
20
44.110
0
VERTEX
8
CUT
10
805.000
20
44.110
0
VERTEX
8
CUT
10
803.000
20
44.110
0
VERTEX
8
CUT
10
801.000
20
44.110
0
VERTEX
8
CUT
10
799.000
20
44.110
0
VERTEX
8
CUT
10
797.000
20
44.110
0
VERTEX
8
CUT
10
795.000
20
44.110
0
VERTEX
8
CUT
10
793.000
20
44.110
0
VERTEX
8
CUT
10
791.000
20
44.110
0
VERTEX
8
CUT
10
789.000
20
44.110
0
VERTEX
8
CUT
10
787.000
20
44.110
0
VERTEX
8
CUT
10
785.000
20
44.110
0
VERTEX
8
CUT
10
783.000
20
44.110
0
VERTEX
8
CUT
10
781.000
20
44.110
0
VERTEX
8
CUT
10
779.000
20
44.110
0
VERTEX
8
CUT
10
777.000
20
44.110
0
VERTEX
8
CUT
10
775.000
20
44.110
0
VERTEX
8
CUT
10
773.000
20
44.110
0
VERTEX
8
CUT
10
771.600
20
44.110
0
VERTEX
8
CUT
10
771.600
20
49.110
0
VERTEX
8
CUT
10
766.400
20
49.110
0
VERTEX
8
CUT
10
766.400
20
44.110
0
VERTEX
8
CUT
10
765.000
20
44.110
0
VERTEX
8
CUT
10
763.000
20
44.110
0
VERTEX
8
CUT
10
761.000
20
44.110
0
VERTEX
8
CUT
10
759.000
20
44.110
0
VERTEX
8
CUT
10
757.000
20
44.110
0
VERTEX
8
CUT
10
755.000
20
44.110
0
VERTEX
8
CUT
10
753.000
20
44.110
0
VERTEX
8
CUT
10
751.000
20
44.110
0
VERTEX
8
CUT
10
749.000
20
44.110
0
VERTEX
8
CUT
10
747.000
20
44.110
0
VERTEX
8
CUT
10
745.000
20
44.110
0
VERTEX
8
CUT
10
743.000
20
44.110
0
VERTEX
8
CUT
10
741.000
20
44.110
0
VERTEX
8
CUT
10
739.000
20
44.110
0
VERTEX
8
CUT
10
737.000
20
44.110
0
VERTEX
8
CUT
10
735.000
20
44.110
0
VERTEX
8
CUT
10
733.000
20
44.110
0
VERTEX
8
CUT
10
731.000
20
44.110
0
VERTEX
8
CUT
10
729.000
20
44.109
0
VERTEX
8
CUT
10
727.000
20
44.108
0
VERTEX
8
CUT
10
725.000
20
44.107
0
VERTEX
8
CUT
10
723.000
20
44.106
0
VERTEX
8
CUT
10
721.000
20
44.105
0
VERTEX
8
CUT
10
719.000
20
44.105
0
VERTEX
8
CUT
10
717.000
20
44.104
0
VERTEX
8
CUT
10
715.000
20
44.103
0
VERTEX
8
CUT
10
713.000
20
44.103
0
VERTEX
8
CUT
10
711.000
20
44.103
0
VERTEX
8
CUT
10
709.000
20
44.104
0
VERTEX
8
CUT
10
707.000
20
44.105
0
VERTEX
8
CUT
10
705.600
20
44.107
0
VERTEX
8
CUT
10
705.607
20
49.107
0
VERTEX
8
CUT
10
700.407
20
49.113
0
VERTEX
8
CUT
10
700.400
20
44.113
0
VERTEX
8
CUT
10
699.147
20
44.115
0
VERTEX
8
CUT
10
697.161
20
44.117
0
VERTEX
8
CUT
10
695.148
20
44.120
0
VERTEX
8
CUT
10
693.121
20
44.122
0
VERTEX
8
CUT
10
691.091
20
44.125
0
VERTEX
8
CUT
10
689.068
20
44.128
0
VERTEX
8
CUT
10
687.062
20
44.132
0
VERTEX
8
CUT
10
685.087
20
44.137
0
VERTEX
8
CUT
10
683.151
20
44.142
0
VERTEX
8
CUT
10
681.267
20
44.149
0
VERTEX
8
CUT
10
679.445
20
44.156
0
VERTEX
8
CUT
10
677.697
20
44.165
0
VERTEX
8
CUT
10
676.032
20
44.175
0
VERTEX
8
CUT
10
674.463
20
44.187
0
VERTEX
8
CUT
10
673.000
20
44.200
0
VERTEX
8
CUT
10
670.407
20
44.229
0
VERTEX
8
CUT
10
668.195
20
44.260
0
VERTEX
8
CUT
10
666.276
20
44.295
0
VERTEX
8
CUT
10
664.562
20
44.335
0
VERTEX
8
CUT
10
662.966
20
44.380
0
VERTEX
8
CUT
10
661.398
20
44.432
0
VERTEX
8
CUT
10
659.772
20
44.491
0
VERTEX
8
CUT
10
658.000
20
44.560
0
VERTEX
8
CUT
10
656.074
20
44.641
0
VERTEX
8
CUT
10
654.074
20
44.735
0
VERTEX
8
CUT
10
652.045
20
44.838
0
VERTEX
8
CUT
10
650.031
20
44.948
0
VERTEX
8
CUT
10
648.076
20
45.059
0
VERTEX
8
CUT
10
646.223
20
45.169
0
VERTEX
8
CUT
10
644.516
20
45.274
0
VERTEX
8
CUT
10
643.000
20
45.370
0
VERTEX
8
CUT
10
640.598
20
45.534
0
VERTEX
8
CUT
10
638.781
20
45.679
0
VERTEX
8
CUT
10
637.199
20
45.827
0
VERTEX
8
CUT
10
635.500
20
46.000
0
VERTEX
8
CUT
10
633.625
20
46.189
0
VERTEX
8
CUT
10
631.750
20
46.388
0
VERTEX
8
CUT
10
629.875
20
46.618
0
VERTEX
8
CUT
10
628.000
20
46.900
0
VERTEX
8
CUT
10
626.037
20
47.260
0
VERTEX
8
CUT
10
624.016
20
47.680
0
VERTEX
8
CUT
10
622.111
20
48.115
0
VERTEX
8
CUT
10
620.500
20
48.520
0
VERTEX
8
CUT
10
618.391
20
49.017
0
VERTEX
8
CUT
10
616.750
20
49.900
0
VERTEX
8
CUT
10
615.725
20
50.954
0
VERTEX
8
CUT
10
614.641
20
52.341
0
VERTEX
8
CUT
10
613.674
20
53.685
0
SEQEND
0
TEXT
8
POPIS
10
619.000
20
47.103
40
5.000
1
zebro-plne-300
0
ENDSEC
0
EOF
