0
SECTION
2
TABLES
0
TABLE
2
LAYER
70
2
0
LAYER
2
CUT
70
0
62
7
6
CONTINUOUS
0
LAYER
2
POPIS
70
0
62
1
6
CONTINUOUS
0
ENDTAB
0
ENDSEC
0
SECTION
2
ENTITIES
0
POLYLINE
8
CUT
66
1
70
1
0
VERTEX
8
CUT
10
10.000
20
5.000
0
VERTEX
8
CUT
10
120.000
20
5.000
0
VERTEX
8
CUT
10
120.000
20
10.000
0
VERTEX
8
CUT
10
125.000
20
10.000
0
VERTEX
8
CUT
10
125.000
20
140.000
0
VERTEX
8
CUT
10
120.000
20
140.000
0
VERTEX
8
CUT
10
120.000
20
145.000
0
VERTEX
8
CUT
10
10.000
20
145.000
0
VERTEX
8
CUT
10
10.000
20
140.000
0
VERTEX
8
CUT
10
5.000
20
140.000
0
VERTEX
8
CUT
10
5.000
20
10.000
0
VERTEX
8
CUT
10
10.000
20
10.000
0
SEQEND
0
POLYLINE
8
CUT
66
1
70
1
0
VERTEX
8
CUT
10
25.000
20
25.000
0
VERTEX
8
CUT
10
105.000
20
25.000
0
VERTEX
8
CUT
10
105.000
20
125.000
0
VERTEX
8
CUT
10
25.000
20
125.000
0
SEQEND
0
TEXT
8
POPIS
10
11.000
20
8.000
40
5.000
1
F2
0
POLYLINE
8
CUT
66
1
70
1
0
VERTEX
8
CUT
10
134.000
20
5.000
0
VERTEX
8
CUT
10
244.000
20
5.000
0
VERTEX
8
CUT
10
244.000
20
10.000
0
VERTEX
8
CUT
10
249.000
20
10.000
0
VERTEX
8
CUT
10
249.000
20
140.000
0
VERTEX
8
CUT
10
244.000
20
140.000
0
VERTEX
8
CUT
10
244.000
20
145.000
0
VERTEX
8
CUT
10
134.000
20
145.000
0
VERTEX
8
CUT
10
134.000
20
140.000
0
VERTEX
8
CUT
10
129.000
20
140.000
0
VERTEX
8
CUT
10
129.000
20
10.000
0
VERTEX
8
CUT
10
134.000
20
10.000
0
SEQEND
0
POLYLINE
8
CUT
66
1
70
1
0
VERTEX
8
CUT
10
149.000
20
25.000
0
VERTEX
8
CUT
10
229.000
20
25.000
0
VERTEX
8
CUT
10
229.000
20
125.000
0
VERTEX
8
CUT
10
149.000
20
125.000
0
SEQEND
0
TEXT
8
POPIS
10
135.000
20
8.000
40
5.000
1
F3
0
POLYLINE
8
CUT
66
1
70
1
0
VERTEX
8
CUT
10
258.000
20
5.000
0
VERTEX
8
CUT
10
368.000
20
5.000
0
VERTEX
8
CUT
10
368.000
20
10.000
0
VERTEX
8
CUT
10
373.000
20
10.000
0
VERTEX
8
CUT
10
373.000
20
140.000
0
VERTEX
8
CUT
10
368.000
20
140.000
0
VERTEX
8
CUT
10
368.000
20
145.000
0
VERTEX
8
CUT
10
258.000
20
145.000
0
VERTEX
8
CUT
10
258.000
20
140.000
0
VERTEX
8
CUT
10
253.000
20
140.000
0
VERTEX
8
CUT
10
253.000
20
10.000
0
VERTEX
8
CUT
10
258.000
20
10.000
0
SEQEND
0
POLYLINE
8
CUT
66
1
70
1
0
VERTEX
8
CUT
10
273.000
20
25.000
0
VERTEX
8
CUT
10
353.000
20
25.000
0
VERTEX
8
CUT
10
353.000
20
125.000
0
VERTEX
8
CUT
10
273.000
20
125.000
0
SEQEND
0
TEXT
8
POPIS
10
259.000
20
8.000
40
5.000
1
F4W
0
POLYLINE
8
CUT
66
1
70
1
0
VERTEX
8
CUT
10
382.000
20
5.000
0
VERTEX
8
CUT
10
492.000
20
5.000
0
VERTEX
8
CUT
10
492.000
20
10.000
0
VERTEX
8
CUT
10
497.000
20
10.000
0
VERTEX
8
CUT
10
497.000
20
140.000
0
VERTEX
8
CUT
10
492.000
20
140.000
0
VERTEX
8
CUT
10
492.000
20
145.000
0
VERTEX
8
CUT
10
382.000
20
145.000
0
VERTEX
8
CUT
10
382.000
20
140.000
0
VERTEX
8
CUT
10
377.000
20
140.000
0
VERTEX
8
CUT
10
377.000
20
10.000
0
VERTEX
8
CUT
10
382.000
20
10.000
0
SEQEND
0
POLYLINE
8
CUT
66
1
70
1
0
VERTEX
8
CUT
10
397.000
20
25.000
0
VERTEX
8
CUT
10
477.000
20
25.000
0
VERTEX
8
CUT
10
477.000
20
125.000
0
VERTEX
8
CUT
10
397.000
20
125.000
0
SEQEND
0
TEXT
8
POPIS
10
383.000
20
8.000
40
5.000
1
F5W
0
POLYLINE
8
CUT
66
1
70
1
0
VERTEX
8
CUT
10
10.000
20
149.000
0
VERTEX
8
CUT
10
100.000
20
149.000
0
VERTEX
8
CUT
10
100.000
20
154.000
0
VERTEX
8
CUT
10
105.000
20
154.000
0
VERTEX
8
CUT
10
105.000
20
254.000
0
VERTEX
8
CUT
10
100.000
20
254.000
0
VERTEX
8
CUT
10
100.000
20
259.000
0
VERTEX
8
CUT
10
10.000
20
259.000
0
VERTEX
8
CUT
10
10.000
20
254.000
0
VERTEX
8
CUT
10
5.000
20
254.000
0
VERTEX
8
CUT
10
5.000
20
154.000
0
VERTEX
8
CUT
10
10.000
20
154.000
0
SEQEND
0
POLYLINE
8
CUT
66
1
70
1
0
VERTEX
8
CUT
10
25.000
20
169.000
0
VERTEX
8
CUT
10
85.000
20
169.000
0
VERTEX
8
CUT
10
85.000
20
239.000
0
VERTEX
8
CUT
10
25.000
20
239.000
0
SEQEND
0
TEXT
8
POPIS
10
11.000
20
152.000
40
5.000
1
F6
0
POLYLINE
8
CUT
66
1
70
1
0
VERTEX
8
CUT
10
114.000
20
149.000
0
VERTEX
8
CUT
10
176.000
20
149.000
0
VERTEX
8
CUT
10
176.000
20
154.000
0
VERTEX
8
CUT
10
181.000
20
154.000
0
VERTEX
8
CUT
10
181.000
20
222.000
0
VERTEX
8
CUT
10
176.000
20
222.000
0
VERTEX
8
CUT
10
176.000
20
227.000
0
VERTEX
8
CUT
10
114.000
20
227.000
0
VERTEX
8
CUT
10
114.000
20
222.000
0
VERTEX
8
CUT
10
109.000
20
222.000
0
VERTEX
8
CUT
10
109.000
20
154.000
0
VERTEX
8
CUT
10
114.000
20
154.000
0
SEQEND
0
POLYLINE
8
CUT
66
1
70
1
0
VERTEX
8
CUT
10
129.000
20
169.000
0
VERTEX
8
CUT
10
161.000
20
169.000
0
VERTEX
8
CUT
10
161.000
20
207.000
0
VERTEX
8
CUT
10
129.000
20
207.000
0
SEQEND
0
TEXT
8
POPIS
10
115.000
20
152.000
40
5.000
1
F7T
0
POLYLINE
8
CUT
66
1
70
1
0
VERTEX
8
CUT
10
190.000
20
149.000
0
VERTEX
8
CUT
10
252.000
20
149.000
0
VERTEX
8
CUT
10
252.000
20
154.000
0
VERTEX
8
CUT
10
257.000
20
154.000
0
VERTEX
8
CUT
10
257.000
20
222.000
0
VERTEX
8
CUT
10
252.000
20
222.000
0
VERTEX
8
CUT
10
252.000
20
227.000
0
VERTEX
8
CUT
10
190.000
20
227.000
0
VERTEX
8
CUT
10
190.000
20
222.000
0
VERTEX
8
CUT
10
185.000
20
222.000
0
VERTEX
8
CUT
10
185.000
20
154.000
0
VERTEX
8
CUT
10
190.000
20
154.000
0
SEQEND
0
POLYLINE
8
CUT
66
1
70
1
0
VERTEX
8
CUT
10
205.000
20
169.000
0
VERTEX
8
CUT
10
237.000
20
169.000
0
VERTEX
8
CUT
10
237.000
20
207.000
0
VERTEX
8
CUT
10
205.000
20
207.000
0
SEQEND
0
TEXT
8
POPIS
10
191.000
20
152.000
40
5.000
1
F8T
0
POLYLINE
8
CUT
66
1
70
1
0
VERTEX
8
CUT
10
266.000
20
149.000
0
VERTEX
8
CUT
10
304.000
20
149.000
0
VERTEX
8
CUT
10
304.000
20
154.000
0
VERTEX
8
CUT
10
309.000
20
154.000
0
VERTEX
8
CUT
10
309.000
20
196.000
0
VERTEX
8
CUT
10
304.000
20
196.000
0
VERTEX
8
CUT
10
304.000
20
201.000
0
VERTEX
8
CUT
10
266.000
20
201.000
0
VERTEX
8
CUT
10
266.000
20
196.000
0
VERTEX
8
CUT
10
261.000
20
196.000
0
VERTEX
8
CUT
10
261.000
20
154.000
0
VERTEX
8
CUT
10
266.000
20
154.000
0
SEQEND
0
TEXT
8
POPIS
10
267.000
20
152.000
40
5.000
1
F9
0
ENDSEC
0
EOF
