<svg xmlns="http://www.w3.org/2000/svg" viewBox="-10 -10 1300 340" font-family="sans-serif" font-size="9">
<rect x="-10" y="-10" width="1300" height="340" fill="white"/>
<polygon points="5.00,310.00 115.00,310.00 115.00,305.00 120.00,305.00 120.00,190.00 115.00,190.00 115.00,185.00 5.00,185.00 5.00,190.00 0.00,190.00 0.00,305.00 5.00,305.00" fill="#e8d8b0" stroke="#333" stroke-width="0.6"/>
<text x="0.0" y="324.0">F1 120x125 t=5</text>
<polygon points="145.00,310.00 255.00,310.00 255.00,305.00 260.00,305.00 260.00,175.00 255.00,175.00 255.00,170.00 145.00,170.00 145.00,175.00 140.00,175.00 140.00,305.00 145.00,305.00" fill="#e8d8b0" stroke="#333" stroke-width="0.6"/>
<polygon points="160.00,290.00 240.00,290.00 240.00,190.00 160.00,190.00" fill="white" stroke="#333" stroke-width="0.6"/>
<text x="140.0" y="324.0">F2 120x140 t=3</text>
<polygon points="285.00,310.00 395.00,310.00 395.00,305.00 400.00,305.00 400.00,175.00 395.00,175.00 395.00,170.00 285.00,170.00 285.00,175.00 280.00,175.00 280.00,305.00 285.00,305.00" fill="#e8d8b0" stroke="#333" stroke-width="0.6"/>
<polygon points="300.00,290.00 380.00,290.00 380.00,190.00 300.00,190.00" fill="white" stroke="#333" stroke-width="0.6"/>
<text x="280.0" y="324.0">F3 120x140 t=3</text>
<polygon points="425.00,310.00 535.00,310.00 535.00,305.00 540.00,305.00 540.00,175.00 535.00,175.00 535.00,170.00 425.00,170.00 425.00,175.00 420.00,175.00 420.00,305.00 425.00,305.00" fill="#e8d8b0" stroke="#333" stroke-width="0.6"/>
<polygon points="440.00,290.00 520.00,290.00 520.00,190.00 440.00,190.00" fill="white" stroke="#333" stroke-width="0.6"/>
<text x="420.0" y="324.0">F4W 120x140 t=3</text>
<polygon points="565.00,310.00 675.00,310.00 675.00,305.00 680.00,305.00 680.00,175.00 675.00,175.00 675.00,170.00 565.00,170.00 565.00,175.00 560.00,175.00 560.00,305.00 565.00,305.00" fill="#e8d8b0" stroke="#333" stroke-width="0.6"/>
<polygon points="580.00,290.00 660.00,290.00 660.00,190.00 580.00,190.00" fill="white" stroke="#333" stroke-width="0.6"/>
<text x="560.0" y="324.0">F5W 120x140 t=3</text>
<polygon points="705.00,310.00 795.00,310.00 795.00,305.00 800.00,305.00 800.00,205.00 795.00,205.00 795.00,200.00 705.00,200.00 705.00,205.00 700.00,205.00 700.00,305.00 705.00,305.00" fill="#e8d8b0" stroke="#333" stroke-width="0.6"/>
<polygon points="720.00,290.00 780.00,290.00 780.00,220.00 720.00,220.00" fill="white" stroke="#333" stroke-width="0.6"/>
<text x="700.0" y="324.0">F6 100x110 t=3</text>
<polygon points="825.00,310.00 887.00,310.00 887.00,305.00 892.00,305.00 892.00,237.00 887.00,237.00 887.00,232.00 825.00,232.00 825.00,237.00 820.00,237.00 820.00,305.00 825.00,305.00" fill="#e8d8b0" stroke="#333" stroke-width="0.6"/>
<polygon points="840.00,290.00 872.00,290.00 872.00,252.00 840.00,252.00" fill="white" stroke="#333" stroke-width="0.6"/>
<text x="820.0" y="324.0">F7T 72x78 t=3</text>
<polygon points="917.00,310.00 979.00,310.00 979.00,305.00 984.00,305.00 984.00,237.00 979.00,237.00 979.00,232.00 917.00,232.00 917.00,237.00 912.00,237.00 912.00,305.00 917.00,305.00" fill="#e8d8b0" stroke="#333" stroke-width="0.6"/>
<polygon points="932.00,290.00 964.00,290.00 964.00,252.00 932.00,252.00" fill="white" stroke="#333" stroke-width="0.6"/>
<text x="912.0" y="324.0">F8T 72x78 t=3</text>
<polygon points="1009.00,310.00 1047.00,310.00 1047.00,305.00 1052.00,305.00 1052.00,263.00 1047.00,263.00 1047.00,258.00 1009.00,258.00 1009.00,263.00 1004.00,263.00 1004.00,305.00 1009.00,305.00" fill="#e8d8b0" stroke="#333" stroke-width="0.6"/>
<text x="1004.0" y="324.0">F9 48x52 t=3</text>
<polygon points="0.00,99.50 0.67,98.39 1.64,96.77 2.72,95.06 3.75,93.65 4.86,92.44 5.97,91.53 7.50,90.50 8.76,89.71 10.23,88.83 11.82,87.93 13.44,87.07 15.00,86.30 16.50,85.63 18.00,85.03 19.50,84.48 21.00,83.96 21.40,83.82 22.99,88.56 28.19,86.85 26.60,82.11 27.60,81.82 30.00,81.20 31.52,80.83 33.22,80.43 35.08,80.00 37.03,79.57 39.05,79.13 41.07,78.71 43.07,78.31 45.00,77.96 46.77,77.64 48.40,77.34 49.97,77.06 51.56,76.80 53.28,76.56 55.20,76.33 57.41,76.12 60.00,75.92 61.46,75.82 63.03,75.73 64.70,75.64 66.45,75.55 68.27,75.46 70.15,75.38 72.09,75.30 74.06,75.23 76.07,75.16 78.09,75.10 80.12,75.04 82.15,75.00 84.16,74.96 86.15,74.93 87.40,74.92 87.41,79.92 92.61,79.90 92.60,74.90 93.75,74.91 95.62,74.93 97.50,74.95 99.38,74.98 101.25,75.02 103.12,75.07 105.00,75.12 106.88,75.18 108.75,75.25 110.62,75.33 112.50,75.41 114.38,75.50 116.25,75.59 118.12,75.69 120.00,75.80 121.88,75.91 123.75,76.04 125.62,76.17 127.50,76.30 129.38,76.45 131.25,76.60 133.12,76.76 135.00,76.92 136.88,77.09 138.75,77.27 140.62,77.45 142.50,77.64 144.38,77.83 146.25,78.03 148.12,78.23 150.00,78.44 151.88,78.65 153.40,78.83 152.79,83.80 157.99,84.44 158.60,79.47 159.38,79.57 161.25,79.82 163.12,80.07 165.00,80.32 166.88,80.58 168.75,80.85 170.62,81.12 172.50,81.40 174.38,81.68 176.25,81.96 178.12,82.26 180.00,82.55 181.88,82.85 183.75,83.16 185.62,83.47 187.50,83.79 189.38,84.11 191.25,84.44 193.12,84.77 195.00,85.11 196.88,85.45 198.75,85.80 200.62,86.15 202.50,86.50 204.38,86.86 206.25,87.22 208.12,87.58 210.00,87.95 211.88,88.32 213.75,88.70 215.62,89.07 217.50,89.46 219.38,89.84 219.40,89.85 218.37,94.74 223.57,95.84 224.60,90.94 225.00,91.03 226.88,91.43 228.75,91.84 230.62,92.25 232.50,92.66 234.38,93.07 236.25,93.49 238.12,93.91 240.00,94.34 241.90,94.78 243.85,95.23 245.84,95.69 247.85,96.17 249.88,96.66 251.91,97.15 253.93,97.64 255.94,98.12 257.91,98.61 259.85,99.08 261.73,99.55 263.55,100.00 265.30,100.43 266.97,100.85 268.54,101.24 270.00,101.60 272.59,102.25 274.80,102.81 276.72,103.31 278.44,103.76 280.03,104.19 281.60,104.61 283.23,105.05 285.00,105.53 286.98,106.06 289.10,106.64 291.28,107.24 293.44,107.83 295.47,108.39 297.30,108.90 298.84,109.32 300.00,109.64 300.00,110.00 298.84,110.00 297.30,110.00 295.47,110.00 293.44,110.00 291.28,110.00 289.10,110.00 286.98,110.00 285.00,110.00 283.23,110.00 281.60,110.00 280.03,110.00 278.44,110.00 276.72,110.00 274.80,110.00 272.59,110.00 270.00,110.00 268.44,110.00 266.75,110.00 264.96,110.00 263.08,110.00 261.11,110.00 259.08,110.00 257.00,110.00 254.87,110.00 252.72,110.00 250.56,110.00 248.39,110.00 246.24,110.00 244.12,110.00 242.03,110.00 240.00,110.00 238.00,110.00 236.00,110.00 234.00,110.00 232.00,110.00 230.00,110.00 228.00,110.00 226.00,110.00 224.60,110.00 224.60,105.00 219.40,105.00 219.40,110.00 218.00,110.00 216.00,110.00 214.00,110.00 212.00,110.00 210.00,110.00 208.00,110.00 206.00,110.00 204.00,110.00 202.00,110.00 200.00,110.00 198.00,110.00 196.00,110.00 194.00,110.00 192.00,110.00 190.00,110.00 188.00,110.00 186.00,110.00 184.00,110.00 182.00,110.00 180.00,110.00 178.00,110.00 176.00,110.00 174.00,110.00 172.00,110.00 170.00,110.00 168.00,110.00 166.00,110.00 164.00,110.00 162.00,110.00 160.00,110.00 158.60,110.00 158.60,105.00 153.40,105.00 153.40,110.00 152.00,110.00 150.00,110.00 148.00,110.00 146.00,110.00 144.00,110.00 142.00,110.00 140.00,110.00 138.00,110.00 136.00,110.00 134.00,110.00 132.00,110.00 130.00,110.00 128.00,110.00 126.00,110.00 124.00,110.00 122.00,110.00 120.00,110.00 118.00,110.00 116.00,110.00 114.00,110.00 112.00,110.00 110.00,110.00 108.00,110.00 106.00,110.01 104.00,110.01 102.00,110.01 100.00,110.01 98.00,110.01 96.00,110.01 94.00,110.00 92.60,110.00 92.61,105.00 87.41,105.00 87.40,110.00 86.15,109.99 84.16,109.99 82.15,109.99 80.12,109.99 78.09,109.98 76.07,109.98 74.06,109.98 72.09,109.97 70.15,109.97 68.27,109.96 66.45,109.95 64.70,109.94 63.03,109.93 61.46,109.92 60.00,109.91 57.41,109.88 55.20,109.85 53.28,109.81 51.56,109.78 49.97,109.73 48.40,109.68 46.77,109.62 45.00,109.55 43.07,109.47 41.07,109.37 39.05,109.27 37.03,109.16 35.08,109.05 33.22,108.94 31.52,108.84 30.00,108.74 27.60,108.58 25.78,108.43 24.20,108.28 22.50,108.11 20.62,107.92 18.75,107.72 16.88,107.49 15.00,107.21 13.04,106.85 11.02,106.43 9.11,106.00 7.50,105.59 5.39,105.09 3.75,104.21 2.72,103.16 1.64,101.77 0.67,100.42" fill="#e8d8b0" stroke="#333" stroke-width="0.6"/>
<text x="0.0" y="124.0">Zebro plne 300 (12x)</text>
<polygon points="340.00,99.50 340.67,98.39 341.64,96.77 342.72,95.06 343.75,93.65 344.86,92.44 345.97,91.53 347.50,90.50 348.76,89.71 350.23,88.83 351.82,87.93 353.44,87.07 355.00,86.30 356.50,85.63 358.00,85.03 359.50,84.48 361.00,83.96 361.40,83.82 362.99,88.56 368.19,86.85 366.60,82.11 367.60,81.82 370.00,81.20 371.52,80.83 373.22,80.43 375.08,80.00 377.03,79.57 379.05,79.13 381.07,78.71 383.07,78.31 385.00,77.96 386.77,77.64 388.40,77.34 389.97,77.06 391.56,76.80 393.28,76.56 395.20,76.33 397.41,76.12 400.00,75.92 401.46,75.82 403.03,75.73 404.70,75.64 406.45,75.55 408.27,75.46 410.15,75.38 412.09,75.30 414.06,75.23 416.07,75.16 418.09,75.10 420.12,75.04 422.15,75.00 424.16,74.96 426.15,74.93 427.40,74.92 427.41,79.92 432.61,79.90 432.60,74.90 433.75,74.91 435.62,74.93 437.50,74.95 439.38,74.98 441.25,75.02 443.12,75.07 445.00,75.12 446.88,75.18 448.75,75.25 450.62,75.33 452.50,75.41 454.38,75.50 456.25,75.59 458.12,75.69 460.00,75.80 461.88,75.91 463.75,76.04 465.62,76.17 467.50,76.30 469.38,76.45 471.25,76.60 473.12,76.76 475.00,76.92 476.88,77.09 478.75,77.27 480.62,77.45 482.50,77.64 484.38,77.83 486.25,78.03 488.12,78.23 490.00,78.44 491.88,78.65 493.40,78.83 492.79,83.80 497.99,84.44 498.60,79.47 499.38,79.57 501.25,79.82 503.12,80.07 505.00,80.32 506.88,80.58 508.75,80.85 510.62,81.12 512.50,81.40 514.38,81.68 516.25,81.96 518.12,82.26 520.00,82.55 521.88,82.85 523.75,83.16 525.62,83.47 527.50,83.79 529.38,84.11 531.25,84.44 533.12,84.77 535.00,85.11 536.88,85.45 538.75,85.80 540.62,86.15 542.50,86.50 544.38,86.86 546.25,87.22 548.12,87.58 550.00,87.95 551.88,88.32 553.75,88.70 555.62,89.07 557.50,89.46 559.38,89.84 559.40,89.85 558.37,94.74 563.57,95.84 564.60,90.94 565.00,91.03 566.88,91.43 568.75,91.84 570.62,92.25 572.50,92.66 574.38,93.07 575.00,93.21 575.00,110.00 574.00,110.00 572.00,110.00 570.00,110.00 568.00,110.00 566.00,110.00 564.60,110.00 564.60,105.00 559.40,105.00 559.40,110.00 558.00,110.00 556.00,110.00 554.00,110.00 552.00,110.00 550.00,110.00 548.00,110.00 546.00,110.00 544.00,110.00 542.00,110.00 540.00,110.00 538.00,110.00 536.00,110.00 534.00,110.00 532.00,110.00 530.00,110.00 528.00,110.00 526.00,110.00 524.00,110.00 522.00,110.00 520.00,110.00 518.00,110.00 516.00,110.00 514.00,110.00 512.00,110.00 510.00,110.00 508.00,110.00 506.00,110.00 504.00,110.00 502.00,110.00 500.00,110.00 498.60,110.00 498.60,105.00 493.40,105.00 493.40,110.00 492.00,110.00 490.00,110.00 488.00,110.00 486.00,110.00 484.00,110.00 482.00,110.00 480.00,110.00 478.00,110.00 476.00,110.00 474.00,110.00 472.00,110.00 470.00,110.00 468.00,110.00 466.00,110.00 464.00,110.00 462.00,110.00 460.00,110.00 458.00,110.00 456.00,110.00 454.00,110.00 452.00,110.00 450.00,110.00 448.00,110.00 446.00,110.01 444.00,110.01 442.00,110.01 440.00,110.01 438.00,110.01 436.00,110.01 434.00,110.00 432.60,110.00 432.61,105.00 427.41,105.00 427.40,110.00 426.15,109.99 424.16,109.99 422.15,109.99 420.12,109.99 418.09,109.98 416.07,109.98 414.06,109.98 412.09,109.97 410.15,109.97 408.27,109.96 406.45,109.95 404.70,109.94 403.03,109.93 401.46,109.92 400.00,109.91 397.41,109.88 395.20,109.85 393.28,109.81 391.56,109.78 389.97,109.73 388.40,109.68 386.77,109.62 385.00,109.55 383.07,109.47 381.07,109.37 379.05,109.27 377.03,109.16 375.08,109.05 373.22,108.94 371.52,108.84 370.00,108.74 367.60,108.58 365.78,108.43 364.20,108.28 362.50,108.11 360.62,107.92 358.75,107.72 356.88,107.49 355.00,107.21 353.04,106.85 351.02,106.43 349.11,106.00 347.50,105.59 345.39,105.09 343.75,104.21 342.72,103.16 341.64,101.77 340.67,100.42" fill="#e8d8b0" stroke="#333" stroke-width="0.6"/>
<text x="340.0" y="124.0">Zebro kratke 235 (22x)</text>
<polygon points="855.00,93.21 856.25,93.49 858.12,93.91 860.00,94.34 861.90,94.78 863.85,95.23 865.84,95.69 867.85,96.17 869.88,96.66 871.91,97.15 873.93,97.64 875.94,98.12 877.91,98.61 879.85,99.08 881.73,99.55 883.55,100.00 885.30,100.43 886.97,100.85 888.54,101.24 890.00,101.60 892.59,102.25 894.80,102.81 896.72,103.31 898.44,103.76 900.03,104.19 901.60,104.61 903.23,105.05 905.00,105.53 906.98,106.06 909.10,106.64 911.28,107.24 913.44,107.83 915.47,108.39 917.30,108.90 918.84,109.32 920.00,109.64 920.00,110.00 918.84,110.00 917.30,110.00 915.47,110.00 913.44,110.00 911.28,110.00 909.10,110.00 906.98,110.00 905.00,110.00 903.23,110.00 901.60,110.00 900.03,110.00 898.44,110.00 896.72,110.00 894.80,110.00 892.59,110.00 890.00,110.00 888.44,110.00 886.75,110.00 884.96,110.00 883.08,110.00 881.11,110.00 879.08,110.00 877.00,110.00 874.87,110.00 872.72,110.00 870.56,110.00 868.39,110.00 866.24,110.00 864.12,110.00 862.03,110.00 860.00,110.00 858.00,110.00 856.00,110.00 855.00,110.00" fill="#e8d8b0" stroke="#333" stroke-width="0.6"/>
<text x="620.0" y="124.0">Zebro klapky/kridelka 65 (26x)</text>
</svg>