0
SECTION
2
TABLES
0
TABLE
2
LAYER
70
2
0
LAYER
2
CUT
70
0
62
7
6
CONTINUOUS
0
LAYER
2
POPIS
70
0
62
1
6
CONTINUOUS
0
ENDTAB
0
ENDSEC
0
SECTION
2
ENTITIES
0
POLYLINE
8
CUT
66
1
70
1
0
VERTEX
8
CUT
10
0.000
20
16.786
0
VERTEX
8
CUT
10
1.250
20
16.507
0
VERTEX
8
CUT
10
3.125
20
16.085
0
VERTEX
8
CUT
10
5.000
20
15.660
0
VERTEX
8
CUT
10
6.902
20
15.224
0
VERTEX
8
CUT
10
8.853
20
14.771
0
VERTEX
8
CUT
10
10.839
20
14.305
0
VERTEX
8
CUT
10
12.852
20
13.828
0
VERTEX
8
CUT
10
14.879
20
13.344
0
VERTEX
8
CUT
10
16.909
20
12.855
0
VERTEX
8
CUT
10
18.932
20
12.365
0
VERTEX
8
CUT
10
20.938
20
11.876
0
VERTEX
8
CUT
10
22.913
20
11.393
0
VERTEX
8
CUT
10
24.849
20
10.917
0
VERTEX
8
CUT
10
26.733
20
10.452
0
VERTEX
8
CUT
10
28.555
20
10.001
0
VERTEX
8
CUT
10
30.303
20
9.568
0
VERTEX
8
CUT
10
31.968
20
9.154
0
VERTEX
8
CUT
10
33.537
20
8.764
0
VERTEX
8
CUT
10
35.000
20
8.400
0
VERTEX
8
CUT
10
37.593
20
7.751
0
VERTEX
8
CUT
10
39.805
20
7.188
0
VERTEX
8
CUT
10
41.724
20
6.690
0
VERTEX
8
CUT
10
43.438
20
6.238
0
VERTEX
8
CUT
10
45.034
20
5.811
0
VERTEX
8
CUT
10
46.602
20
5.387
0
VERTEX
8
CUT
10
48.228
20
4.947
0
VERTEX
8
CUT
10
50.000
20
4.470
0
VERTEX
8
CUT
10
51.978
20
3.937
0
VERTEX
8
CUT
10
54.102
20
3.359
0
VERTEX
8
CUT
10
56.284
20
2.761
0
VERTEX
8
CUT
10
58.438
20
2.169
0
VERTEX
8
CUT
10
60.474
20
1.608
0
VERTEX
8
CUT
10
62.305
20
1.103
0
VERTEX
8
CUT
10
63.843
20
0.678
0
VERTEX
8
CUT
10
65.000
20
0.360
0
VERTEX
8
CUT
10
65.000
20
0.000
0
VERTEX
8
CUT
10
63.843
20
0.000
0
VERTEX
8
CUT
10
62.305
20
0.000
0
VERTEX
8
CUT
10
60.474
20
0.000
0
VERTEX
8
CUT
10
58.438
20
0.000
0
VERTEX
8
CUT
10
56.284
20
0.000
0
VERTEX
8
CUT
10
54.102
20
0.000
0
VERTEX
8
CUT
10
51.978
20
0.000
0
VERTEX
8
CUT
10
50.000
20
0.000
0
VERTEX
8
CUT
10
48.228
20
0.000
0
VERTEX
8
CUT
10
46.602
20
0.000
0
VERTEX
8
CUT
10
45.034
20
0.000
0
VERTEX
8
CUT
10
43.438
20
0.000
0
VERTEX
8
CUT
10
41.724
20
0.000
0
VERTEX
8
CUT
10
39.805
20
0.000
0
VERTEX
8
CUT
10
37.593
20
0.000
0
VERTEX
8
CUT
10
35.000
20
0.000
0
VERTEX
8
CUT
10
33.436
20
0.000
0
VERTEX
8
CUT
10
31.751
20
0.000
0
VERTEX
8
CUT
10
29.960
20
0.000
0
VERTEX
8
CUT
10
28.076
20
0.000
0
VERTEX
8
CUT
10
26.111
20
0.000
0
VERTEX
8
CUT
10
24.080
20
0.000
0
VERTEX
8
CUT
10
21.996
20
0.000
0
VERTEX
8
CUT
10
19.871
20
0.000
0
VERTEX
8
CUT
10
17.720
20
0.000
0
VERTEX
8
CUT
10
15.556
20
0.000
0
VERTEX
8
CUT
10
13.391
20
0.000
0
VERTEX
8
CUT
10
11.240
20
0.000
0
VERTEX
8
CUT
10
9.116
20
0.000
0
VERTEX
8
CUT
10
7.031
20
0.000
0
VERTEX
8
CUT
10
5.000
20
0.000
0
VERTEX
8
CUT
10
3.000
20
0.000
0
VERTEX
8
CUT
10
1.000
20
0.000
0
VERTEX
8
CUT
10
0.000
20
0.000
0
SEQEND
0
ENDSEC
0
EOF
