0
SECTION
2
TABLES
0
TABLE
2
LAYER
70
2
0
LAYER
2
CUT
70
0
62
7
6
CONTINUOUS
0
LAYER
2
POPIS
70
0
62
1
6
CONTINUOUS
0
ENDTAB
0
ENDSEC
0
SECTION
2
ENTITIES
0
POLYLINE
8
CUT
66
1
70
1
0
VERTEX
8
CUT
10
0.000
20
10.507
0
VERTEX
8
CUT
10
0.674
20
11.621
0
VERTEX
8
CUT
10
1.641
20
13.235
0
VERTEX
8
CUT
10
2.725
20
14.947
0
VERTEX
8
CUT
10
3.750
20
16.357
0
VERTEX
8
CUT
10
4.861
20
17.568
0
VERTEX
8
CUT
10
5.972
20
18.479
0
VERTEX
8
CUT
10
7.500
20
19.507
0
VERTEX
8
CUT
10
8.760
20
20.301
0
VERTEX
8
CUT
10
10.230
20
21.176
0
VERTEX
8
CUT
10
11.820
20
22.073
0
VERTEX
8
CUT
10
13.440
20
22.936
0
VERTEX
8
CUT
10
15.000
20
23.707
0
VERTEX
8
CUT
10
16.500
20
24.373
0
VERTEX
8
CUT
10
18.000
20
24.973
0
VERTEX
8
CUT
10
19.500
20
25.525
0
VERTEX
8
CUT
10
21.000
20
26.047
0
VERTEX
8
CUT
10
21.400
20
26.183
0
VERTEX
8
CUT
10
22.995
20
21.444
0
VERTEX
8
CUT
10
28.195
20
23.158
0
VERTEX
8
CUT
10
26.600
20
27.897
0
VERTEX
8
CUT
10
27.598
20
28.189
0
VERTEX
8
CUT
10
30.000
20
28.807
0
VERTEX
8
CUT
10
31.516
20
29.172
0
VERTEX
8
CUT
10
33.223
20
29.575
0
VERTEX
8
CUT
10
35.076
20
30.002
0
VERTEX
8
CUT
10
37.031
20
30.440
0
VERTEX
8
CUT
10
39.045
20
30.876
0
VERTEX
8
CUT
10
41.074
20
31.298
0
VERTEX
8
CUT
10
43.074
20
31.692
0
VERTEX
8
CUT
10
45.000
20
32.047
0
VERTEX
8
CUT
10
46.772
20
32.366
0
VERTEX
8
CUT
10
48.398
20
32.665
0
VERTEX
8
CUT
10
49.966
20
32.944
0
VERTEX
8
CUT
10
51.562
20
33.205
0
VERTEX
8
CUT
10
53.276
20
33.449
0
VERTEX
8
CUT
10
55.195
20
33.677
0
VERTEX
8
CUT
10
57.407
20
33.889
0
VERTEX
8
CUT
10
60.000
20
34.087
0
VERTEX
8
CUT
10
61.463
20
34.182
0
VERTEX
8
CUT
10
63.032
20
34.276
0
VERTEX
8
CUT
10
64.697
20
34.368
0
VERTEX
8
CUT
10
66.445
20
34.458
0
VERTEX
8
CUT
10
68.267
20
34.545
0
VERTEX
8
CUT
10
70.151
20
34.628
0
VERTEX
8
CUT
10
72.087
20
34.707
0
VERTEX
8
CUT
10
74.062
20
34.780
0
VERTEX
8
CUT
10
76.068
20
34.848
0
VERTEX
8
CUT
10
78.091
20
34.910
0
VERTEX
8
CUT
10
80.121
20
34.964
0
VERTEX
8
CUT
10
82.148
20
35.011
0
VERTEX
8
CUT
10
84.161
20
35.049
0
VERTEX
8
CUT
10
86.147
20
35.078
0
VERTEX
8
CUT
10
87.400
20
35.091
0
VERTEX
8
CUT
10
87.412
20
30.091
0
VERTEX
8
CUT
10
92.612
20
30.103
0
VERTEX
8
CUT
10
92.600
20
35.103
0
VERTEX
8
CUT
10
93.750
20
35.098
0
VERTEX
8
CUT
10
95.625
20
35.082
0
VERTEX
8
CUT
10
97.500
20
35.057
0
VERTEX
8
CUT
10
99.375
20
35.026
0
VERTEX
8
CUT
10
101.250
20
34.986
0
VERTEX
8
CUT
10
103.125
20
34.939
0
VERTEX
8
CUT
10
105.000
20
34.885
0
VERTEX
8
CUT
10
106.875
20
34.824
0
VERTEX
8
CUT
10
108.750
20
34.756
0
VERTEX
8
CUT
10
110.625
20
34.681
0
VERTEX
8
CUT
10
112.500
20
34.599
0
VERTEX
8
CUT
10
114.375
20
34.511
0
VERTEX
8
CUT
10
116.250
20
34.416
0
VERTEX
8
CUT
10
118.125
20
34.314
0
VERTEX
8
CUT
10
120.000
20
34.207
0
VERTEX
8
CUT
10
121.875
20
34.092
0
VERTEX
8
CUT
10
123.750
20
33.970
0
VERTEX
8
CUT
10
125.625
20
33.840
0
VERTEX
8
CUT
10
127.500
20
33.703
0
VERTEX
8
CUT
10
129.375
20
33.560
0
VERTEX
8
CUT
10
131.250
20
33.409
0
VERTEX
8
CUT
10
133.125
20
33.251
0
VERTEX
8
CUT
10
135.000
20
33.087
0
VERTEX
8
CUT
10
136.875
20
32.917
0
VERTEX
8
CUT
10
138.750
20
32.741
0
VERTEX
8
CUT
10
140.625
20
32.559
0
VERTEX
8
CUT
10
142.500
20
32.371
0
VERTEX
8
CUT
10
144.375
20
32.177
0
VERTEX
8
CUT
10
146.250
20
31.979
0
VERTEX
8
CUT
10
148.125
20
31.775
0
VERTEX
8
CUT
10
150.000
20
31.567
0
VERTEX
8
CUT
10
151.875
20
31.353
0
VERTEX
8
CUT
10
153.400
20
31.173
0
VERTEX
8
CUT
10
152.789
20
26.211
0
VERTEX
8
CUT
10
157.989
20
25.570
0
VERTEX
8
CUT
10
158.600
20
30.533
0
VERTEX
8
CUT
10
159.375
20
30.434
0
VERTEX
8
CUT
10
161.250
20
30.190
0
VERTEX
8
CUT
10
163.125
20
29.940
0
VERTEX
8
CUT
10
165.000
20
29.684
0
VERTEX
8
CUT
10
166.875
20
29.423
0
VERTEX
8
CUT
10
168.750
20
29.157
0
VERTEX
8
CUT
10
170.625
20
28.886
0
VERTEX
8
CUT
10
172.500
20
28.609
0
VERTEX
8
CUT
10
174.375
20
28.328
0
VERTEX
8
CUT
10
176.250
20
28.042
0
VERTEX
8
CUT
10
178.125
20
27.752
0
VERTEX
8
CUT
10
180.000
20
27.457
0
VERTEX
8
CUT
10
181.875
20
27.156
0
VERTEX
8
CUT
10
183.750
20
26.850
0
VERTEX
8
CUT
10
185.625
20
26.538
0
VERTEX
8
CUT
10
187.500
20
26.221
0
VERTEX
8
CUT
10
189.375
20
25.898
0
VERTEX
8
CUT
10
191.250
20
25.570
0
VERTEX
8
CUT
10
193.125
20
25.237
0
VERTEX
8
CUT
10
195.000
20
24.899
0
VERTEX
8
CUT
10
196.875
20
24.557
0
VERTEX
8
CUT
10
198.750
20
24.211
0
VERTEX
8
CUT
10
200.625
20
23.861
0
VERTEX
8
CUT
10
202.500
20
23.507
0
VERTEX
8
CUT
10
204.375
20
23.149
0
VERTEX
8
CUT
10
206.250
20
22.788
0
VERTEX
8
CUT
10
208.125
20
22.424
0
VERTEX
8
CUT
10
210.000
20
22.057
0
VERTEX
8
CUT
10
211.875
20
21.686
0
VERTEX
8
CUT
10
213.750
20
21.311
0
VERTEX
8
CUT
10
215.625
20
20.932
0
VERTEX
8
CUT
10
217.500
20
20.549
0
VERTEX
8
CUT
10
219.375
20
20.162
0
VERTEX
8
CUT
10
219.400
20
20.157
0
VERTEX
8
CUT
10
218.371
20
15.264
0
VERTEX
8
CUT
10
223.571
20
14.170
0
VERTEX
8
CUT
10
224.600
20
19.063
0
VERTEX
8
CUT
10
225.000
20
18.978
0
VERTEX
8
CUT
10
226.875
20
18.576
0
VERTEX
8
CUT
10
228.750
20
18.170
0
VERTEX
8
CUT
10
230.625
20
17.761
0
VERTEX
8
CUT
10
232.500
20
17.349
0
VERTEX
8
CUT
10
234.375
20
16.933
0
VERTEX
8
CUT
10
236.250
20
16.514
0
VERTEX
8
CUT
10
238.125
20
16.092
0
VERTEX
8
CUT
10
240.000
20
15.667
0
VERTEX
8
CUT
10
241.902
20
15.231
0
VERTEX
8
CUT
10
243.853
20
14.778
0
VERTEX
8
CUT
10
245.839
20
14.312
0
VERTEX
8
CUT
10
247.852
20
13.835
0
VERTEX
8
CUT
10
249.879
20
13.350
0
VERTEX
8
CUT
10
251.909
20
12.862
0
VERTEX
8
CUT
10
253.932
20
12.371
0
VERTEX
8
CUT
10
255.938
20
11.883
0
VERTEX
8
CUT
10
257.913
20
11.399
0
VERTEX
8
CUT
10
259.849
20
10.924
0
VERTEX
8
CUT
10
261.733
20
10.459
0
VERTEX
8
CUT
10
263.555
20
10.008
0
VERTEX
8
CUT
10
265.303
20
9.574
0
VERTEX
8
CUT
10
266.968
20
9.161
0
VERTEX
8
CUT
10
268.537
20
8.771
0
VERTEX
8
CUT
10
270.000
20
8.407
0
VERTEX
8
CUT
10
272.593
20
7.757
0
VERTEX
8
CUT
10
274.805
20
7.194
0
VERTEX
8
CUT
10
276.724
20
6.697
0
VERTEX
8
CUT
10
278.438
20
6.245
0
VERTEX
8
CUT
10
280.034
20
5.817
0
VERTEX
8
CUT
10
281.602
20
5.394
0
VERTEX
8
CUT
10
283.228
20
4.954
0
VERTEX
8
CUT
10
285.000
20
4.477
0
VERTEX
8
CUT
10
286.978
20
3.943
0
VERTEX
8
CUT
10
289.102
20
3.365
0
VERTEX
8
CUT
10
291.284
20
2.768
0
VERTEX
8
CUT
10
293.438
20
2.176
0
VERTEX
8
CUT
10
295.474
20
1.615
0
VERTEX
8
CUT
10
297.305
20
1.109
0
VERTEX
8
CUT
10
298.843
20
0.685
0
VERTEX
8
CUT
10
300.000
20
0.367
0
VERTEX
8
CUT
10
300.000
20
0.007
0
VERTEX
8
CUT
10
298.843
20
0.007
0
VERTEX
8
CUT
10
297.305
20
0.007
0
VERTEX
8
CUT
10
295.474
20
0.007
0
VERTEX
8
CUT
10
293.438
20
0.007
0
VERTEX
8
CUT
10
291.284
20
0.007
0
VERTEX
8
CUT
10
289.102
20
0.007
0
VERTEX
8
CUT
10
286.978
20
0.007
0
VERTEX
8
CUT
10
285.000
20
0.007
0
VERTEX
8
CUT
10
283.228
20
0.007
0
VERTEX
8
CUT
10
281.602
20
0.007
0
VERTEX
8
CUT
10
280.034
20
0.007
0
VERTEX
8
CUT
10
278.438
20
0.007
0
VERTEX
8
CUT
10
276.724
20
0.007
0
VERTEX
8
CUT
10
274.805
20
0.007
0
VERTEX
8
CUT
10
272.593
20
0.007
0
VERTEX
8
CUT
10
270.000
20
0.007
0
VERTEX
8
CUT
10
268.436
20
0.007
0
VERTEX
8
CUT
10
266.751
20
0.007
0
VERTEX
8
CUT
10
264.960
20
0.007
0
VERTEX
8
CUT
10
263.076
20
0.007
0
VERTEX
8
CUT
10
261.111
20
0.007
0
VERTEX
8
CUT
10
259.080
20
0.007
0
VERTEX
8
CUT
10
256.996
20
0.007
0
VERTEX
8
CUT
10
254.871
20
0.007
0
VERTEX
8
CUT
10
252.720
20
0.007
0
VERTEX
8
CUT
10
250.556
20
0.007
0
VERTEX
8
CUT
10
248.391
20
0.007
0
VERTEX
8
CUT
10
246.240
20
0.007
0
VERTEX
8
CUT
10
244.116
20
0.007
0
VERTEX
8
CUT
10
242.031
20
0.007
0
VERTEX
8
CUT
10
240.000
20
0.007
0
VERTEX
8
CUT
10
238.000
20
0.007
0
VERTEX
8
CUT
10
236.000
20
0.007
0
VERTEX
8
CUT
10
234.000
20
0.007
0
VERTEX
8
CUT
10
232.000
20
0.007
0
VERTEX
8
CUT
10
230.000
20
0.007
0
VERTEX
8
CUT
10
228.000
20
0.007
0
VERTEX
8
CUT
10
226.000
20
0.007
0
VERTEX
8
CUT
10
224.600
20
0.007
0
VERTEX
8
CUT
10
224.600
20
5.007
0
VERTEX
8
CUT
10
219.400
20
5.007
0
VERTEX
8
CUT
10
219.400
20
0.007
0
VERTEX
8
CUT
10
218.000
20
0.007
0
VERTEX
8
CUT
10
216.000
20
0.007
0
VERTEX
8
CUT
10
214.000
20
0.007
0
VERTEX
8
CUT
10
212.000
20
0.007
0
VERTEX
8
CUT
10
210.000
20
0.007
0
VERTEX
8
CUT
10
208.000
20
0.007
0
VERTEX
8
CUT
10
206.000
20
0.007
0
VERTEX
8
CUT
10
204.000
20
0.007
0
VERTEX
8
CUT
10
202.000
20
0.007
0
VERTEX
8
CUT
10
200.000
20
0.007
0
VERTEX
8
CUT
10
198.000
20
0.007
0
VERTEX
8
CUT
10
196.000
20
0.007
0
VERTEX
8
CUT
10
194.000
20
0.007
0
VERTEX
8
CUT
10
192.000
20
0.007
0
VERTEX
8
CUT
10
190.000
20
0.007
0
VERTEX
8
CUT
10
188.000
20
0.007
0
VERTEX
8
CUT
10
186.000
20
0.007
0
VERTEX
8
CUT
10
184.000
20
0.007
0
VERTEX
8
CUT
10
182.000
20
0.007
0
VERTEX
8
CUT
10
180.000
20
0.007
0
VERTEX
8
CUT
10
178.000
20
0.007
0
VERTEX
8
CUT
10
176.000
20
0.007
0
VERTEX
8
CUT
10
174.000
20
0.007
0
VERTEX
8
CUT
10
172.000
20
0.007
0
VERTEX
8
CUT
10
170.000
20
0.007
0
VERTEX
8
CUT
10
168.000
20
0.007
0
VERTEX
8
CUT
10
166.000
20
0.007
0
VERTEX
8
CUT
10
164.000
20
0.007
0
VERTEX
8
CUT
10
162.000
20
0.007
0
VERTEX
8
CUT
10
160.000
20
0.007
0
VERTEX
8
CUT
10
158.600
20
0.007
0
VERTEX
8
CUT
10
158.600
20
5.007
0
VERTEX
8
CUT
10
153.400
20
5.007
0
VERTEX
8
CUT
10
153.400
20
0.007
0
VERTEX
8
CUT
10
152.000
20
0.007
0
VERTEX
8
CUT
10
150.000
20
0.007
0
VERTEX
8
CUT
10
148.000
20
0.007
0
VERTEX
8
CUT
10
146.000
20
0.007
0
VERTEX
8
CUT
10
144.000
20
0.007
0
VERTEX
8
CUT
10
142.000
20
0.007
0
VERTEX
8
CUT
10
140.000
20
0.007
0
VERTEX
8
CUT
10
138.000
20
0.007
0
VERTEX
8
CUT
10
136.000
20
0.007
0
VERTEX
8
CUT
10
134.000
20
0.007
0
VERTEX
8
CUT
10
132.000
20
0.007
0
VERTEX
8
CUT
10
130.000
20
0.007
0
VERTEX
8
CUT
10
128.000
20
0.007
0
VERTEX
8
CUT
10
126.000
20
0.007
0
VERTEX
8
CUT
10
124.000
20
0.007
0
VERTEX
8
CUT
10
122.000
20
0.007
0
VERTEX
8
CUT
10
120.000
20
0.007
0
VERTEX
8
CUT
10
118.000
20
0.006
0
VERTEX
8
CUT
10
116.000
20
0.006
0
VERTEX
8
CUT
10
114.000
20
0.005
0
VERTEX
8
CUT
10
112.000
20
0.004
0
VERTEX
8
CUT
10
110.000
20
0.003
0
VERTEX
8
CUT
10
108.000
20
0.002
0
VERTEX
8
CUT
10
106.000
20
0.001
0
VERTEX
8
CUT
10
104.000
20
0.001
0
VERTEX
8
CUT
10
102.000
20
0.000
0
VERTEX
8
CUT
10
100.000
20
0.000
0
VERTEX
8
CUT
10
98.000
20
0.000
0
VERTEX
8
CUT
10
96.000
20
0.001
0
VERTEX
8
CUT
10
94.000
20
0.002
0
VERTEX
8
CUT
10
92.600
20
0.003
0
VERTEX
8
CUT
10
92.607
20
5.003
0
VERTEX
8
CUT
10
87.407
20
5.010
0
VERTEX
8
CUT
10
87.400
20
0.010
0
VERTEX
8
CUT
10
86.147
20
0.012
0
VERTEX
8
CUT
10
84.161
20
0.014
0
VERTEX
8
CUT
10
82.148
20
0.017
0
VERTEX
8
CUT
10
80.121
20
0.019
0
VERTEX
8
CUT
10
78.091
20
0.022
0
VERTEX
8
CUT
10
76.068
20
0.025
0
VERTEX
8
CUT
10
74.062
20
0.029
0
VERTEX
8
CUT
10
72.087
20
0.034
0
VERTEX
8
CUT
10
70.151
20
0.039
0
VERTEX
8
CUT
10
68.267
20
0.046
0
VERTEX
8
CUT
10
66.445
20
0.053
0
VERTEX
8
CUT
10
64.697
20
0.062
0
VERTEX
8
CUT
10
63.032
20
0.072
0
VERTEX
8
CUT
10
61.463
20
0.083
0
VERTEX
8
CUT
10
60.000
20
0.097
0
VERTEX
8
CUT
10
57.407
20
0.126
0
VERTEX
8
CUT
10
55.195
20
0.157
0
VERTEX
8
CUT
10
53.276
20
0.192
0
VERTEX
8
CUT
10
51.562
20
0.232
0
VERTEX
8
CUT
10
49.966
20
0.277
0
VERTEX
8
CUT
10
48.398
20
0.329
0
VERTEX
8
CUT
10
46.772
20
0.388
0
VERTEX
8
CUT
10
45.000
20
0.457
0
VERTEX
8
CUT
10
43.074
20
0.538
0
VERTEX
8
CUT
10
41.074
20
0.632
0
VERTEX
8
CUT
10
39.045
20
0.735
0
VERTEX
8
CUT
10
37.031
20
0.845
0
VERTEX
8
CUT
10
35.076
20
0.956
0
VERTEX
8
CUT
10
33.223
20
1.066
0
VERTEX
8
CUT
10
31.516
20
1.171
0
VERTEX
8
CUT
10
30.000
20
1.267
0
VERTEX
8
CUT
10
27.598
20
1.430
0
VERTEX
8
CUT
10
25.781
20
1.576
0
VERTEX
8
CUT
10
24.199
20
1.724
0
VERTEX
8
CUT
10
22.500
20
1.897
0
VERTEX
8
CUT
10
20.625
20
2.086
0
VERTEX
8
CUT
10
18.750
20
2.285
0
VERTEX
8
CUT
10
16.875
20
2.515
0
VERTEX
8
CUT
10
15.000
20
2.797
0
VERTEX
8
CUT
10
13.037
20
3.157
0
VERTEX
8
CUT
10
11.016
20
3.577
0
VERTEX
8
CUT
10
9.111
20
4.012
0
VERTEX
8
CUT
10
7.500
20
4.417
0
VERTEX
8
CUT
10
5.391
20
4.914
0
VERTEX
8
CUT
10
3.750
20
5.797
0
VERTEX
8
CUT
10
2.725
20
6.850
0
VERTEX
8
CUT
10
1.641
20
8.238
0
VERTEX
8
CUT
10
0.674
20
9.582
0
SEQEND
0
ENDSEC
0
EOF
